SplineFontDB: 3.0
FontName: NimbusSanL-Reg
FullName: Nimbus Sans L Regular
FamilyName: Nimbus Sans L
Weight: Regular
Copyright: Copyright (URW)++,Copyright 2014 by (URW)++ Design & Development
Version: 1.00
ItalicAngle: 0
UnderlinePosition: -151
UnderlineWidth: 50
Ascent: 729
Descent: 271
LayerCount: 2
Layer: 0 0 "Back"  1
Layer: 1 0 "Fore"  0
FSType: 8
OS2Version: 0
OS2_WeightWidthSlopeOnly: 0
OS2_UseTypoMetrics: 0
CreationTime: 1464335511
ModificationTime: 1464335511
OS2TypoAscent: 0
OS2TypoAOffset: 1
OS2TypoDescent: 0
OS2TypoDOffset: 1
OS2TypoLinegap: 0
OS2WinAscent: 0
OS2WinAOffset: 1
OS2WinDescent: 0
OS2WinDOffset: 1
HheadAscent: 0
HheadAOffset: 1
HheadDescent: 0
HheadDOffset: 1
OS2Vendor: 'PfEd'
DEI: 91125
Encoding: UnicodeBmp
UnicodeInterp: none
NameList: Adobe Glyph List
DisplaySize: -24
AntiAlias: 1
FitToEm: 1
BeginPrivate: 5
BlueValues 31 [-23 0 524 539 729 741 686 709]
StdHW 4 [83]
StdVW 4 [93]
StemSnapH 31 [42 46 53 61 68 71 74 78 83 91]
StemSnapV 31 [41 45 53 59 63 68 76 83 88 93]
EndPrivate
BeginChars: 65537 758

StartChar: exclam
Encoding: 33 33 1
Width: 278
Flags: MW
HStem: 0 104<124 208 124 208> 709 20<125 208 208 208>
VStem: 125 83<391 729>
LayerCount: 2
Fore
SplineSet
208 729 m 1
 208 391 l 1
 186 168 l 1
 147 168 l 1
 125 391 l 1
 125 729 l 1
 208 729 l 1
208 104 m 1
 208 0 l 1
 124 0 l 1
 124 104 l 1
 208 104 l 1
EndSplineSet
EndChar

StartChar: quotedbl
Encoding: 34 34 2
Width: 355
Flags: MW
VStem: 52 93<598 709 598 709> 212 93<598 709 598 709>
LayerCount: 2
Fore
SplineSet
52 709 m 1
 145 709 l 1
 145 598 l 1
 118 464 l 1
 79 464 l 1
 52 598 l 1
 52 709 l 1
212 709 m 1
 305 709 l 1
 305 598 l 1
 278 464 l 1
 239 464 l 1
 212 598 l 1
 212 709 l 1
EndSplineSet
EndChar

StartChar: numbersign
Encoding: 35 35 3
Width: 556
Flags: MW
HStem: -20 20 191 68<14 115 14 128 204 316 14 192 405 510> 433 68<51 159 51 172 51 236 248 360 449 542>
LayerCount: 2
Fore
SplineSet
485 697 m 1
 449 501 l 1
 542 501 l 1
 542 433 l 1
 436 433 l 1
 405 259 l 1
 510 259 l 1
 510 191 l 1
 393 191 l 1
 354 -20 l 1
 278 -20 l 1
 316 191 l 1
 192 191 l 1
 153 -20 l 1
 77 -20 l 1
 115 191 l 1
 14 191 l 1
 14 259 l 1
 128 259 l 1
 159 433 l 1
 51 433 l 1
 51 501 l 1
 172 501 l 1
 208 697 l 1
 284 697 l 1
 248 501 l 1
 373 501 l 1
 408 697 l 1
 485 697 l 1
360 433 m 1
 236 433 l 1
 204 259 l 1
 329 259 l 1
 360 433 l 1
EndSplineSet
EndChar

StartChar: dollar
Encoding: 36 36 4
Width: 556
Flags: MW
VStem: 53 81<495.5 559 495.5 573> 250 59<-126 -23 -126 -23 46 309 405 645 645 645 716 770> 443 82<163.5 216>
LayerCount: 2
Fore
SplineSet
250 770 m 1
 309 770 l 1
 309 716 l 1
 430 707 503 633 503 519 c 1
 424 519 l 1
 423 592 376 643 309 646 c 1
 309 397 l 1
 401 369 414 364 440 349 c 0
 498 316 525 266 525 195 c 0
 525 116 491 48 433 12 c 0
 400 -8 363 -19 309 -23 c 1
 309 -126 l 1
 250 -126 l 1
 250 -23 l 1
 109 -14 33 69 40 208 c 1
 119 208 l 1
 125 143 129 126 144 103 c 1
 167 72 205 52 250 46 c 1
 250 318 l 1
 178 340 150 351 123 370 c 0
 77 404 53 453 53 516 c 0
 53 630 122 700 250 716 c 1
 250 770 l 1
250 405 m 1
 250 645 l 1
 176 635 134 592 134 526 c 0
 134 465 171 426 250 405 c 1
309 309 m 1
 309 46 l 1
 352 51 377 60 401 83 c 0
 428 109 443 144 443 183 c 0
 443 249 411 279 309 309 c 1
EndSplineSet
EndChar

StartChar: percent
Encoding: 37 37 5
Width: 889
Flags: W
HStem: -20 20 -19 70<660.5 716.5 660.5 735.5> 252 70<660 716.5> 343 70<172 227.5 172 246.5> 615 70<171 227.5>
VStem: 29 69<486 542 486 561> 301 69<485.5 541.5> 518 69<124 179.5 124 199> 790 69<123 178.5>
LayerCount: 2
Fore
SplineSet
199 685 m 0xbf80
 295 685 370 609 370 512 c 0
 370 420 293 343 200 343 c 0
 105 343 29 420 29 514 c 0
 29 608 105 685 199 685 c 0xbf80
199 615 m 0
 143 615 98 570 98 514 c 0
 98 458 144 413 200 413 c 0
 255 413 301 458 301 513 c 0
 301 570 256 615 199 615 c 0
609 709 m 1
 675 709 l 1
 280 -20 l 1
 214 -20 l 1
 609 709 l 1
688 322 m 0
 784 322 859 246 859 150 c 0
 859 57 782 -19 689 -19 c 0x6780
 594 -19 518 57 518 152 c 0
 518 246 594 322 688 322 c 0
688 252 m 0
 632 252 587 207 587 152 c 0
 587 96 632 51 689 51 c 0
 744 51 790 96 790 150 c 0
 790 207 745 252 688 252 c 0
EndSplineSet
EndChar

StartChar: ampersand
Encoding: 38 38 6
Width: 667
Flags: W
HStem: -23 78<231 282> 0 20 639 70<275 326>
VStem: 52 84<147.5 211 147.5 222> 133 82<535 579 535 596> 388 79<532 578.5>
LayerCount: 2
Fore
SplineSet
493 334 m 1xac
 573 334 l 1
 573 274 552 208 515 151 c 1
 637 0 l 1
 528 0 l 1x6c
 466 78 l 1
 427 40 410 26 389 12 c 0
 353 -11 307 -23 257 -23 c 0
 134 -23 52 56 52 176 c 0xb0
 52 268 89 317 214 389 c 1
 151 468 133 505 133 552 c 0
 133 640 208 709 304 709 c 0
 399 709 467 644 467 552 c 0
 467 480 433 437 329 378 c 1
 462 215 l 1
 482 250 494 298 493 334 c 1xac
285 431 m 1
 361 478 388 510 388 554 c 0
 388 603 351 639 301 639 c 0
 249 639 215 605 215 553 c 0
 215 517 224 501 285 431 c 1
418 137 m 1x90
 258 337 l 1
 167 279 136 239 136 183 c 0
 136 112 195 55 267 55 c 0
 319 55 362 78 418 137 c 1x90
EndSplineSet
EndChar

StartChar: quoteright
Encoding: 8217 8217 7
Width: 222
Flags: MW
HStem: 625 104<65 113 65 158>
VStem: 65 93<497 628 535 628 625 628 628 729>
LayerCount: 2
Fore
SplineSet
65 729 m 1
 158 729 l 1
 158 628 l 2
 158 548 125 501 65 497 c 1
 65 535 l 1
 100 540 114 567 113 625 c 1
 65 625 l 1
 65 729 l 1
EndSplineSet
EndChar

StartChar: parenleft
Encoding: 40 40 8
Width: 333
Flags: MW
HStem: 709 20<236 291 291 291>
VStem: 73 81<180 337.5>
LayerCount: 2
Fore
SplineSet
236 729 m 1
 291 729 l 1
 203 587 154 418 154 259 c 0
 154 99 203 -69 291 -212 c 1
 236 -212 l 1
 136 -81 73 101 73 259 c 0
 73 416 136 598 236 729 c 1
EndSplineSet
EndChar

StartChar: parenright
Encoding: 41 41 9
Width: 333
Flags: MW
HStem: 709 20<38 93 93 93>
VStem: 175 81<179.5 337 179.5 338>
LayerCount: 2
Fore
SplineSet
93 -212 m 1
 38 -212 l 1
 126 -70 175 99 175 258 c 0
 175 418 126 586 38 729 c 1
 93 729 l 1
 193 598 256 416 256 258 c 0
 256 101 193 -81 93 -212 c 1
EndSplineSet
EndChar

StartChar: asterisk
Encoding: 42 42 10
Width: 389
Flags: MW
HStem: 709 20<160 223 223 223>
LayerCount: 2
Fore
SplineSet
160 729 m 1
 223 729 l 1
 218 617 l 1
 324 655 l 1
 343 596 l 1
 235 566 l 1
 305 477 l 1
 254 441 l 1
 192 534 l 1
 129 441 l 1
 79 477 l 1
 148 566 l 1
 40 596 l 1
 59 655 l 1
 165 617 l 1
 160 729 l 1
EndSplineSet
EndChar

StartChar: plus
Encoding: 43 43 11
Width: 584
Flags: MW
HStem: -10 20 197 70<50 257 50 257 327 534>
VStem: 257 70<-10 197 -10 197 267 474>
LayerCount: 2
Fore
SplineSet
534 267 m 1
 534 197 l 1
 327 197 l 1
 327 -10 l 1
 257 -10 l 1
 257 197 l 1
 50 197 l 1
 50 267 l 1
 257 267 l 1
 257 474 l 1
 327 474 l 1
 327 267 l 1
 534 267 l 1
EndSplineSet
EndChar

StartChar: comma
Encoding: 44 44 12
Width: 278
Flags: MW
HStem: 0 104<87 147 87 192>
LayerCount: 2
Fore
SplineSet
87 104 m 1
 192 104 l 1
 192 -16 l 2
 192 -101 153 -149 87 -147 c 1
 87 -109 l 1
 134 -107 147 -87 147 -18 c 2
 147 0 l 1
 87 0 l 1
 87 104 l 1
EndSplineSet
EndChar

StartChar: hyphen
Encoding: 45 45 13
Width: 333
Flags: MW
HStem: 240 72<46 284 46 284>
VStem: 46 238<240 312 240 312>
LayerCount: 2
Fore
SplineSet
284 312 m 1
 284 240 l 1
 46 240 l 1
 46 312 l 1
 284 312 l 1
EndSplineSet
EndChar

StartChar: period
Encoding: 46 46 14
Width: 278
Flags: MW
HStem: 0 104<87 191 87 191>
VStem: 87 104<0 104 0 104>
LayerCount: 2
Fore
SplineSet
191 104 m 1
 191 0 l 1
 87 0 l 1
 87 104 l 1
 191 104 l 1
EndSplineSet
EndChar

StartChar: slash
Encoding: 47 47 15
Width: 278
Flags: MW
HStem: -20 20 709 20<229 284 284 284>
LayerCount: 2
Fore
SplineSet
229 729 m 1
 284 729 l 1
 47 -20 l 1
 -8 -20 l 1
 229 729 l 1
EndSplineSet
EndChar

StartChar: zero
Encoding: 48 48 16
Width: 556
Flags: MW
HStem: -23 73<226.5 322 226.5 350> 631 78<242 308.5 242 322.5>
VStem: 43 90<245 408.5> 417 90<244.5 406 220.5 440.5>
LayerCount: 2
Fore
SplineSet
275 709 m 0
 342 709 401 681 438 631 c 0
 485 567 507 475 507 337 c 0
 507 104 425 -23 275 -23 c 0
 123 -23 43 103 43 343 c 0
 43 474 66 569 112 631 c 0
 149 680 209 709 275 709 c 0
275 631 m 0
 180 631 133 536 133 342 c 0
 133 148 180 50 273 50 c 0
 371 50 417 144 417 345 c 0
 417 536 370 631 275 631 c 0
EndSplineSet
EndChar

StartChar: one
Encoding: 49 49 17
Width: 556
Flags: MW
HStem: 0 20
VStem: 259 88<0 505 505 505>
LayerCount: 2
Fore
SplineSet
259 505 m 1
 102 505 l 1
 102 568 l 1
 238 585 258 600 289 709 c 1
 347 709 l 1
 347 0 l 1
 259 0 l 1
 259 505 l 1
EndSplineSet
EndChar

StartChar: two
Encoding: 50 50 18
Width: 556
Flags: MW
HStem: 0 87<133 506 133 506> 632 77<254.5 318 239 321>
VStem: 421 90<471 530.5 457.5 537>
LayerCount: 2
Fore
SplineSet
506 87 m 1
 506 0 l 1
 34 0 l 1
 42 156 85 223 233 307 c 2
 325 359 l 2
 388 395 421 443 421 499 c 0
 421 575 361 632 281 632 c 0
 228 632 182 606 159 563 c 0
 147 540 141 511 138 463 c 1
 50 463 l 1
 52 535 63 579 88 617 c 0
 127 678 194 709 284 709 c 0
 352 709 403 691 445 654 c 1
 487 615 511 560 511 501 c 0
 511 414 460 341 361 287 c 2
 261 233 l 1
 174 182 142 145 133 87 c 1
 506 87 l 1
EndSplineSet
EndChar

StartChar: three
Encoding: 51 51 19
Width: 556
Flags: W
HStem: -23 78<221 315 221 339> 632 77<242.5 309>
VStem: 395 90<486 549> 416 90<152.5 239.5>
LayerCount: 2
Fore
SplineSet
221 325 m 1xd0
 221 400 l 1
 283 401 314 405 338 415 c 0
 377 431 395 461 395 511 c 0
 395 587 348 632 270 632 c 0
 215 632 171 608 151 569 c 0
 140 547 136 523 135 480 c 1
 47 480 l 1
 50 631 126 709 269 709 c 0
 404 709 485 636 485 514 c 0xe0
 485 443 452 394 386 367 c 1
 471 338 506 288 506 198 c 0
 506 64 412 -23 266 -23 c 0
 169 -23 99 12 63 80 c 0
 46 112 36 149 32 206 c 1
 120 206 l 1
 126 103 173 55 269 55 c 0
 361 55 416 108 416 197 c 0
 416 282 366 326 269 326 c 1
 232 325 l 1
 221 325 l 1xd0
EndSplineSet
EndChar

StartChar: four
Encoding: 52 52 20
Width: 556
Flags: MW
HStem: 0 20 170 79<105 327 105 327 28 327 415 520>
VStem: 327 88<0 170 0 170 249 559 559 559>
LayerCount: 2
Fore
SplineSet
327 170 m 1
 28 170 l 1
 28 263 l 1
 350 709 l 1
 415 709 l 1
 415 249 l 1
 520 249 l 1
 520 170 l 1
 415 170 l 1
 415 0 l 1
 327 0 l 1
 327 170 l 1
327 249 m 1
 327 559 l 1
 105 249 l 1
 327 249 l 1
EndSplineSet
EndChar

StartChar: five
Encoding: 53 53 21
Width: 556
Flags: MW
HStem: -23 78<230 316 229.5 341.5> 389 78<259 316.5> 622 87<181 476 181 181>
VStem: 423 90<168 271.5>
LayerCount: 2
Fore
SplineSet
476 709 m 1
 476 622 l 1
 181 622 l 1
 153 424 l 1
 194 454 234 467 284 467 c 0
 420 467 513 371 513 231 c 0
 513 81 413 -23 270 -23 c 0
 190 -23 118 8 78 62 c 1
 57 88 47 116 35 174 c 1
 123 174 l 1
 144 94 191 55 268 55 c 0
 364 55 423 117 423 219 c 0
 423 324 364 389 269 389 c 0
 213 389 179 372 138 323 c 1
 57 323 l 1
 110 709 l 1
 476 709 l 1
EndSplineSet
EndChar

StartChar: six
Encoding: 54 54 22
Width: 556
Flags: MW
HStem: -23 78<242 322.5 241 348.5> 363 78<261 327.5> 504 20<410 498 410 410> 631 78<258 322>
VStem: 43 95<168.5 387.5> 423 90<164.5 256.5>
LayerCount: 2
Fore
SplineSet
498 524 m 1
 410 524 l 1
 396 592 353 631 291 631 c 0
 190 631 134 535 133 362 c 1
 171 414 226 441 296 441 c 0
 423 441 513 348 513 216 c 0
 513 77 416 -23 281 -23 c 0
 203 -23 141 8 103 65 c 0
 61 128 43 203 43 323 c 0
 43 452 63 539 107 608 c 1
 149 672 219 709 297 709 c 0
 405 709 481 640 498 524 c 1
285 363 m 0
 198 363 138 302 138 214 c 0
 138 123 200 55 282 55 c 0
 363 55 423 120 423 209 c 0
 423 304 370 363 285 363 c 0
EndSplineSet
EndChar

StartChar: seven
Encoding: 55 55 23
Width: 556
Flags: MW
HStem: 0 20 622 87<46 429 46 520>
LayerCount: 2
Fore
SplineSet
520 709 m 1
 520 635 l 1
 360 422 271 227 232 0 c 1
 138 0 l 1
 191 233 260 381 429 622 c 1
 46 622 l 1
 46 709 l 1
 520 709 l 1
EndSplineSet
EndChar

StartChar: eight
Encoding: 56 56 24
Width: 556
Flags: W
HStem: -23 78<230 318.5 230 345> 334 74<237.5 312 237.5 319> 631 78<237.5 312.5>
VStem: 37 90<153.5 236> 62 90<487 553 485.5 575.5> 398 90<486.5 552.5> 423 90<152.5 235.5 131.5 236.5>
LayerCount: 2
Fore
SplineSet
391 373 m 1xec
 473 334 513 275 513 196 c 0
 513 67 415 -23 275 -23 c 0
 134 -23 37 67 37 197 c 0xf2
 37 275 77 334 158 373 c 1
 85 418 62 454 62 520 c 0
 62 631 150 709 275 709 c 0
 401 709 488 632 488 520 c 0
 488 453 464 418 391 373 c 1xec
275 631 m 0
 200 631 152 587 152 519 c 0
 152 452 200 408 275 408 c 0
 349 408 398 452 398 518 c 0
 398 587 350 631 275 631 c 0
275 334 m 0xf2
 186 334 127 278 127 195 c 0
 127 112 187 55 273 55 c 0
 364 55 423 110 423 195 c 0
 423 278 363 334 275 334 c 0xf2
EndSplineSet
EndChar

StartChar: nine
Encoding: 57 57 25
Width: 556
Flags: MW
HStem: -23 78<229 293.5> 245 78<223.5 289.5> 632 77<228 309 202.5 310>
VStem: 38 90<429.5 522 429.5 539.5> 413 96<298.5 518>
LayerCount: 2
Fore
SplineSet
53 162 m 1
 141 162 l 1
 155 94 198 55 260 55 c 0
 361 55 417 151 418 324 c 1
 372 269 323 245 256 245 c 0
 128 245 38 338 38 470 c 0
 38 609 135 709 270 709 c 0
 348 709 410 678 449 621 c 0
 491 558 509 482 509 363 c 0
 509 234 489 147 445 78 c 1
 403 14 333 -23 254 -23 c 0
 146 -23 70 46 53 162 c 1
269 632 m 0
 187 632 128 567 128 477 c 0
 128 382 181 323 266 323 c 0
 353 323 413 384 413 472 c 0
 413 564 351 632 269 632 c 0
EndSplineSet
EndChar

StartChar: colon
Encoding: 58 58 26
Width: 278
Flags: MW
HStem: 0 104<110 214 110 214> 420 104<110 214 110 214>
VStem: 110 104<0 104 0 104 420 524>
LayerCount: 2
Fore
SplineSet
214 104 m 1
 214 0 l 1
 110 0 l 1
 110 104 l 1
 214 104 l 1
214 524 m 1
 214 420 l 1
 110 420 l 1
 110 524 l 1
 214 524 l 1
EndSplineSet
EndChar

StartChar: semicolon
Encoding: 59 59 27
Width: 278
Flags: MW
HStem: 0 104<110 170 110 215> 420 104<111 215 111 215>
VStem: 111 104<420 524>
LayerCount: 2
Fore
SplineSet
215 524 m 1
 215 420 l 1
 111 420 l 1
 111 524 l 1
 215 524 l 1
110 104 m 1
 215 104 l 1
 215 -16 l 2
 215 -101 176 -149 110 -147 c 1
 110 -109 l 1
 157 -107 170 -87 170 -18 c 2
 170 0 l 1
 110 0 l 1
 110 104 l 1
EndSplineSet
EndChar

StartChar: less
Encoding: 60 60 28
Width: 584
Flags: MW
HStem: -9 20
LayerCount: 2
Fore
SplineSet
45 198 m 1
 45 267 l 1
 534 474 l 1
 534 395 l 1
 140 234 l 1
 534 70 l 1
 534 -9 l 1
 45 198 l 1
EndSplineSet
EndChar

StartChar: equal
Encoding: 61 61 29
Width: 584
Flags: MW
HStem: 111 70<50 534 50 534> 283 70<50 534 50 534>
LayerCount: 2
Fore
SplineSet
534 353 m 1
 534 283 l 1
 50 283 l 1
 50 353 l 1
 534 353 l 1
534 181 m 1
 534 111 l 1
 50 111 l 1
 50 181 l 1
 534 181 l 1
EndSplineSet
EndChar

StartChar: greater
Encoding: 62 62 30
Width: 584
Flags: MW
HStem: -9 20
LayerCount: 2
Fore
SplineSet
539 267 m 1
 539 198 l 1
 50 -9 l 1
 50 70 l 1
 444 231 l 1
 50 395 l 1
 50 474 l 1
 539 267 l 1
EndSplineSet
EndChar

StartChar: question
Encoding: 63 63 31
Width: 556
Flags: MW
HStem: 0 104<240 330 240 330> 663 78<246 329.5>
VStem: 240 90<0 104 0 104 199 246> 419 90<526 583>
LayerCount: 2
Fore
SplineSet
330 199 m 1
 240 199 l 1
 240 254 l 2
 240 313 259 342 344 417 c 0
 397 464 419 503 419 549 c 0
 419 617 368 663 291 663 c 0
 201 663 162 615 162 507 c 1
 77 507 l 1
 77 662 151 741 296 741 c 0
 426 741 509 666 509 549 c 0
 509 482 484 438 409 370 c 0
 345 313 331 291 330 246 c 1
 330 199 l 1
330 104 m 1
 330 0 l 1
 240 0 l 1
 240 104 l 1
 330 104 l 1
EndSplineSet
EndChar

StartChar: at
Encoding: 64 64 32
Width: 1015
Flags: W
HStem: -142 77<387.5 521 387.5 526> 57 70<682.5 716.5> 62 64<425.5 453.5> 458 64<473 543> 664 77<465.5 608>
VStem: 34 85<177.5 323.5> 264 90<211 300 211 317.5> 864 87<329.5 440>
LayerCount: 2
Fore
SplineSet
665 501 m 1x37
 748 501 l 1
 658 221 l 2
 650 198 646 180 646 171 c 0
 646 147 669 127 696 127 c 0
 781 127 864 240 864 356 c 0
 864 524 704 664 512 664 c 0
 301 664 119 483 119 273 c 0
 119 82 282 -65 493 -65 c 0
 549 -65 604 -56 687 -33 c 1
 715 -100 l 1
 642 -127 563 -142 489 -142 c 0
 236 -142 34 36 34 258 c 0
 34 389 94 523 192 612 c 0
 280 692 406 741 525 741 c 0
 758 741 951 573 951 369 c 0
 951 290 920 210 865 146 c 0
 814 86 754 57 679 57 c 0xdf
 615 57 578 83 569 134 c 1
 523 84 480 62 427 62 c 0
 334 62 264 141 264 245 c 0
 264 390 387 522 521 522 c 0
 576 522 618 493 643 435 c 1
 665 501 l 1x37
515 458 m 0
 431 458 354 356 354 244 c 0
 354 178 398 126 453 126 c 0x37
 490 126 527 150 555 191 c 0
 580 228 607 312 609 362 c 0
 612 417 571 458 515 458 c 0
EndSplineSet
EndChar

StartChar: A
Encoding: 65 65 33
Width: 667
Flags: MW
HStem: 0 20 219 78<216 448 216 474 193 448> 709 20<277 397 397 397>
LayerCount: 2
Fore
SplineSet
474 219 m 1
 193 219 l 1
 116 0 l 1
 17 0 l 1
 277 729 l 1
 397 729 l 1
 653 0 l 1
 549 0 l 1
 474 219 l 1
448 297 m 1
 336 629 l 1
 216 297 l 1
 448 297 l 1
EndSplineSet
EndChar

StartChar: B
Encoding: 66 66 34
Width: 667
Flags: W
HStem: 0 82<172 399 399 408> 333 82<172 352 352 378 172 399 172 352> 647 82<172 352 172 172>
VStem: 79 93<82 82 82 333 415 647> 498 93<511 551> 530 93<179.5 246.5>
LayerCount: 2
Fore
SplineSet
79 0 m 1xf4
 79 729 l 1
 375 729 l 2
 445 729 494 713 533 678 c 0
 571 644 591 598 591 544 c 0xf8
 591 469 557 416 490 385 c 1
 583 349 623 296 623 208 c 0
 623 151 603 99 567 61 c 0
 528 19 477 0 408 0 c 2
 79 0 l 1xf4
172 415 m 1
 352 415 l 2
 404 415 433 422 458 441 c 0
 484 461 498 491 498 531 c 0
 498 571 484 601 458 621 c 0
 433 640 404 647 352 647 c 2
 172 647 l 1
 172 415 l 1
172 82 m 1
 399 82 l 2
 481 82 530 129 530 207 c 0xf4
 530 286 481 333 399 333 c 2
 172 333 l 1
 172 82 l 1
EndSplineSet
EndChar

StartChar: C
Encoding: 67 67 35
Width: 722
Flags: MW
HStem: -23 82<329.5 417 305.5 466> 659 82<332 399.5>
VStem: 48 93<296 415>
LayerCount: 2
Fore
SplineSet
662 503 m 1
 567 503 l 1
 556 558 541 588 514 613 c 0
 484 642 429 659 370 659 c 0
 228 659 141 544 141 357 c 0
 141 175 233 59 378 59 c 0
 456 59 518 93 548 153 c 0
 563 182 573 216 581 266 c 1
 677 266 l 1
 655 73 555 -23 377 -23 c 0
 282 -23 210 4 153 62 c 1
 85 133 48 236 48 356 c 0
 48 474 84 578 150 650 c 0
 204 710 283 741 381 741 c 0
 541 741 633 663 662 503 c 1
EndSplineSet
EndChar

StartChar: D
Encoding: 68 68 36
Width: 722
Flags: MW
HStem: 0 82<182 354 354 370> 647 82<182 354 182 182>
VStem: 89 93<82 82 82 647> 574 93<271.5 457>
LayerCount: 2
Fore
SplineSet
89 0 m 1
 89 729 l 1
 370 729 l 2
 555 729 667 591 667 365 c 0
 667 138 554 0 370 0 c 2
 89 0 l 1
182 82 m 1
 354 82 l 2
 498 82 574 179 574 364 c 0
 574 550 498 647 354 647 c 2
 182 647 l 1
 182 82 l 1
EndSplineSet
EndChar

StartChar: E
Encoding: 69 69 37
Width: 667
Flags: MW
HStem: 0 82<183 613 183 613> 332 82<183 580 183 580> 647 82<183 595 183 183>
VStem: 90 93<82 332 82 414 414 647>
LayerCount: 2
Fore
SplineSet
183 332 m 1
 183 82 l 1
 613 82 l 1
 613 0 l 1
 90 0 l 1
 90 729 l 1
 595 729 l 1
 595 647 l 1
 183 647 l 1
 183 414 l 1
 580 414 l 1
 580 332 l 1
 183 332 l 1
EndSplineSet
EndChar

StartChar: F
Encoding: 70 70 38
Width: 611
Flags: MW
HStem: 0 20 332 82<183 531 183 531> 647 82<183 579 183 183>
VStem: 90 93<0 332 0 414 414 647>
LayerCount: 2
Fore
SplineSet
183 332 m 1
 183 0 l 1
 90 0 l 1
 90 729 l 1
 579 729 l 1
 579 647 l 1
 183 647 l 1
 183 414 l 1
 531 414 l 1
 531 332 l 1
 183 332 l 1
EndSplineSet
EndChar

StartChar: G
Encoding: 71 71 39
Width: 778
Flags: MW
HStem: -23 82<361 427.5> 303 82<405 627 405 709> 659 82<349.5 448.5>
VStem: 44 93<317 422.5>
LayerCount: 2
Fore
SplineSet
709 385 m 1
 709 -4 l 1
 650 -4 l 1
 627 93 l 1
 555 14 477 -23 378 -23 c 0
 181 -23 44 133 44 357 c 0
 44 488 91 601 176 671 c 0
 233 718 305 741 394 741 c 0
 561 741 673 656 699 508 c 1
 604 508 l 1
 584 602 504 659 393 659 c 0
 239 659 137 541 137 362 c 0
 137 272 166 185 214 133 c 0
 257 86 324 59 398 59 c 0
 531 59 627 153 627 283 c 2
 627 303 l 1
 405 303 l 1
 405 385 l 1
 709 385 l 1
EndSplineSet
EndChar

StartChar: H
Encoding: 72 72 40
Width: 722
Flags: MW
HStem: 0 20 332 82<176 551 176 551> 709 20<83 176 176 176 551 644 644 644>
VStem: 83 93<0 332 0 414 414 729> 551 93<0 332 332 332 414 729 0 729>
LayerCount: 2
Fore
SplineSet
551 332 m 1
 176 332 l 1
 176 0 l 1
 83 0 l 1
 83 729 l 1
 176 729 l 1
 176 414 l 1
 551 414 l 1
 551 729 l 1
 644 729 l 1
 644 0 l 1
 551 0 l 1
 551 332 l 1
EndSplineSet
EndChar

StartChar: I
Encoding: 73 73 41
Width: 278
Flags: MW
HStem: 0 20 709 20<100 194 194 194>
VStem: 100 94<0 729 0 729>
LayerCount: 2
Fore
SplineSet
194 729 m 1
 194 0 l 1
 100 0 l 1
 100 729 l 1
 194 729 l 1
EndSplineSet
EndChar

StartChar: J
Encoding: 74 74 42
Width: 500
Flags: MW
HStem: -23 78<186 239.5 186 283.5> 709 20<333 426 426 426>
VStem: 17 95<170 187 187 234 144.5 234> 333 93<216 729>
LayerCount: 2
Fore
SplineSet
333 729 m 1
 426 729 l 1
 426 182 l 2
 426 56 347 -23 220 -23 c 0
 95 -23 17 52 17 170 c 2
 17 234 l 1
 112 234 l 1
 112 187 l 2
 112 102 151 55 221 55 c 0
 258 55 292 72 310 100 c 0
 327 125 333 158 333 216 c 2
 333 729 l 1
EndSplineSet
EndChar

StartChar: K
Encoding: 75 75 43
Width: 667
Flags: MW
HStem: 0 20 709 20<79 172 172 172 535 655 655 655>
VStem: 79 93<0 255 360 729>
LayerCount: 2
Fore
SplineSet
172 255 m 1
 172 0 l 1
 79 0 l 1
 79 729 l 1
 172 729 l 1
 172 360 l 1
 535 729 l 1
 655 729 l 1
 358 432 l 1
 658 0 l 1
 548 0 l 1
 291 374 l 1
 172 255 l 1
EndSplineSet
EndChar

StartChar: L
Encoding: 76 76 44
Width: 556
Flags: MW
HStem: 0 82<173 533 173 533> 709 20<80 173 173 173>
VStem: 80 93<82 729 82 729 82 729>
LayerCount: 2
Fore
SplineSet
173 729 m 1
 173 82 l 1
 533 82 l 1
 533 0 l 1
 80 0 l 1
 80 729 l 1
 173 729 l 1
EndSplineSet
EndChar

StartChar: M
Encoding: 77 77 45
Width: 833
Flags: MW
HStem: 0 20 709 20<75 204 204 204 632 761 761 761>
VStem: 75 88<0 611 0 729> 673 88<0 611 611 611>
LayerCount: 2
Fore
SplineSet
468 0 m 1
 370 0 l 1
 163 611 l 1
 163 0 l 1
 75 0 l 1
 75 729 l 1
 204 729 l 1
 420 94 l 1
 632 729 l 1
 761 729 l 1
 761 0 l 1
 673 0 l 1
 673 611 l 1
 468 0 l 1
EndSplineSet
EndChar

StartChar: N
Encoding: 78 78 46
Width: 722
Flags: MW
HStem: 0 20 709 20<76 177 177 177 558 646 646 646>
VStem: 76 88<0 591 0 729> 558 88<133 729 0 729>
LayerCount: 2
Fore
SplineSet
646 729 m 1
 646 0 l 1
 541 0 l 1
 164 591 l 1
 164 0 l 1
 76 0 l 1
 76 729 l 1
 177 729 l 1
 558 133 l 1
 558 729 l 1
 646 729 l 1
EndSplineSet
EndChar

StartChar: O
Encoding: 79 79 47
Width: 778
Flags: MW
HStem: -23 82<312 434.5> 659 82<311.5 468>
VStem: 38 93<269 449 269 473> 649 93<293.5 447.5>
LayerCount: 2
Fore
SplineSet
389 741 m 0
 603 741 742 588 742 353 c 0
 742 234 695 121 616 54 c 0
 557 4 479 -23 390 -23 c 0
 179 -23 38 130 38 359 c 0
 38 587 180 741 389 741 c 0
389 659 m 0
 234 659 131 539 131 359 c 0
 131 179 234 59 390 59 c 0
 544 59 649 179 649 355 c 0
 649 540 547 659 389 659 c 0
EndSplineSet
EndChar

StartChar: P
Encoding: 80 80 48
Width: 667
Flags: MW
HStem: 0 20 309 82<184 378 184 378 378 413> 647 82<184 378 184 184>
VStem: 91 93<0 309 391 647> 520 97<481.5 559>
LayerCount: 2
Fore
SplineSet
184 309 m 1
 184 0 l 1
 91 0 l 1
 91 729 l 1
 392 729 l 2
 536 729 617 652 617 515 c 0
 617 448 598 401 554 361 c 0
 515 326 470 309 413 309 c 2
 184 309 l 1
184 391 m 1
 378 391 l 2
 467 391 520 439 520 519 c 0
 520 599 467 647 378 647 c 2
 184 647 l 1
 184 391 l 1
EndSplineSet
EndChar

StartChar: Q
Encoding: 81 81 49
Width: 778
Flags: MW
HStem: -23 82<311.5 411 311.5 426.5> 659 82<312 467.5>
VStem: 38 93<269 449 269 473.5> 649 93<312.5 449.5>
LayerCount: 2
Fore
SplineSet
733 -1 m 1
 686 -59 l 1
 581 28 l 1
 522 -7 463 -23 390 -23 c 0
 179 -23 38 131 38 359 c 0
 38 588 179 741 390 741 c 0
 600 741 742 588 742 361 c 0
 742 245 708 152 639 76 c 1
 733 -1 l 1
481 205 m 1
 570 132 l 1
 624 193 649 265 649 360 c 0
 649 539 545 659 390 659 c 0
 234 659 131 539 131 359 c 0
 131 179 234 59 389 59 c 0
 433 59 466 66 509 87 c 1
 435 149 l 1
 481 205 l 1
EndSplineSet
EndChar

StartChar: R
Encoding: 82 82 50
Width: 722
Flags: MW
HStem: 0 20 314 82<186 411 186 411 411 426> 647 82<186 411 186 186>
VStem: 93 93<0 314 396 647> 554 97<492 543.5>
LayerCount: 2
Fore
SplineSet
186 314 m 1
 186 0 l 1
 93 0 l 1
 93 729 l 1
 429 729 l 2
 573 729 651 660 651 534 c 0
 651 450 618 401 536 360 c 1
 615 326 634 290 635 170 c 1
 637 73 644 47 679 23 c 1
 679 0 l 1
 566 0 l 1
 553 30 545 74 545 119 c 2
 546 184 l 1
 546 274 509 314 426 314 c 2
 186 314 l 1
186 396 m 1
 411 396 l 2
 510 396 554 435 554 522 c 0
 554 565 541 598 516 619 c 0
 493 639 463 647 411 647 c 2
 186 647 l 1
 186 396 l 1
EndSplineSet
EndChar

StartChar: S
Encoding: 83 83 51
Width: 667
Flags: MW
HStem: -23 82<302 371.5 302 379.5> 663 78<277 384>
VStem: 70 93<512 577 512 593> 528 93<171.5 219.5>
LayerCount: 2
Fore
SplineSet
596 515 m 1
 508 515 l 1
 507 611 442 663 326 663 c 0
 228 663 163 614 163 540 c 0
 163 484 195 456 283 432 c 2
 466 383 l 2
 565 356 621 290 621 200 c 0
 621 137 590 72 541 33 c 1
 494 -3 423 -23 336 -23 c 0
 225 -23 141 12 91 81 c 0
 62 121 49 165 48 232 c 1
 136 232 l 1
 135 187 147 152 174 120 c 0
 209 78 262 59 342 59 c 0
 401 59 447 69 476 90 c 0
 507 112 528 152 528 191 c 0
 528 248 487 285 394 309 c 2
 213 357 l 2
 117 382 70 438 70 527 c 0
 70 659 169 741 329 741 c 0
 452 741 537 697 577 613 c 0
 593 579 596 565 596 515 c 1
EndSplineSet
EndChar

StartChar: T
Encoding: 84 84 52
Width: 611
Flags: MW
HStem: 0 20 647 82<21 261 21 593 354 593 354 354>
VStem: 261 93<0 647 0 647>
LayerCount: 2
Fore
SplineSet
354 647 m 1
 354 0 l 1
 261 0 l 1
 261 647 l 1
 21 647 l 1
 21 729 l 1
 593 729 l 1
 593 647 l 1
 354 647 l 1
EndSplineSet
EndChar

StartChar: U
Encoding: 85 85 53
Width: 722
Flags: MW
HStem: -23 82<337 422.5 337 449.5> 709 20<85 178 178 178 552 645 645 645>
VStem: 85 93<217 729> 552 93<217 729>
LayerCount: 2
Fore
SplineSet
552 729 m 1
 645 729 l 1
 645 217 l 2
 645 71 535 -23 364 -23 c 0
 191 -23 85 69 85 217 c 2
 85 729 l 1
 178 729 l 1
 178 217 l 2
 178 162 195 125 231 97 c 1
 266 72 310 59 364 59 c 0
 481 59 552 119 552 217 c 2
 552 729 l 1
EndSplineSet
EndChar

StartChar: V
Encoding: 86 86 54
Width: 667
Flags: MW
HStem: 0 20 709 20<30 130 130 130 546 645 645 645>
LayerCount: 2
Fore
SplineSet
392 0 m 1
 292 0 l 1
 30 729 l 1
 130 729 l 1
 344 112 l 1
 546 729 l 1
 645 729 l 1
 392 0 l 1
EndSplineSet
EndChar

StartChar: W
Encoding: 87 87 55
Width: 944
Flags: MW
HStem: 0 20 709 20<22 126 126 126 425 525 525 525 825 929 929 929>
LayerCount: 2
Fore
SplineSet
744 0 m 1
 642 0 l 1
 474 599 l 1
 311 0 l 1
 209 0 l 1
 22 729 l 1
 126 729 l 1
 263 137 l 1
 425 729 l 1
 525 729 l 1
 691 137 l 1
 825 729 l 1
 929 729 l 1
 744 0 l 1
EndSplineSet
EndChar

StartChar: X
Encoding: 88 88 56
Width: 667
Flags: MW
HStem: 0 20 709 20<38 151 151 151 526 637 637 637>
LayerCount: 2
Fore
SplineSet
391 374 m 1
 649 0 l 1
 534 0 l 1
 335 304 l 1
 135 0 l 1
 22 0 l 1
 280 374 l 1
 38 729 l 1
 151 729 l 1
 338 443 l 1
 526 729 l 1
 637 729 l 1
 391 374 l 1
EndSplineSet
EndChar

StartChar: Y
Encoding: 89 89 57
Width: 667
Flags: MW
HStem: 0 20 709 20<13 128 128 128 550 661 661 661>
VStem: 294 93<0 286 0 286>
LayerCount: 2
Fore
SplineSet
387 286 m 1
 387 0 l 1
 294 0 l 1
 294 286 l 1
 13 729 l 1
 128 729 l 1
 342 374 l 1
 550 729 l 1
 661 729 l 1
 387 286 l 1
EndSplineSet
EndChar

StartChar: Z
Encoding: 90 90 58
Width: 611
Flags: MW
HStem: 0 82<145 583 28 28> 647 82<56 466 56 581>
LayerCount: 2
Fore
SplineSet
581 729 m 1
 581 645 l 1
 145 82 l 1
 583 82 l 1
 583 0 l 1
 28 0 l 1
 28 82 l 1
 466 647 l 1
 56 647 l 1
 56 729 l 1
 581 729 l 1
EndSplineSet
EndChar

StartChar: bracketleft
Encoding: 91 91 59
Width: 278
Flags: MW
HStem: -212 72<147 250 147 250> 657 72<147 250 147 147>
VStem: 64 83<-140 657 -140 729 -140 729>
LayerCount: 2
Fore
SplineSet
250 729 m 1
 250 657 l 1
 147 657 l 1
 147 -140 l 1
 250 -140 l 1
 250 -212 l 1
 64 -212 l 1
 64 729 l 1
 250 729 l 1
EndSplineSet
EndChar

StartChar: backslash
Encoding: 92 92 60
Width: 278
Flags: MW
HStem: -20 20 709 20<-8 47 47 47>
LayerCount: 2
Fore
SplineSet
47 729 m 1
 284 -20 l 1
 229 -20 l 1
 -8 729 l 1
 47 729 l 1
EndSplineSet
EndChar

StartChar: bracketright
Encoding: 93 93 61
Width: 278
Flags: MW
HStem: -212 72<23 126 23 126 23 209> 657 72<23 126 23 209>
VStem: 126 83<-140 657 657 657>
LayerCount: 2
Fore
SplineSet
23 -212 m 1
 23 -140 l 1
 126 -140 l 1
 126 657 l 1
 23 657 l 1
 23 729 l 1
 209 729 l 1
 209 -212 l 1
 23 -212 l 1
EndSplineSet
EndChar

StartChar: asciicircum
Encoding: 94 94 62
Width: 469
Flags: W
LayerCount: 2
Fore
SplineSet
197 709 m 1
 270 709 l 1
 425 329 l 1
 356 329 l 1
 234 629 l 1
 113 329 l 1
 44 329 l 1
 197 709 l 1
EndSplineSet
EndChar

StartChar: underscore
Encoding: 95 95 63
Width: 556
Flags: MW
HStem: -176 50<-22 578 -22 578>
LayerCount: 2
Fore
SplineSet
578 -126 m 1
 578 -176 l 1
 -22 -176 l 1
 -22 -126 l 1
 578 -126 l 1
EndSplineSet
EndChar

StartChar: quoteleft
Encoding: 8216 8216 64
Width: 222
Flags: MW
HStem: 477 104<110 158 110 158 65 158>
VStem: 65 93<477 578 578 581>
LayerCount: 2
Fore
SplineSet
158 477 m 1
 65 477 l 1
 65 578 l 2
 65 657 99 704 158 709 c 1
 158 671 l 1
 124 666 109 638 110 581 c 1
 158 581 l 1
 158 477 l 1
EndSplineSet
EndChar

StartChar: a
Encoding: 97 97 65
Width: 556
Flags: MW
HStem: -23 73<199.5 247> 462 77<236.5 310>
VStem: 42 87<107.5 161.5 107.5 166> 389 83<165 259 259 259 362 384 384 396>
LayerCount: 2
Fore
SplineSet
535 49 m 1
 535 -14 l 1
 507 -21 496 -23 478 -23 c 0
 424 -23 398 0 392 54 c 1
 333 0 280 -23 214 -23 c 0
 108 -23 42 37 42 132 c 0
 42 200 73 246 134 272 c 0
 166 285 184 289 302 304 c 0
 370 313 388 326 389 362 c 1
 389 384 l 2
 389 434 348 462 272 462 c 0
 194 462 156 433 149 369 c 1
 65 369 l 1
 67 421 77 451 101 478 c 0
 137 517 198 539 275 539 c 0
 404 539 472 489 472 396 c 2
 472 88 l 2
 472 62 488 47 517 47 c 0
 522 47 526 47 535 49 c 1
389 165 m 2
 389 259 l 1
 361 246 344 242 255 230 c 0
 165 217 129 189 129 134 c 0
 129 81 167 50 232 50 c 0
 281 50 322 66 356 97 c 0
 381 120 389 137 389 165 c 2
EndSplineSet
EndChar

StartChar: b
Encoding: 98 98 66
Width: 556
Flags: W
HStem: -23 78<258.5 328.5 238.5 364> 0 20 461 78<263 329.5> 709 20<54 137 137 137>
VStem: 54 83<196.5 319.5 453 729> 436 87<195.5 317.5>
LayerCount: 2
Fore
SplineSet
54 729 m 1x5c
 137 729 l 1
 137 453 l 1
 176 512 227 539 299 539 c 0
 438 539 523 434 523 264 c 0
 523 90 433 -23 295 -23 c 0xbc
 222 -23 169 6 129 67 c 1
 129 0 l 1
 54 0 l 1
 54 729 l 1x5c
283 461 m 0
 194 461 137 381 137 258 c 0
 137 135 194 55 283 55 c 0
 374 55 436 136 436 255 c 0
 436 380 376 461 283 461 c 0
EndSplineSet
EndChar

StartChar: c
Encoding: 99 99 67
Width: 500
Flags: MW
HStem: -23 77<219 300.5 219 325.5> 462 77<217.5 298>
VStem: 31 87<191 318.5 191 340>
LayerCount: 2
Fore
SplineSet
471 348 m 1
 387 348 l 1
 377 421 333 462 263 462 c 0
 172 462 118 384 118 253 c 0
 118 129 173 54 265 54 c 0
 336 54 379 96 393 180 c 1
 477 180 l 1
 467 52 388 -23 263 -23 c 0
 121 -23 31 84 31 253 c 0
 31 427 122 539 264 539 c 0
 337 539 400 510 436 461 c 1
 456 432 467 399 471 348 c 1
EndSplineSet
EndChar

StartChar: d
Encoding: 100 100 68
Width: 556
Flags: W
HStem: -23 78<220 290> 0 20 461 78<219.5 286 183 310> 709 20<412 495 495 495>
VStem: 26 87<197 319 197 346.5> 412 83<195.5 319 458 729 0 729>
LayerCount: 2
Fore
SplineSet
495 729 m 1xbc
 495 0 l 1
 421 0 l 1x7c
 421 69 l 1
 376 4 326 -23 254 -23 c 0
 112 -23 26 86 26 263 c 0
 26 430 115 539 251 539 c 0
 321 539 377 511 412 458 c 1
 412 729 l 1
 495 729 l 1xbc
265 461 m 0
 174 461 113 380 113 258 c 0
 113 136 174 55 266 55 c 0xac
 354 55 412 135 412 256 c 0
 412 382 355 461 265 461 c 0
EndSplineSet
EndChar

StartChar: e
Encoding: 101 101 69
Width: 556
Flags: MW
HStem: -23 77<254.5 314.5 254.5 338> 234 68<129 423 129 513 127 423> 462 77<237 321.5>
LayerCount: 2
Fore
SplineSet
513 234 m 1
 127 234 l 1
 128 182 135 152 155 122 c 0
 183 78 228 54 281 54 c 0
 348 54 395 90 418 159 c 1
 502 159 l 1
 481 45 398 -23 278 -23 c 0
 130 -23 40 82 40 255 c 0
 40 428 134 539 280 539 c 0
 378 539 458 487 492 401 c 0
 507 362 513 314 513 234 c 1
129 302 m 1
 423 302 l 1
 423 396 364 462 279 462 c 0
 195 462 136 399 129 302 c 1
EndSplineSet
EndChar

StartChar: f
Encoding: 102 102 70
Width: 278
Flags: MW
HStem: 0 20 456 68<18 88 18 88 171 258> 659 73<209.5 219.5 172.5 232.5>
VStem: 88 83<0 456 0 456 524 606>
LayerCount: 2
Fore
SplineSet
258 524 m 1
 258 456 l 1
 171 456 l 1
 171 0 l 1
 88 0 l 1
 88 456 l 1
 18 456 l 1
 18 524 l 1
 88 524 l 1
 88 613 l 2
 88 688 134 732 211 732 c 0
 228 732 239 731 258 727 c 1
 258 658 l 1
 239 659 236 659 229 659 c 0
 190 659 171 641 171 606 c 2
 171 524 l 1
 258 524 l 1
EndSplineSet
EndChar

StartChar: g
Encoding: 103 103 71
Width: 556
Flags: W
HStem: -218 70<217.5 289.5> -23 77<217 275.5> 462 77<215 283 186.5 302> 504 20<404 481 481 481>
VStem: 35 87<209 322 193.5 337> 404 77<448 524>
LayerCount: 2
Fore
SplineSet
404 524 m 1x1c
 481 524 l 1x1c
 481 86 l 2
 481 -37 466 -102 426 -151 c 0
 392 -193 328 -218 251 -218 c 0
 137 -218 60 -157 52 -60 c 1
 137 -60 l 1
 145 -120 182 -148 253 -148 c 0
 357 -148 396 -96 396 44 c 2
 396 71 l 1
 352 5 307 -23 244 -23 c 0
 190 -23 140 2 101 48 c 0
 56 101 35 165 35 253 c 0
 35 421 123 539 250 539 c 0xec
 316 539 362 511 404 448 c 1
 404 524 l 1x1c
258 462 m 0x6c
 172 462 122 386 122 258 c 0
 122 129 172 54 258 54 c 0
 345 54 396 128 396 255 c 0
 396 388 346 462 258 462 c 0x6c
EndSplineSet
EndChar

StartChar: h
Encoding: 104 104 72
Width: 556
Flags: MW
HStem: 0 20 466 73<284 309> 709 20<70 153 153 153>
VStem: 70 83<0 289 452 729> 403 83<0 363 363 381.5>
LayerCount: 2
Fore
SplineSet
70 729 m 1
 153 729 l 1
 153 452 l 1
 202 516 247 539 321 539 c 0
 423 539 486 484 486 396 c 2
 486 0 l 1
 403 0 l 1
 403 363 l 2
 403 400 393 425 369 443 c 0
 349 458 323 466 295 466 c 0
 209 466 153 396 153 289 c 2
 153 0 l 1
 70 0 l 1
 70 729 l 1
EndSplineSet
EndChar

StartChar: i
Encoding: 105 105 73
Width: 222
Flags: W
HStem: 0 20 504 20<67 150 150 150> 624 105<66 150 66 150>
VStem: 66 84<624 729> 67 83<0 524 0 524>
LayerCount: 2
Fore
SplineSet
150 524 m 1xe8
 150 0 l 1
 67 0 l 1
 67 524 l 1
 150 524 l 1xe8
150 729 m 1xf0
 150 624 l 1
 66 624 l 1
 66 729 l 1
 150 729 l 1xf0
EndSplineSet
EndChar

StartChar: j
Encoding: 106 106 74
Width: 222
Flags: MW
HStem: -218 73<3.5 28 -1 57> 504 20<70 153 153 153> 624 105<70 153 70 153>
VStem: 70 83<-76 524 624 729>
LayerCount: 2
Fore
SplineSet
70 524 m 1
 153 524 l 1
 153 -109 l 2
 153 -181 104 -218 10 -218 c 0
 -3 -218 -8 -217 -18 -215 c 1
 -18 -144 l 1
 -7 -145 -4 -145 2 -145 c 0
 54 -145 70 -128 70 -76 c 2
 70 524 l 1
153 729 m 1
 153 624 l 1
 70 624 l 1
 70 729 l 1
 153 729 l 1
EndSplineSet
EndChar

StartChar: k
Encoding: 107 107 75
Width: 500
Flags: MW
HStem: 0 20 504 20<363 470 470 470> 709 20<58 141 141 141>
VStem: 58 83<0 204 302 729>
LayerCount: 2
Fore
SplineSet
141 729 m 1
 141 302 l 1
 363 524 l 1
 470 524 l 1
 288 343 l 1
 502 0 l 1
 399 0 l 1
 222 284 l 1
 141 204 l 1
 141 0 l 1
 58 0 l 1
 58 729 l 1
 141 729 l 1
EndSplineSet
EndChar

StartChar: l
Encoding: 108 108 76
Width: 222
Flags: MW
HStem: 0 20 709 20<68 152 152 152>
VStem: 68 84<0 729 0 729>
LayerCount: 2
Fore
SplineSet
152 729 m 1
 152 0 l 1
 68 0 l 1
 68 729 l 1
 152 729 l 1
EndSplineSet
EndChar

StartChar: m
Encoding: 109 109 77
Width: 833
Flags: W
HStem: 0 20 466 73<273 308 575 611.5> 504 20<70 147 147 147>
VStem: 70 77<450 524 450 524 450 524> 70 84<0 329 0 524> 374 84<0 329 0 361 0 394.5> 678 84<0 361 361 393 0 394>
LayerCount: 2
Fore
SplineSet
70 524 m 1xae
 147 524 l 1
 147 450 l 1x30
 191 513 238 539 308 539 c 0
 376 539 418 515 449 459 c 1
 498 518 540 539 610 539 c 0
 708 539 762 487 762 393 c 2
 762 0 l 1
 678 0 l 1
 678 361 l 2
 678 427 642 466 581 466 c 0
 513 466 458 405 458 329 c 2
 458 0 l 1
 374 0 l 1
 374 361 l 2
 374 428 339 466 277 466 c 0xce
 209 466 154 405 154 329 c 2
 154 0 l 1
 70 0 l 1
 70 524 l 1xae
EndSplineSet
EndChar

StartChar: n
Encoding: 110 110 78
Width: 556
Flags: W
HStem: 0 20 466 73<282 329> 504 20<70 147 147 147>
VStem: 70 77<436 524 436 524 436 524> 70 84<0 289 0 524> 404 83<0 363 363 394.5>
LayerCount: 2
Fore
SplineSet
70 524 m 1xac
 147 524 l 1
 147 436 l 1x30
 193 509 243 539 321 539 c 0
 422 539 487 483 487 396 c 2
 487 0 l 1
 404 0 l 1
 404 363 l 2
 404 426 362 466 296 466 c 0xcc
 210 466 154 396 154 289 c 2
 154 0 l 1
 70 0 l 1
 70 524 l 1xac
EndSplineSet
EndChar

StartChar: o
Encoding: 111 111 79
Width: 556
Flags: MW
HStem: -23 77<226.5 319 226.5 347> 462 77<226.5 320>
VStem: 36 87<194.5 321.5 194.5 346> 423 87<193 320>
LayerCount: 2
Fore
SplineSet
272 539 m 0
 424 539 510 436 510 254 c 0
 510 82 421 -23 273 -23 c 0
 124 -23 36 81 36 258 c 0
 36 434 124 539 272 539 c 0
273 462 m 0
 180 462 123 385 123 258 c 0
 123 131 180 54 273 54 c 0
 365 54 423 131 423 255 c 0
 423 385 367 462 273 462 c 0
EndSplineSet
EndChar

StartChar: p
Encoding: 112 112 80
Width: 556
Flags: W
HStem: -23 78<265 329.5> 461 78<262.5 330> 504 20<54 131 131 131>
VStem: 54 77<445 524 445 524 445 524> 54 84<-218 55 196.5 319.5> 436 87<195.5 317.5>
LayerCount: 2
Fore
SplineSet
54 -218 m 1xcc
 54 524 l 1x2c
 131 524 l 1
 131 445 l 1x30
 170 507 227 539 298 539 c 0
 437 539 523 429 523 253 c 0
 523 86 435 -23 299 -23 c 0
 231 -23 182 1 138 55 c 1
 138 -218 l 1
 54 -218 l 1xcc
284 461 m 0xcc
 195 461 138 381 138 258 c 0
 138 135 195 55 284 55 c 0
 375 55 436 136 436 255 c 0
 436 380 376 461 284 461 c 0xcc
EndSplineSet
EndChar

StartChar: q
Encoding: 113 113 81
Width: 556
Flags: W
HStem: -23 78<220 286.5> 461 78<220 288.5 185 310.5> 504 20<421 495 495 495>
VStem: 26 87<197 319 197 339> 412 83<-218 60 60 60 195 318.5>
LayerCount: 2
Fore
SplineSet
495 -218 m 1x38
 412 -218 l 1
 412 60 l 1
 373 3 323 -23 250 -23 c 0
 111 -23 26 82 26 252 c 0
 26 426 116 539 254 539 c 0xd8
 323 539 382 509 421 454 c 1
 421 524 l 1
 495 524 l 1
 495 -218 l 1x38
266 461 m 0
 174 461 113 380 113 258 c 0
 113 136 174 55 266 55 c 0
 354 55 412 135 412 255 c 0
 412 382 355 461 266 461 c 0
EndSplineSet
EndChar

StartChar: r
Encoding: 114 114 82
Width: 333
Flags: W
HStem: 0 20 504 20<69 146 146 146> 519 20<262 294>
VStem: 69 77<429 524 429 524 429 524> 69 84<0 272 0 524>
LayerCount: 2
Fore
SplineSet
69 524 m 1xc8
 146 524 l 1x50
 146 429 l 1
 194 507 235 539 289 539 c 0x30
 299 539 307 538 321 536 c 1
 321 451 l 1
 206 454 154 398 153 272 c 1
 153 0 l 1
 69 0 l 1
 69 524 l 1xc8
EndSplineSet
EndChar

StartChar: s
Encoding: 115 115 83
Width: 500
Flags: MW
HStem: -23 77<227.5 286.5 227.5 309> 462 77<211 278.5>
VStem: 47 87<364.5 407.5 364.5 427.5> 372 87<112 155.5>
LayerCount: 2
Fore
SplineSet
438 378 m 1
 350 378 l 1
 348 433 312 462 245 462 c 0
 177 462 134 432 134 383 c 0
 134 346 163 324 231 308 c 2
 311 289 l 2
 415 264 459 221 459 143 c 0
 459 42 375 -23 243 -23 c 0
 106 -23 38 35 34 156 c 1
 122 156 l 1
 127 119 133 104 146 89 c 0
 167 67 205 54 250 54 c 0
 323 54 372 87 372 137 c 0
 372 174 349 195 291 209 c 2
 213 228 l 2
 89 258 47 297 47 379 c 0
 47 476 126 539 248 539 c 0
 369 539 437 481 438 378 c 1
EndSplineSet
EndChar

StartChar: t
Encoding: 116 116 84
Width: 278
Flags: MW
HStem: -23 73<196 197> 456 68<14 85 14 85 168 254>
VStem: 85 83<78.5 97 97 456 524 668>
LayerCount: 2
Fore
SplineSet
254 524 m 1
 254 456 l 1
 168 456 l 1
 168 97 l 2
 168 60 178 50 214 50 c 0
 231 50 242 51 254 54 c 1
 254 -16 l 1
 226 -21 208 -23 186 -23 c 0
 121 -23 85 6 85 60 c 2
 85 456 l 1
 14 456 l 1
 14 524 l 1
 85 524 l 1
 85 668 l 1
 168 668 l 1
 168 524 l 1
 254 524 l 1
EndSplineSet
EndChar

StartChar: u
Encoding: 117 117 85
Width: 556
Flags: W
HStem: -23 73<223 270.5> 0 20 504 20<65 148 148 148 399 482 482 482>
VStem: 65 83<121.5 153 153 524> 399 83<227 524> 407 75<0 73 73 73>
LayerCount: 2
Fore
SplineSet
482 0 m 1x78
 407 0 l 1
 407 73 l 1x44
 358 4 309 -23 232 -23 c 0
 130 -23 65 33 65 120 c 2
 65 524 l 1
 148 524 l 1
 148 153 l 2
 148 90 190 50 256 50 c 0xb8
 343 50 399 120 399 227 c 2
 399 524 l 1
 482 524 l 1
 482 0 l 1x78
EndSplineSet
EndChar

StartChar: v
Encoding: 118 118 86
Width: 500
Flags: MW
HStem: 0 20 504 20<10 104 104 104 392 486 486 486>
LayerCount: 2
Fore
SplineSet
285 0 m 1
 194 0 l 1
 10 524 l 1
 104 524 l 1
 244 99 l 1
 392 524 l 1
 486 524 l 1
 285 0 l 1
EndSplineSet
EndChar

StartChar: w
Encoding: 119 119 87
Width: 722
Flags: MW
HStem: 0 20 504 20<6 98 98 98 305 407 407 407 614 708 708 708>
LayerCount: 2
Fore
SplineSet
554 0 m 1
 459 0 l 1
 353 411 l 1
 252 0 l 1
 158 0 l 1
 6 524 l 1
 98 524 l 1
 205 116 l 1
 305 524 l 1
 407 524 l 1
 510 116 l 1
 614 524 l 1
 708 524 l 1
 554 0 l 1
EndSplineSet
EndChar

StartChar: x
Encoding: 120 120 88
Width: 500
Flags: MW
HStem: 0 20 504 20<27 122 122 122 374 468 468 468>
LayerCount: 2
Fore
SplineSet
292 271 m 1
 473 0 l 1
 376 0 l 1
 245 201 l 1
 112 0 l 1
 17 0 l 1
 202 267 l 1
 27 524 l 1
 122 524 l 1
 248 334 l 1
 374 524 l 1
 468 524 l 1
 292 271 l 1
EndSplineSet
EndChar

StartChar: y
Encoding: 121 121 89
Width: 500
Flags: MW
HStem: -218 82<99 115.5 91 123.5> 504 20<20 109 109 109 388 478 478 478>
LayerCount: 2
Fore
SplineSet
388 524 m 1
 478 524 l 1
 245 -110 l 2
 229 -152 214 -174 188 -193 c 0
 166 -209 137 -218 110 -218 c 0
 88 -218 71 -214 54 -205 c 1
 54 -130 l 1
 72 -134 84 -136 98 -136 c 0
 133 -136 151 -122 165 -85 c 2
 197 -2 l 1
 20 524 l 1
 109 524 l 1
 243 116 l 1
 388 524 l 1
EndSplineSet
EndChar

StartChar: z
Encoding: 122 122 90
Width: 500
Flags: MW
HStem: 0 73<132 457 132 457> 451 73<52 344 52 443>
LayerCount: 2
Fore
SplineSet
443 524 m 1
 443 450 l 1
 132 73 l 1
 457 73 l 1
 457 0 l 1
 31 0 l 1
 31 75 l 1
 344 451 l 1
 52 451 l 1
 52 524 l 1
 443 524 l 1
EndSplineSet
EndChar

StartChar: braceleft
Encoding: 123 123 91
Width: 334
Flags: MW
HStem: 709 20<230 276 276 276>
VStem: 121 77<-80 86 86 86 431 597>
LayerCount: 2
Fore
SplineSet
276 729 m 1
 276 664 l 1
 261 664 l 1
 211 663 198 649 198 597 c 2
 198 416 l 2
 198 326 174 280 116 259 c 1
 169 238 197 184 198 101 c 1
 198 -80 l 2
 198 -132 211 -146 261 -147 c 1
 276 -147 l 1
 276 -212 l 1
 230 -212 l 1
 161 -211 119 -161 121 -80 c 1
 121 86 l 1
 122 175 101 213 43 224 c 1
 43 293 l 1
 101 304 122 342 121 431 c 1
 121 597 l 1
 119 678 161 728 230 729 c 1
 276 729 l 1
EndSplineSet
EndChar

StartChar: bar
Encoding: 124 124 92
Width: 260
Flags: MW
HStem: 709 20<100 160 160 160>
VStem: 100 60<-212 729 -212 729>
LayerCount: 2
Fore
SplineSet
100 729 m 1
 160 729 l 1
 160 -212 l 1
 100 -212 l 1
 100 729 l 1
EndSplineSet
EndChar

StartChar: braceright
Encoding: 125 125 93
Width: 334
Flags: MW
HStem: 709 20<29 76 76 76>
VStem: 109 77<-80 86 -80 101 -80 101 431 597>
LayerCount: 2
Fore
SplineSet
29 -212 m 1
 29 -147 l 1
 45 -147 l 1
 96 -146 109 -132 109 -80 c 2
 109 101 l 1
 110 184 138 238 191 258 c 1
 138 279 110 333 109 416 c 1
 109 597 l 2
 109 649 95 663 45 664 c 1
 29 664 l 1
 29 729 l 1
 76 729 l 1
 146 728 188 678 186 597 c 1
 186 431 l 1
 185 342 206 304 262 293 c 1
 262 224 l 1
 206 213 185 175 186 86 c 1
 186 -80 l 1
 188 -161 146 -211 76 -212 c 1
 29 -212 l 1
EndSplineSet
EndChar

StartChar: asciitilde
Encoding: 126 126 94
Width: 584
Flags: MW
HStem: 268 68<396.5 422.5 396.5 435.5> 371 67<171.5 186>
LayerCount: 2
Fore
SplineSet
455 411 m 1
 508 411 l 1
 508 395 l 2
 508 317 468 268 403 268 c 0
 378 268 348 278 322 294 c 2
 224 357 l 2
 214 363 191 371 181 371 c 0
 162 371 146 358 136 336 c 0
 132 326 130 316 128 293 c 1
 75 293 l 1
 80 388 118 438 183 438 c 0
 201 438 220 433 237 422 c 2
 354 353 l 2
 374 341 389 336 404 336 c 0
 441 336 456 358 455 411 c 1
EndSplineSet
EndChar

StartChar: exclamdown
Encoding: 161 161 95
Width: 333
Flags: W
HStem: 420 104<121 205 121 205>
VStem: 121 84<420 524> 122 83<-205 133 -205 133>
LayerCount: 2
Fore
SplineSet
122 -205 m 1xa0
 122 133 l 1
 144 356 l 1
 183 356 l 1
 205 133 l 1
 205 -205 l 1
 122 -205 l 1xa0
121 420 m 1xc0
 121 524 l 1
 205 524 l 1
 205 420 l 1
 121 420 l 1xc0
EndSplineSet
EndChar

StartChar: cent
Encoding: 162 162 96
Width: 556
Flags: MW
VStem: 52 87<196.5 313.5 196.5 334.5> 270 42<-120 -23 -120 -22 -120 -22 55 461 461 461 539 628>
LayerCount: 2
Fore
SplineSet
312 462 m 1
 312 53 l 1
 376 60 414 101 426 180 c 1
 510 180 l 1
 503 60 428 -17 312 -23 c 1
 312 -120 l 1
 270 -120 l 1
 270 -22 l 1
 135 -10 52 94 52 253 c 0
 52 416 135 524 270 538 c 1
 270 628 l 1
 312 628 l 1
 312 539 l 1
 429 531 498 462 504 348 c 1
 420 348 l 1
 413 415 373 457 312 462 c 1
270 55 m 1
 270 461 l 1
 184 445 139 374 139 253 c 0
 139 140 187 68 270 55 c 1
EndSplineSet
EndChar

StartChar: sterling
Encoding: 163 163 97
Width: 556
Flags: W
HStem: -23 92<401 423 401 430> 23 77<174.5 262.5> 321 55<26 107 26 136 26 107 230 366 230 230> 651 78<245.5 331.5>
VStem: 54 93<510 562 510 575.5> 160 85<224 255.5>
LayerCount: 2
Fore
SplineSet
366 376 m 1x7c
 366 321 l 1
 230 321 l 1
 240 292 245 269 245 250 c 0
 245 198 217 152 127 61 c 1
 166 87 206 100 249 100 c 0x6c
 276 100 292 97 331 85 c 0
 373 73 392 69 410 69 c 0
 436 69 464 79 493 99 c 1
 535 33 l 1
 495 -6 456 -23 404 -23 c 0x8c
 367 -23 341 -17 258 12 c 0
 237 19 213 23 192 23 c 0
 157 23 122 11 83 -14 c 1
 35 52 l 1
 127 131 160 181 160 243 c 0
 160 268 152 295 136 321 c 1
 26 321 l 1
 26 376 l 1
 107 376 l 1
 61 452 54 471 54 515 c 0
 54 636 158 729 292 729 c 0
 377 729 448 692 484 630 c 0
 503 597 511 558 512 497 c 1
 424 497 l 1
 421 600 375 651 288 651 c 0
 203 651 147 600 147 524 c 0
 147 496 154 470 169 443 c 2
 190 404 l 2
 194 398 199 389 206 376 c 1
 366 376 l 1x7c
EndSplineSet
EndChar

StartChar: fraction
Encoding: 8260 8260 98
Width: 278
Flags: MW
HStem: -20 20
LayerCount: 2
Fore
SplineSet
333 709 m 1
 391 709 l 1
 -61 -20 l 1
 -119 -20 l 1
 333 709 l 1
EndSplineSet
EndChar

StartChar: yen
Encoding: 165 165 99
Width: 556
Flags: MW
HStem: 0 20 175 51<65 237 65 237 325 495> 303 51<65 216 65 237 65 216 344 495>
VStem: 237 88<0 175 0 175 226 303>
LayerCount: 2
Fore
SplineSet
495 354 m 1
 495 303 l 1
 325 303 l 1
 325 226 l 1
 495 226 l 1
 495 175 l 1
 325 175 l 1
 325 0 l 1
 237 0 l 1
 237 175 l 1
 65 175 l 1
 65 226 l 1
 237 226 l 1
 237 303 l 1
 65 303 l 1
 65 354 l 1
 216 354 l 1
 11 709 l 1
 96 709 l 1
 281 387 l 1
 460 709 l 1
 545 709 l 1
 344 354 l 1
 495 354 l 1
EndSplineSet
EndChar

StartChar: florin
Encoding: 402 402 100
Width: 556
Flags: MW
HStem: -212 78<68.5 91> 392 70<140 253 140 265 354 467> 658 80<443 468>
LayerCount: 2
Fore
SplineSet
467 462 m 1
 467 392 l 1
 341 392 l 1
 266 -5 l 2
 253 -75 233 -122 201 -155 c 0
 167 -190 116 -212 66 -212 c 0
 42 -212 24 -209 11 -202 c 1
 28 -118 l 1
 45 -129 59 -134 78 -134 c 0
 130 -134 160 -98 175 -21 c 2
 253 392 l 1
 140 392 l 1
 140 462 l 1
 265 462 l 1
 287 566 l 2
 298 622 318 661 348 690 c 0
 380 720 423 738 463 738 c 0
 489 738 512 732 542 719 c 1
 512 640 l 1
 487 654 476 658 460 658 c 0
 413 658 381 614 366 532 c 2
 354 462 l 1
 467 462 l 1
EndSplineSet
EndChar

StartChar: section
Encoding: 167 167 101
Width: 556
Flags: W
HStem: -213 77<246.5 293 246.5 317.5> 504 20<381 464 381 381> 652 77<258.5 313.5>
VStem: 44 79<308 345.5> 105 90<552.5 591.5 552.5 610> 360 90<-75.5 -32.5> 427 79<190.5 229.5>
LayerCount: 2
Fore
SplineSet
464 524 m 1xe8
 381 524 l 1
 381 533 l 1
 381 550 l 2
 381 612 343 652 284 652 c 0
 233 652 195 616 195 567 c 0
 195 538 210 518 252 490 c 2
 398 396 l 2
 477 345 506 301 506 229 c 0xea
 506 152 470 100 398 73 c 1
 437 28 450 -2 450 -45 c 0
 450 -142 371 -213 264 -213 c 0
 180 -213 115 -171 89 -100 c 0
 81 -78 78 -58 78 -29 c 2
 78 -14 l 1
 163 -14 l 1
 163 -53 167 -73 180 -92 c 0
 200 -121 228 -136 265 -136 c 0
 321 -136 360 -101 360 -50 c 0
 360 -15 343 12 306 38 c 2
 136 155 l 2
 71 200 44 246 44 312 c 0xf4
 44 379 75 423 149 462 c 1
 118 497 105 526 105 564 c 0
 105 656 186 729 289 729 c 0
 394 729 464 658 464 552 c 2
 464 532 l 1
 464 524 l 1xe8
189 229 m 2xf2
 355 106 l 1
 401 131 427 168 427 209 c 0
 427 250 403 287 354 320 c 2
 194 429 l 1
 142 395 123 368 123 328 c 0
 123 288 136 268 189 229 c 2xf2
EndSplineSet
EndChar

StartChar: currency
Encoding: 164 164 102
Width: 556
Flags: MW
HStem: 159 77<257.5 294> 445 77<257 293.5 257 304>
VStem: 89 79<322.5 359> 381 79<324 357.5 324 368.5>
LayerCount: 2
Fore
SplineSet
485 190 m 1
 427 136 l 1
 374 189 l 1
 347 169 314 159 274 159 c 0
 241 159 206 168 180 184 c 1
 129 133 l 1
 73 190 l 1
 121 239 l 1
 101 266 89 304 89 341 c 0
 89 377 101 414 121 443 c 1
 67 498 l 1
 123 551 l 1
 178 496 l 1
 207 513 239 522 275 522 c 0
 312 522 347 512 373 494 c 1
 432 547 l 1
 489 489 l 1
 434 434 l 1
 450 408 460 374 460 341 c 0
 460 307 451 275 431 244 c 1
 485 190 l 1
274 445 m 0
 216 445 168 398 168 340 c 0
 168 283 216 236 275 236 c 0
 333 236 381 283 381 339 c 0
 381 398 334 445 274 445 c 0
EndSplineSet
EndChar

StartChar: quotesingle
Encoding: 39 39 103
Width: 191
Flags: MW
VStem: 48 94<598 709 598 709>
LayerCount: 2
Fore
SplineSet
48 709 m 1
 142 709 l 1
 142 598 l 1
 115 464 l 1
 75 464 l 1
 48 598 l 1
 48 709 l 1
EndSplineSet
EndChar

StartChar: quotedblleft
Encoding: 8220 8220 104
Width: 333
Flags: MW
HStem: 477 104<93 141 93 141 48 141 93 206 251 299>
VStem: 48 93<477 578 578 581> 206 93<477 578 578 581>
LayerCount: 2
Fore
SplineSet
141 477 m 1
 48 477 l 1
 48 578 l 2
 48 657 82 704 141 709 c 1
 141 671 l 1
 107 666 92 638 93 581 c 1
 141 581 l 1
 141 477 l 1
299 477 m 1
 206 477 l 1
 206 578 l 2
 206 657 240 704 299 709 c 1
 299 671 l 1
 265 666 250 638 251 581 c 1
 299 581 l 1
 299 477 l 1
EndSplineSet
EndChar

StartChar: guillemotleft
Encoding: 171 171 105
Width: 556
Flags: W
LayerCount: 2
Fore
SplineSet
98 227 m 1
 98 316 l 1
 250 438 l 1
 250 355 l 1
 144 272 l 1
 250 189 l 1
 250 106 l 1
 98 227 l 1
303 227 m 1
 303 316 l 1
 455 438 l 1
 455 355 l 1
 349 272 l 1
 455 189 l 1
 455 106 l 1
 303 227 l 1
EndSplineSet
EndChar

StartChar: guilsinglleft
Encoding: 8249 8249 106
Width: 333
Flags: W
LayerCount: 2
Fore
SplineSet
91 227 m 1
 91 316 l 1
 243 438 l 1
 243 355 l 1
 137 272 l 1
 243 189 l 1
 243 106 l 1
 91 227 l 1
EndSplineSet
EndChar

StartChar: guilsinglright
Encoding: 8250 8250 107
Width: 333
Flags: W
LayerCount: 2
Fore
SplineSet
239 317 m 1
 239 228 l 1
 85 106 l 1
 85 189 l 1
 193 272 l 1
 85 355 l 1
 85 438 l 1
 239 317 l 1
EndSplineSet
EndChar

StartChar: fi
Encoding: 64257 64257 108
Width: 500
Flags: W
HStem: 0 20 456 68<12 82 12 82 165 252> 624 105<353 436 353 436> 659 73<203.5 213.5 166.5 226.5>
VStem: 82 83<0 456 0 456 524 606> 353 83<0 524 0 524 624 729>
LayerCount: 2
Fore
SplineSet
252 524 m 1xdc
 252 456 l 1
 165 456 l 1
 165 0 l 1
 82 0 l 1
 82 456 l 1
 12 456 l 1
 12 524 l 1
 82 524 l 1
 82 613 l 2
 82 688 128 732 205 732 c 0
 222 732 233 731 252 727 c 1
 252 658 l 1
 233 659 230 659 223 659 c 0
 184 659 165 641 165 606 c 2
 165 524 l 1
 252 524 l 1xdc
436 524 m 1
 436 0 l 1
 353 0 l 1
 353 524 l 1
 436 524 l 1
436 729 m 1x2c
 436 624 l 1
 353 624 l 1
 353 729 l 1
 436 729 l 1x2c
EndSplineSet
EndChar

StartChar: fl
Encoding: 64258 64258 109
Width: 500
Flags: W
HStem: 0 20 456 68<17 87 17 87 170 257> 659 73<208.5 218.5 171.5 231.5> 709 20<347 430 430 430>
VStem: 87 83<0 456 0 456 524 606> 347 83<0 729 0 729>
LayerCount: 2
Fore
SplineSet
257 524 m 1xec
 257 456 l 1
 170 456 l 1
 170 0 l 1
 87 0 l 1
 87 456 l 1
 17 456 l 1
 17 524 l 1
 87 524 l 1
 87 613 l 2
 87 688 133 732 210 732 c 0
 227 732 238 731 257 727 c 1
 257 658 l 1
 238 659 235 659 228 659 c 0
 189 659 170 641 170 606 c 2
 170 524 l 1
 257 524 l 1xec
430 729 m 1x9c
 430 0 l 1
 347 0 l 1
 347 729 l 1
 430 729 l 1x9c
EndSplineSet
EndChar

StartChar: endash
Encoding: 8211 8211 110
Width: 556
Flags: MW
HStem: 240 72<-5 561 -5 561>
LayerCount: 2
Fore
SplineSet
561 312 m 1
 561 240 l 1
 -5 240 l 1
 -5 312 l 1
 561 312 l 1
EndSplineSet
EndChar

StartChar: dagger
Encoding: 8224 8224 111
Width: 556
Flags: MW
HStem: 420 82<38 231 38 231 319 513>
VStem: 231 88<-177 420 -177 420 502 709>
LayerCount: 2
Fore
SplineSet
513 502 m 1
 513 420 l 1
 319 420 l 1
 319 -177 l 1
 231 -177 l 1
 231 420 l 1
 38 420 l 1
 38 502 l 1
 231 502 l 1
 231 709 l 1
 319 709 l 1
 319 502 l 1
 513 502 l 1
EndSplineSet
EndChar

StartChar: daggerdbl
Encoding: 8225 8225 112
Width: 556
Flags: MW
HStem: 31 82<38 231 38 231 319 513> 420 82<38 231 38 231 319 513>
VStem: 231 88<-177 31 -177 31 113 420 502 709>
LayerCount: 2
Fore
SplineSet
513 502 m 1
 513 420 l 1
 319 420 l 1
 319 113 l 1
 513 113 l 1
 513 31 l 1
 319 31 l 1
 319 -177 l 1
 231 -177 l 1
 231 31 l 1
 38 31 l 1
 38 113 l 1
 231 113 l 1
 231 420 l 1
 38 420 l 1
 38 502 l 1
 231 502 l 1
 231 709 l 1
 319 709 l 1
 319 502 l 1
 513 502 l 1
EndSplineSet
EndChar

StartChar: periodcentered
Encoding: 183 183 113
Width: 278
Flags: MW
HStem: 302 125<87 211 87 211>
VStem: 87 124<302 427 302 427>
LayerCount: 2
Fore
SplineSet
211 427 m 1
 211 302 l 1
 87 302 l 1
 87 427 l 1
 211 427 l 1
EndSplineSet
EndChar

StartChar: paragraph
Encoding: 182 182 114
Width: 537
Flags: MW
HStem: 665 64<319 401 319 319 465 522 465 465>
VStem: 255 64<-177 259 259 259> 401 64<-177 665 -177 665>
LayerCount: 2
Fore
SplineSet
522 729 m 1
 522 665 l 1
 465 665 l 1
 465 -177 l 1
 401 -177 l 1
 401 665 l 1
 319 665 l 1
 319 -177 l 1
 255 -177 l 1
 255 259 l 1
 200 262 165 274 130 303 c 0
 78 346 48 415 48 489 c 0
 48 624 146 729 272 729 c 2
 522 729 l 1
EndSplineSet
EndChar

StartChar: bullet
Encoding: 8226 8226 115
Width: 350
Flags: MW
HStem: 220 250<140.5 209>
VStem: 50 250<310.5 378.5 309.5 379.5>
LayerCount: 2
Fore
SplineSet
175 470 m 0
 245 470 300 414 300 343 c 0
 300 276 243 220 175 220 c 0
 106 220 50 276 50 345 c 0
 50 414 106 470 175 470 c 0
EndSplineSet
EndChar

StartChar: quotesinglbase
Encoding: 8218 8218 116
Width: 222
Flags: MW
HStem: 0 104<65 113 65 158>
VStem: 65 93<0 3 3 104>
LayerCount: 2
Fore
SplineSet
65 104 m 1
 158 104 l 1
 158 3 l 2
 158 -77 124 -124 64 -128 c 1
 64 -90 l 1
 100 -85 115 -58 113 0 c 1
 65 0 l 1
 65 104 l 1
EndSplineSet
EndChar

StartChar: quotedblbase
Encoding: 8222 8222 117
Width: 333
Flags: MW
HStem: 0 104<47 95 47 140 47 207 207 255>
VStem: 47 93<-128 3 -90 3 0 3 3 104> 207 93<-128 3 -90 3 0 3 3 104>
LayerCount: 2
Fore
SplineSet
47 104 m 1
 140 104 l 1
 140 3 l 2
 140 -77 107 -124 47 -128 c 1
 47 -90 l 1
 82 -85 96 -58 95 0 c 1
 47 0 l 1
 47 104 l 1
207 104 m 1
 300 104 l 1
 300 3 l 2
 300 -77 267 -124 207 -128 c 1
 207 -90 l 1
 242 -85 256 -58 255 0 c 1
 207 0 l 1
 207 104 l 1
EndSplineSet
EndChar

StartChar: quotedblright
Encoding: 8221 8221 118
Width: 333
Flags: MW
HStem: 605 104<49 97 49 142 49 209 209 257>
VStem: 49 93<477 608 515 608 605 608 608 709> 209 93<477 608 515 608 605 608 608 709>
LayerCount: 2
Fore
SplineSet
49 709 m 1
 142 709 l 1
 142 608 l 2
 142 528 109 481 49 477 c 1
 49 515 l 1
 84 520 98 547 97 605 c 1
 49 605 l 1
 49 709 l 1
209 709 m 1
 302 709 l 1
 302 608 l 2
 302 528 269 481 209 477 c 1
 209 515 l 1
 244 520 258 547 257 605 c 1
 209 605 l 1
 209 709 l 1
EndSplineSet
EndChar

StartChar: guillemotright
Encoding: 187 187 119
Width: 556
Flags: W
LayerCount: 2
Fore
SplineSet
252 317 m 1
 252 228 l 1
 98 106 l 1
 98 189 l 1
 206 272 l 1
 98 355 l 1
 98 438 l 1
 252 317 l 1
451 317 m 1
 451 228 l 1
 297 106 l 1
 297 189 l 1
 405 272 l 1
 297 355 l 1
 297 438 l 1
 451 317 l 1
EndSplineSet
EndChar

StartChar: ellipsis
Encoding: 8230 8230 120
Width: 1000
Flags: MW
HStem: 0 104<115 219 115 219 448 552 781 885>
VStem: 115 104<0 104 0 104> 448 104<0 104 0 104> 781 104<0 104 0 104>
LayerCount: 2
Fore
SplineSet
219 104 m 1
 219 0 l 1
 115 0 l 1
 115 104 l 1
 219 104 l 1
552 104 m 1
 552 0 l 1
 448 0 l 1
 448 104 l 1
 552 104 l 1
885 104 m 1
 885 0 l 1
 781 0 l 1
 781 104 l 1
 885 104 l 1
EndSplineSet
EndChar

StartChar: perthousand
Encoding: 8240 8240 121
Width: 1000
Flags: W
HStem: -22 60<458.5 508 458.5 524.5 819 868.5> 219 60<458 508.5 818 868.5> 427 60<133.5 183.5 133.5 199.5> 668 60<133 183.5> 718 20<492 558 558 558>
VStem: 9 59<553 603 553 619.5> 249 59<552 602.5> 334 59<104 154 104 170.5> 574 59<103.5 153.5> 694 59<104 154 104 170> 934 59<103.5 153.5>
LayerCount: 2
Fore
SplineSet
158 728 m 0x37e0
 242 728 308 661 308 576 c 0
 308 494 240 427 159 427 c 0
 76 427 9 494 9 578 c 0
 9 661 76 728 158 728 c 0x37e0
158 668 m 0
 108 668 68 628 68 578 c 0
 68 528 108 487 159 487 c 0
 208 487 249 527 249 577 c 0
 249 628 209 668 158 668 c 0
492 738 m 1xcfe0
 558 738 l 1
 163 -20 l 1
 97 -20 l 1
 492 738 l 1xcfe0
483 279 m 0
 567 279 633 212 633 127 c 0
 633 46 565 -22 484 -22 c 0
 401 -22 334 45 334 129 c 0
 334 212 401 279 483 279 c 0
483 219 m 0
 433 219 393 179 393 129 c 0
 393 79 434 38 483 38 c 0
 533 38 574 79 574 128 c 0
 574 179 534 219 483 219 c 0
843 279 m 0
 927 279 993 212 993 127 c 0
 993 45 925 -22 844 -22 c 0
 761 -22 694 46 694 129 c 0
 694 211 761 279 843 279 c 0
843 219 m 0
 793 219 753 179 753 129 c 0
 753 79 794 38 844 38 c 0
 893 38 934 79 934 128 c 0
 934 179 894 219 843 219 c 0
EndSplineSet
EndChar

StartChar: questiondown
Encoding: 191 191 122
Width: 611
Flags: MW
HStem: -217 78<275 359 275 381.5> 420 104<275 365 275 365>
VStem: 95 90<-59 -2 -59 8.5> 275 90<278 325 240.5 325 420 524>
LayerCount: 2
Fore
SplineSet
275 325 m 1
 365 325 l 1
 365 270 l 2
 365 211 346 182 260 107 c 0
 207 60 185 21 185 -25 c 0
 185 -93 236 -139 314 -139 c 0
 404 -139 443 -91 443 17 c 1
 528 17 l 1
 528 -138 454 -217 309 -217 c 0
 178 -217 95 -142 95 -25 c 0
 95 42 120 86 195 154 c 1
 260 211 274 233 275 278 c 1
 275 325 l 1
275 420 m 1
 275 524 l 1
 365 524 l 1
 365 420 l 1
 275 420 l 1
EndSplineSet
EndChar

StartChar: grave
Encoding: 96 96 123
Width: 333
Flags: MW
HStem: 720 20<22 135 135 135>
LayerCount: 2
Fore
SplineSet
135 740 m 1
 231 592 l 1
 171 592 l 1
 22 740 l 1
 135 740 l 1
EndSplineSet
EndChar

StartChar: acute
Encoding: 180 180 124
Width: 333
Flags: MW
HStem: 720 20<188 301 301 301>
LayerCount: 2
Fore
SplineSet
188 740 m 1
 301 740 l 1
 152 592 l 1
 92 592 l 1
 188 740 l 1
EndSplineSet
EndChar

StartChar: circumflex
Encoding: 710 710 125
Width: 333
Flags: MW
HStem: 721 20<116 211 211 211>
LayerCount: 2
Fore
SplineSet
116 741 m 1
 211 741 l 1
 307 591 l 1
 244 591 l 1
 163 687 l 1
 84 591 l 1
 20 591 l 1
 116 741 l 1
EndSplineSet
EndChar

StartChar: tilde
Encoding: 732 732 126
Width: 333
Flags: W
HStem: 613 68<220.5 233 218 254.5> 650 67<88.5 101.5>
LayerCount: 2
Fore
SplineSet
261 717 m 1x40
 319 717 l 1x40
 309 648 279 613 230 613 c 0x80
 211 613 203 615 145 637 c 0
 120 647 107 650 96 650 c 0
 81 650 69 637 63 614 c 1
 5 614 l 1
 16 680 47 717 91 717 c 0x40
 112 717 119 715 161 698 c 0
 186 688 212 681 224 681 c 0x80
 242 681 253 692 261 717 c 1x40
EndSplineSet
EndChar

StartChar: macron
Encoding: 175 175 127
Width: 333
Flags: MW
HStem: 631 70<28 302 28 302>
LayerCount: 2
Fore
SplineSet
302 701 m 1
 302 631 l 1
 28 631 l 1
 28 701 l 1
 302 701 l 1
EndSplineSet
EndChar

StartChar: breve
Encoding: 728 728 128
Width: 333
Flags: MW
HStem: 597 69<137.5 193 137.5 210.5> 712 20<15 74 74 74 257 316 316 316>
LayerCount: 2
Fore
SplineSet
15 732 m 1
 74 732 l 1
 79 688 109 666 166 666 c 0
 220 666 253 690 257 732 c 1
 316 732 l 1
 309 643 257 597 164 597 c 0
 107 597 63 617 36 654 c 0
 22 674 16 693 15 732 c 1
EndSplineSet
EndChar

StartChar: dotaccent
Encoding: 729 729 129
Width: 333
Flags: MW
HStem: 612 104<115 219 115 219>
VStem: 115 104<612 716 612 716>
LayerCount: 2
Fore
SplineSet
219 716 m 1
 219 612 l 1
 115 612 l 1
 115 716 l 1
 219 716 l 1
EndSplineSet
EndChar

StartChar: dieresis
Encoding: 168 168 130
Width: 333
Flags: MW
HStem: 612 103<30 134 30 134 30 192 192 296>
VStem: 30 104<612 715 612 715> 192 104<612 715 612 715>
LayerCount: 2
Fore
SplineSet
134 715 m 1
 134 612 l 1
 30 612 l 1
 30 715 l 1
 134 715 l 1
296 715 m 1
 296 612 l 1
 192 612 l 1
 192 715 l 1
 296 715 l 1
EndSplineSet
EndChar

StartChar: ring
Encoding: 730 730 131
Width: 333
Flags: MW
HStem: 579 44<155 179 155 191> 710 44<155 179.5>
VStem: 79 44<654.5 678 654.5 691> 211 44<654.5 678.5>
LayerCount: 2
Fore
SplineSet
167 754 m 0
 216 754 255 715 255 666 c 0
 255 618 215 579 167 579 c 0
 118 579 79 618 79 667 c 0
 79 715 119 754 167 754 c 0
167 710 m 0
 143 710 123 690 123 666 c 0
 123 643 143 623 167 623 c 0
 191 623 211 643 211 666 c 0
 211 691 192 710 167 710 c 0
EndSplineSet
EndChar

StartChar: cedilla
Encoding: 184 184 132
Width: 333
Flags: MW
HStem: -214 41<145 173.5 145 202> -91 91<165 180.5>
VStem: 212 75<-141 -116.5>
LayerCount: 2
Fore
SplineSet
165 0 m 1
 203 0 l 1
 180 -56 l 1
 193 -54 198 -54 207 -54 c 0
 258 -54 287 -78 287 -121 c 0
 287 -179 240 -214 164 -214 c 0
 125 -214 101 -208 39 -180 c 1
 60 -140 l 1
 69 -144 l 1
 114 -167 132 -173 158 -173 c 0
 189 -173 212 -154 212 -128 c 0
 212 -105 195 -91 166 -91 c 0
 154 -91 147 -93 135 -99 c 1
 123 -92 l 1
 165 0 l 1
EndSplineSet
EndChar

StartChar: hungarumlaut
Encoding: 733 733 133
Width: 333
Flags: MW
HStem: 720 20<61 174 174 174 235 348 348 348>
LayerCount: 2
Fore
SplineSet
61 740 m 1
 174 740 l 1
 25 590 l 1
 -35 590 l 1
 61 740 l 1
235 740 m 1
 348 740 l 1
 199 590 l 1
 139 590 l 1
 235 740 l 1
EndSplineSet
EndChar

StartChar: ogonek
Encoding: 731 731 134
Width: 333
Flags: MW
HStem: -205 45<178.5 198.5> 0 20
VStem: 57 73<-123.5 -87>
LayerCount: 2
Fore
SplineSet
154 0 m 1
 224 0 l 1
 151 -41 130 -64 130 -106 c 0
 130 -141 155 -160 202 -160 c 0
 226 -160 246 -157 265 -150 c 1
 265 -195 l 1
 241 -200 208 -205 189 -205 c 0
 167 -205 142 -200 120 -192 c 0
 78 -176 57 -150 57 -111 c 0
 57 -63 93 -22 154 0 c 1
EndSplineSet
EndChar

StartChar: caron
Encoding: 711 711 135
Width: 333
Flags: MW
HStem: 721 20<19 82 82 82 242 306 306 306>
LayerCount: 2
Fore
SplineSet
210 591 m 1
 115 591 l 1
 19 741 l 1
 82 741 l 1
 163 645 l 1
 242 741 l 1
 306 741 l 1
 210 591 l 1
EndSplineSet
EndChar

StartChar: emdash
Encoding: 8212 8212 136
Width: 1000
Flags: MW
HStem: 240 72<-9 1001 -9 1001>
LayerCount: 2
Fore
SplineSet
1001 312 m 1
 1001 240 l 1
 -9 240 l 1
 -9 312 l 1
 1001 312 l 1
EndSplineSet
EndChar

StartChar: AE
Encoding: 198 198 137
Width: 1000
Flags: MW
HStem: 0 82<561 950 561 950> 214 82<230 468 230 468 199 468> 332 82<561 913 561 913> 647 82<368 468 368 368 561 932 561 561>
VStem: 468 93<82 214 214 214 296 332 414 647>
LayerCount: 2
Fore
SplineSet
468 214 m 1
 199 214 l 1
 114 0 l 1
 11 0 l 1
 310 729 l 1
 932 729 l 1
 932 647 l 1
 561 647 l 1
 561 414 l 1
 913 414 l 1
 913 332 l 1
 561 332 l 1
 561 82 l 1
 950 82 l 1
 950 0 l 1
 468 0 l 1
 468 214 l 1
468 296 m 1
 468 647 l 1
 368 647 l 1
 230 296 l 1
 468 296 l 1
EndSplineSet
EndChar

StartChar: ordfeminine
Encoding: 170 170 138
Width: 370
Flags: W
HStem: 303 51<43 320 43 320> 399 47<284.5 325> 399 52<134 160.5> 690 52<153.5 198>
VStem: 37 58<483 514 483 515.5> 243 57<517 568 568 568 633 646 646 648>
LayerCount: 2
Fore
SplineSet
320 354 m 1xdc
 320 303 l 1
 43 303 l 1
 43 354 l 1
 320 354 l 1xdc
333 449 m 1
 333 405 l 1
 320 400 313 399 301 399 c 0x4c
 268 399 252 411 246 442 c 1
 213 413 180 399 141 399 c 0x2c
 77 399 37 436 37 495 c 0
 37 536 57 566 94 582 c 0
 111 589 152 597 194 600 c 0
 232 603 241 609 243 633 c 1
 243 646 l 2
 243 675 220 690 176 690 c 0
 131 690 115 677 108 634 c 1
 49 634 l 1
 51 705 96 742 178 742 c 0
 260 742 300 711 300 648 c 2
 300 469 l 2
 300 454 308 446 323 446 c 0
 327 446 329 447 333 449 c 1
243 517 m 2x2c
 243 568 l 1
 229 562 217 560 167 552 c 1
 115 545 95 530 95 498 c 0
 95 468 116 451 152 451 c 0
 201 451 243 481 243 517 c 2x2c
EndSplineSet
EndChar

StartChar: Lslash
Encoding: 321 321 139
Width: 556
Flags: MW
HStem: 0 82<173 552 173 552> 709 20<80 173 173 173>
VStem: 80 93<82 280 280 280 406 729>
LayerCount: 2
Fore
SplineSet
173 406 m 1
 344 527 l 1
 344 451 l 1
 173 329 l 1
 173 82 l 1
 552 82 l 1
 552 0 l 1
 80 0 l 1
 80 280 l 1
 0 223 l 1
 0 300 l 1
 80 356 l 1
 80 729 l 1
 173 729 l 1
 173 406 l 1
EndSplineSet
EndChar

StartChar: Oslash
Encoding: 216 216 140
Width: 778
Flags: MW
HStem: -23 82<351.5 464.5 351.5 492> 659 82<309.5 419.5>
VStem: 35 93<325 449.5 325 474> 646 93<268.5 395.5>
LayerCount: 2
Fore
SplineSet
30 19 m 1
 111 108 l 1
 60 178 35 263 35 360 c 0
 35 588 177 741 387 741 c 0
 478 741 555 714 617 660 c 1
 704 755 l 1
 744 719 l 1
 655 622 l 1
 709 554 739 461 739 358 c 0
 739 130 597 -23 387 -23 c 0
 290 -23 212 6 146 67 c 1
 69 -17 l 1
 30 19 l 1
174 176 m 1
 558 595 l 1
 510 638 452 659 387 659 c 0
 232 659 128 539 128 360 c 0
 128 290 143 229 174 176 c 1
593 554 m 1
 206 133 l 1
 255 84 316 59 387 59 c 0
 542 59 646 179 646 358 c 0
 646 433 628 500 593 554 c 1
EndSplineSet
EndChar

StartChar: OE
Encoding: 338 338 141
Width: 1000
Flags: W
HStem: -20 82<308 381.5> 0 82<618 959 618 959> 327 82<618 946 618 946> 647 82<618 954 618 618> 659 82<308.5 383 305.5 384>
VStem: 43 93<309 411 309 424> 525 93<0 327 74 327 182 327 82 409 409 539 539 539>
LayerCount: 2
Fore
SplineSet
618 327 m 1x36
 618 82 l 1
 959 82 l 1
 959 0 l 1
 525 0 l 1x66
 525 74 l 1
 479 9 422 -20 341 -20 c 0
 256 -20 182 12 130 72 c 0
 71 140 43 232 43 356 c 0
 43 492 77 596 145 663 c 0
 195 712 269 741 342 741 c 0x8e
 424 741 482 713 525 653 c 1
 525 729 l 1
 954 729 l 1
 954 647 l 1
 618 647 l 1
 618 409 l 1
 946 409 l 1
 946 327 l 1
 618 327 l 1x36
525 182 m 1x8e
 525 539 l 1
 485 620 426 659 342 659 c 0
 275 659 222 632 187 581 c 0
 151 527 136 462 136 360 c 0
 136 258 151 194 187 140 c 0
 222 89 275 62 341 62 c 0
 425 62 485 101 525 182 c 1x8e
EndSplineSet
EndChar

StartChar: ordmasculine
Encoding: 186 186 142
Width: 365
Flags: W
HStem: 303 51<51 314 51 314> 399 52<156 208 156 227> 690 52<156 208.5>
VStem: 40 58<533.5 608 533.5 625> 51 263<303 354 303 354> 266 58<532.5 607>
LayerCount: 2
Fore
SplineSet
314 354 m 1xe8
 314 303 l 1
 51 303 l 1
 51 354 l 1
 314 354 l 1xe8
182 742 m 0xf4
 274 742 324 681 324 568 c 0
 324 461 272 399 182 399 c 0
 91 399 40 461 40 570 c 0
 40 680 91 742 182 742 c 0xf4
182 690 m 0
 130 690 98 645 98 571 c 0
 98 496 130 451 182 451 c 0
 234 451 266 496 266 569 c 0
 266 645 235 690 182 690 c 0
EndSplineSet
EndChar

StartChar: ae
Encoding: 230 230 143
Width: 889
Flags: W
HStem: -23 73<190 241> -23 77<586.5 646.5 586.5 671> 234 68<461 755 461 845 459 755> 462 77<227.5 301.5 577 653.5>
VStem: 34 87<108 161.5 108 166>
LayerCount: 2
Fore
SplineSet
751 159 m 1x78
 835 159 l 1
 813 45 730 -23 612 -23 c 0x48
 535 -23 469 8 434 60 c 0
 429 68 425 75 418 87 c 1
 343 9 280 -23 202 -23 c 0x88
 100 -23 34 38 34 132 c 0
 34 200 65 246 126 272 c 0
 159 286 210 296 294 303 c 1
 364 310 380 321 381 362 c 1
 381 384 l 2
 381 435 340 462 263 462 c 0
 186 462 148 433 141 369 c 1
 57 369 l 1
 59 421 69 451 93 478 c 0
 128 517 190 539 265 539 c 0
 350 539 409 512 440 457 c 1
 476 509 541 539 613 539 c 0
 710 539 790 486 824 401 c 0
 839 362 845 314 845 234 c 1
 459 234 l 1
 460 182 467 152 487 122 c 0
 515 78 560 54 613 54 c 0
 680 54 727 90 751 159 c 1x78
381 157 m 2xb8
 381 258 l 1
 353 246 336 242 247 229 c 0
 157 216 121 189 121 134 c 0
 121 82 159 50 221 50 c 0
 262 50 299 63 332 88 c 0
 362 111 381 138 381 157 c 2xb8
461 302 m 1
 755 302 l 1
 755 397 696 462 611 462 c 0
 527 462 468 399 461 302 c 1
EndSplineSet
EndChar

StartChar: dotlessi
Encoding: 305 305 144
Width: 278
Flags: MW
HStem: 0 20 504 20<94 178 178 178>
VStem: 94 84<0 524 0 524>
LayerCount: 2
Fore
SplineSet
178 524 m 1
 178 0 l 1
 94 0 l 1
 94 524 l 1
 178 524 l 1
EndSplineSet
EndChar

StartChar: lslash
Encoding: 322 322 145
Width: 222
Flags: MW
HStem: 0 20 709 20<63 146 146 146>
VStem: 63 83<0 313 313 313 421 729>
LayerCount: 2
Fore
SplineSet
146 421 m 1
 212 472 l 1
 212 408 l 1
 146 357 l 1
 146 0 l 1
 63 0 l 1
 63 313 l 1
 0 263 l 1
 0 327 l 1
 63 377 l 1
 63 729 l 1
 146 729 l 1
 146 421 l 1
EndSplineSet
EndChar

StartChar: oslash
Encoding: 248 248 146
Width: 611
Flags: MW
HStem: -23 77<252 319.5 252 348> 462 77<226.5 295>
VStem: 36 87<234.5 321.5 234.5 346.5> 423 87<194.5 280>
LayerCount: 2
Fore
SplineSet
529 511 m 1
 466 440 l 1
 496 390 510 334 510 258 c 0
 510 82 422 -23 274 -23 c 0
 206 -23 151 -2 111 39 c 1
 50 -30 l 1
 18 -2 l 1
 84 72 l 1
 51 121 36 180 36 258 c 0
 36 435 124 539 273 539 c 0
 342 539 394 519 439 474 c 1
 497 539 l 1
 529 511 l 1
405 371 m 1
 167 102 l 1
 196 70 231 54 273 54 c 0
 366 54 423 131 423 258 c 0
 423 302 417 339 405 371 c 1
144 141 m 1
 383 410 l 1
 357 443 317 462 273 462 c 0
 180 462 123 385 123 258 c 0
 123 211 130 175 144 141 c 1
EndSplineSet
EndChar

StartChar: oe
Encoding: 339 339 147
Width: 944
Flags: MW
HStem: -23 77<230.5 321 640.5 700.5> 234 68<515 809 515 899 513 809> 462 77<230.5 321.5 201 324 625 707.5>
VStem: 40 87<195 322 195 348.5>
LayerCount: 2
Fore
SplineSet
804 159 m 1
 888 159 l 1
 867 45 784 -23 665 -23 c 0
 580 -23 511 13 471 80 c 1
 429 11 365 -23 277 -23 c 0
 125 -23 40 79 40 259 c 0
 40 438 125 539 277 539 c 0
 366 539 433 503 473 433 c 1
 514 500 584 539 666 539 c 0
 764 539 844 487 878 401 c 0
 893 362 899 314 899 234 c 1
 513 234 l 1
 514 182 521 152 541 122 c 0
 569 78 614 54 667 54 c 0
 734 54 781 90 804 159 c 1
277 462 m 0
 184 462 127 385 127 259 c 0
 127 131 184 54 277 54 c 0
 370 54 427 131 427 256 c 0
 427 386 371 462 277 462 c 0
515 302 m 1
 809 302 l 1
 809 397 750 462 665 462 c 0
 580 462 522 399 515 302 c 1
EndSplineSet
EndChar

StartChar: germandbls
Encoding: 223 223 148
Width: 611
Flags: W
HStem: -20 82<297 300 300 349.5 259 383> 0 20 651 78<268.5 335.5>
VStem: 70 83<0 538 0 570> 433 87<509.5 574> 468 87<168 243>
LayerCount: 2
Fore
SplineSet
271 349 m 1xa4
 271 431 l 1
 281 431 l 2
 370 431 433 477 433 542 c 0
 433 606 376 651 295 651 c 0
 209 651 153 607 153 538 c 2
 153 0 l 1
 70 0 l 1x78
 70 538 l 2
 70 602 87 642 127 674 c 1
 173 709 235 729 302 729 c 0
 432 729 520 655 520 545 c 0xb8
 520 474 481 429 395 401 c 1
 447 385 474 372 501 347 c 0
 539 312 555 274 555 218 c 0
 555 72 459 -20 307 -20 c 0
 287 -20 277 -19 259 -16 c 1
 259 62 l 1
 268 62 l 1
 300 62 l 2
 399 62 468 123 468 213 c 0
 468 273 440 317 389 336 c 0
 364 346 340 349 287 349 c 2
 271 349 l 1xa4
EndSplineSet
EndChar

StartChar: onesuperior
Encoding: 185 185 149
Width: 333
Flags: MW
VStem: 151 62<284 580 580 580>
LayerCount: 2
Fore
SplineSet
151 580 m 1
 52 580 l 1
 52 626 l 1
 67 627 l 1
 139 634 153 645 170 709 c 1
 213 709 l 1
 213 284 l 1
 151 284 l 1
 151 580 l 1
EndSplineSet
EndChar

StartChar: logicalnot
Encoding: 172 172 150
Width: 584
Flags: MW
HStem: 305 70<40 474 40 544>
VStem: 474 70<86 305 305 305>
LayerCount: 2
Fore
SplineSet
40 375 m 1
 544 375 l 1
 544 86 l 1
 474 86 l 1
 474 305 l 1
 40 305 l 1
 40 375 l 1
EndSplineSet
EndChar

StartChar: mu
Encoding: 956 956 151
Width: 556
Flags: MW
HStem: -23 73<222.5 272> 504 20<65 148 148 148 398 481 481 481>
VStem: 65 83<-220 3 121.5 153 153 524> 398 83<227 524>
LayerCount: 2
Fore
SplineSet
544 49 m 1
 544 -14 l 1
 518 -21 505 -23 487 -23 c 0
 430 -23 403 3 401 60 c 1
 361 5 306 -23 238 -23 c 0
 202 -23 173 -15 148 3 c 1
 148 -220 l 1
 65 -220 l 1
 65 524 l 1
 148 524 l 1
 148 153 l 2
 148 90 190 50 255 50 c 0
 342 50 398 120 398 227 c 2
 398 524 l 1
 481 524 l 1
 481 88 l 2
 481 61 497 47 526 47 c 0
 530 47 534 47 544 49 c 1
EndSplineSet
EndChar

StartChar: trademark
Encoding: 8482 8482 152
Width: 1000
Flags: MW
HStem: 674 55<63 217 63 438 285 438 285 285>
VStem: 217 68<292 674 292 674> 490 67<292 633 292 729> 871 67<292 633 633 633>
LayerCount: 2
Fore
SplineSet
285 674 m 1
 285 292 l 1
 217 292 l 1
 217 674 l 1
 63 674 l 1
 63 729 l 1
 438 729 l 1
 438 674 l 1
 285 674 l 1
748 292 m 1
 678 292 l 1
 557 633 l 1
 557 292 l 1
 490 292 l 1
 490 729 l 1
 584 729 l 1
 716 367 l 1
 847 729 l 1
 938 729 l 1
 938 292 l 1
 871 292 l 1
 871 633 l 1
 748 292 l 1
EndSplineSet
EndChar

StartChar: Eth
Encoding: 208 208 153
Width: 722
Flags: MW
HStem: 0 82<182 355 355 371> 339 67<20 89 20 89 182 353> 647 82<182 355 182 182>
VStem: 89 93<82 339 82 339 82 339 406 647> 574 93<272 412.5>
LayerCount: 2
Fore
SplineSet
89 339 m 1
 20 339 l 1
 20 406 l 1
 89 406 l 1
 89 729 l 1
 371 729 l 2
 555 729 667 591 667 365 c 0
 667 138 555 0 371 0 c 2
 89 0 l 1
 89 339 l 1
182 339 m 1
 182 82 l 1
 355 82 l 2
 498 82 574 179 574 365 c 0
 574 460 557 525 519 574 c 0
 482 622 425 647 355 647 c 2
 182 647 l 1
 182 406 l 1
 353 406 l 1
 353 339 l 1
 182 339 l 1
EndSplineSet
EndChar

StartChar: onehalf
Encoding: 189 189 154
Width: 834
Flags: W
HStem: -20 20 0 58<576 805 576 805> 372 53<644 684.5>
VStem: 124 62<284 580 580 580> 745 63<281.5 318.5>
LayerCount: 2
Fore
SplineSet
124 580 m 1x38
 25 580 l 1
 25 626 l 1
 40 627 l 1
 112 634 126 645 143 709 c 1
 186 709 l 1
 186 284 l 1
 124 284 l 1
 124 580 l 1x38
583 709 m 1
 641 709 l 1
 189 -20 l 1
 131 -20 l 1xb8
 583 709 l 1
805 58 m 1x78
 805 0 l 1
 501 0 l 1
 506 97 532 136 628 187 c 2
 686 218 l 2
 725 239 745 266 745 297 c 0
 745 340 709 372 660 372 c 0
 628 372 600 357 586 333 c 0
 578 320 575 304 573 273 c 1
 511 273 l 1
 514 376 563 425 662 425 c 0
 748 425 808 373 808 299 c 0
 808 246 775 202 712 170 c 2
 649 138 l 1
 606 115 588 96 576 58 c 1
 805 58 l 1x78
EndSplineSet
EndChar

StartChar: plusminus
Encoding: 177 177 155
Width: 584
Flags: MW
HStem: -11 70<50 534 50 534> 346 70<50 257 50 257 327 534>
VStem: 257 70<139 346 139 346 416 623>
LayerCount: 2
Fore
SplineSet
534 416 m 1
 534 346 l 1
 327 346 l 1
 327 139 l 1
 257 139 l 1
 257 346 l 1
 50 346 l 1
 50 416 l 1
 257 416 l 1
 257 623 l 1
 327 623 l 1
 327 416 l 1
 534 416 l 1
534 59 m 1
 534 -11 l 1
 50 -11 l 1
 50 59 l 1
 534 59 l 1
EndSplineSet
EndChar

StartChar: Thorn
Encoding: 222 222 156
Width: 667
Flags: MW
HStem: 0 20 189 82<184 378 184 378 378 413> 527 82<184 378 184 392> 709 20<91 184 184 184>
VStem: 91 93<0 189 271 527 609 729> 516 100<358.5 439>
LayerCount: 2
Fore
SplineSet
184 189 m 1
 184 0 l 1
 91 0 l 1
 91 729 l 1
 184 729 l 1
 184 609 l 1
 392 609 l 2
 531 609 616 529 616 397 c 0
 616 275 532 189 413 189 c 2
 184 189 l 1
184 271 m 1
 378 271 l 2
 465 271 516 318 516 399 c 0
 516 479 465 527 378 527 c 2
 184 527 l 1
 184 271 l 1
EndSplineSet
EndChar

StartChar: onequarter
Encoding: 188 188 157
Width: 834
Flags: W
HStem: -20 20 0 20 100 53<556 685 556 685 747 814>
VStem: 125 62<284 580 580 580> 685 62<0 100 0 100 153 323 323 323>
LayerCount: 2
Fore
SplineSet
125 580 m 1x38
 26 580 l 1
 26 626 l 1
 41 627 l 1
 113 634 127 645 144 709 c 1
 187 709 l 1
 187 284 l 1
 125 284 l 1
 125 580 l 1x38
608 709 m 1
 666 709 l 1
 214 -20 l 1
 156 -20 l 1xb8
 608 709 l 1
685 100 m 1
 497 100 l 1
 497 159 l 1
 701 425 l 1
 747 425 l 1
 747 153 l 1
 814 153 l 1
 814 100 l 1
 747 100 l 1
 747 0 l 1
 685 0 l 1x78
 685 100 l 1
685 153 m 1
 685 323 l 1
 556 153 l 1
 685 153 l 1
EndSplineSet
EndChar

StartChar: divide
Encoding: 247 247 158
Width: 584
Flags: MW
HStem: 0 104<240 344 240 344> 201 70<50 534 50 534> 368 104<240 344 240 344>
VStem: 240 104<0 104 0 104 368 472>
LayerCount: 2
Fore
SplineSet
534 271 m 1
 534 201 l 1
 50 201 l 1
 50 271 l 1
 534 271 l 1
344 104 m 1
 344 0 l 1
 240 0 l 1
 240 104 l 1
 344 104 l 1
344 472 m 1
 344 368 l 1
 240 368 l 1
 240 472 l 1
 344 472 l 1
EndSplineSet
EndChar

StartChar: brokenbar
Encoding: 166 166 159
Width: 260
Flags: MW
HStem: 709 20<100 160 160 160>
VStem: 100 60<-212 189 -212 189 328 729>
LayerCount: 2
Fore
SplineSet
100 729 m 1
 160 729 l 1
 160 328 l 1
 100 328 l 1
 100 729 l 1
100 189 m 1
 160 189 l 1
 160 -212 l 1
 100 -212 l 1
 100 189 l 1
EndSplineSet
EndChar

StartChar: degree
Encoding: 176 176 160
Width: 400
Flags: MW
HStem: 383 57<173 225 173 240.5> 629 57<173.5 226>
VStem: 48 57<509 561 509 576.5> 294 57<508.5 561>
LayerCount: 2
Fore
SplineSet
200 686 m 0
 283 686 351 618 351 535 c 0
 351 450 283 383 198 383 c 0
 116 383 48 452 48 535 c 0
 48 618 116 686 200 686 c 0
200 629 m 0
 147 629 105 587 105 535 c 0
 105 483 148 440 198 440 c 0
 252 440 294 482 294 535 c 0
 294 587 252 629 200 629 c 0
EndSplineSet
EndChar

StartChar: thorn
Encoding: 254 254 161
Width: 556
Flags: MW
HStem: -23 78<264 328.5> 461 78<264.5 329>
VStem: 54 83<-218 55 196.5 319.5 459 714> 435 87<195.5 317.5>
LayerCount: 2
Fore
SplineSet
54 -218 m 1
 54 714 l 1
 137 714 l 1
 137 459 l 1
 173 510 231 539 298 539 c 0
 434 539 522 427 522 253 c 0
 522 86 434 -23 298 -23 c 0
 230 -23 181 1 137 55 c 1
 137 -218 l 1
 54 -218 l 1
283 461 m 0
 194 461 137 381 137 258 c 0
 137 135 194 55 283 55 c 0
 374 55 435 136 435 255 c 0
 435 380 375 461 283 461 c 0
EndSplineSet
EndChar

StartChar: threequarters
Encoding: 190 190 162
Width: 834
Flags: W
HStem: -20 20 0 20 100 53<554 683 554 683 745 812> 270 53<148 206.5 148 223> 656 53<161.5 202>
VStem: 254 63<569.5 609.5> 268 63<378.5 428> 683 62<0 100 0 100 153 323 323 323>
LayerCount: 2
Fore
SplineSet
144 476 m 1xfa
 144 527 l 1
 230 527 254 541 254 588 c 0
 254 631 226 656 178 656 c 0
 145 656 118 643 106 621 c 0
 99 608 97 595 97 567 c 1
 34 567 l 1
 36 661 84 709 178 709 c 0
 264 709 317 664 317 589 c 0xfd
 317 550 297 521 260 504 c 1
 308 488 331 455 331 404 c 0
 331 323 270 270 176 270 c 0
 80 270 25 321 25 412 c 1
 87 412 l 1
 90 350 118 323 178 323 c 0
 235 323 268 353 268 404 c 0
 268 452 238 476 176 476 c 2
 153 476 l 1
 144 476 l 1xfa
636 709 m 1
 694 709 l 1
 242 -20 l 1
 184 -20 l 1
 636 709 l 1
683 100 m 1
 495 100 l 1
 495 159 l 1
 699 425 l 1
 745 425 l 1
 745 153 l 1
 812 153 l 1
 812 100 l 1
 745 100 l 1
 745 0 l 1
 683 0 l 1
 683 100 l 1
683 153 m 1
 683 323 l 1
 554 153 l 1
 683 153 l 1
EndSplineSet
EndChar

StartChar: twosuperior
Encoding: 178 178 163
Width: 333
Flags: MW
HStem: 284 58<85 314 85 314> 656 53<153 193.5>
VStem: 254 63<565.5 602.5>
LayerCount: 2
Fore
SplineSet
314 342 m 1
 314 284 l 1
 10 284 l 1
 14 381 41 420 137 471 c 2
 195 502 l 2
 234 523 254 550 254 581 c 0
 254 624 218 656 169 656 c 0
 137 656 109 641 95 617 c 0
 87 604 84 588 82 557 c 1
 20 557 l 1
 23 660 72 709 171 709 c 0
 257 709 317 657 317 583 c 0
 317 530 284 486 221 454 c 2
 158 422 l 1
 115 399 97 380 85 342 c 1
 314 342 l 1
EndSplineSet
EndChar

StartChar: registered
Encoding: 174 174 164
Width: 737
Flags: MW
HStem: -22 62<280.5 454 280.5 472.5> 325 63<272 401 272 401 401 406> 522 63<272 401 272 272> 680 62<282.5 455.5>
VStem: -13 68<273 448.5 273 465.5> 202 70<140 325 388 522> 476 73<436 478.5> 683 68<271.5 449>
LayerCount: 2
Fore
SplineSet
272 325 m 1
 272 140 l 1
 202 140 l 1
 202 585 l 1
 408 585 l 2
 503 585 549 544 549 459 c 0
 549 413 537 390 495 360 c 1
 532 336 539 319 540 248 c 0
 541 190 545 178 563 165 c 1
 563 140 l 1
 484 140 l 1
 475 161 469 189 469 217 c 2
 470 257 l 1
 470 305 451 325 406 325 c 2
 272 325 l 1
272 388 m 1
 401 388 l 2
 453 388 476 408 476 455 c 0
 476 502 454 522 401 522 c 2
 272 522 l 1
 272 388 l 1
369 742 m 0
 580 742 751 571 751 361 c 0
 751 147 581 -22 364 -22 c 0
 159 -22 -13 152 -13 360 c 0
 -13 571 158 742 369 742 c 0
369 680 m 0
 196 680 55 537 55 360 c 0
 55 186 196 40 365 40 c 0
 543 40 683 182 683 361 c 0
 683 537 542 680 369 680 c 0
EndSplineSet
EndChar

StartChar: minus
Encoding: 8722 8722 165
Width: 584
Flags: MW
HStem: 197 70<40 544 40 544>
LayerCount: 2
Fore
SplineSet
544 267 m 1
 544 197 l 1
 40 197 l 1
 40 267 l 1
 544 267 l 1
EndSplineSet
EndChar

StartChar: eth
Encoding: 240 240 166
Width: 556
Flags: MW
HStem: -23 77<226.5 319 226.5 349> 462 75<234 263.5 234 320> 723 20<133 133>
VStem: 36 87<194.5 316.5> 423 87<193 305 168.5 320>
LayerCount: 2
Fore
SplineSet
219 613 m 1
 122 568 l 1
 86 607 l 1
 171 647 l 1
 145 667 132 675 89 699 c 1
 133 743 l 1
 164 730 177 723 244 680 c 1
 341 725 l 1
 381 688 l 1
 291 647 l 1
 363 592 400 554 438 497 c 0
 489 419 510 351 510 259 c 0
 510 78 425 -23 273 -23 c 0
 122 -23 36 79 36 258 c 0
 36 375 71 458 139 502 c 0
 174 525 214 537 254 537 c 0
 273 537 287 534 317 524 c 1
 282 559 271 569 219 613 c 1
273 462 m 0
 180 462 123 385 123 258 c 0
 123 131 180 54 273 54 c 0
 365 54 423 131 423 255 c 0
 423 385 367 462 273 462 c 0
EndSplineSet
EndChar

StartChar: multiply
Encoding: 215 215 167
Width: 584
Flags: W
LayerCount: 2
Fore
SplineSet
438 427 m 1
 487 377 l 1
 341 231 l 1
 488 84 l 1
 438 34 l 1
 291 181 l 1
 145 35 l 1
 95 84 l 1
 242 231 l 1
 96 377 l 1
 145 426 l 1
 291 281 l 1
 438 427 l 1
EndSplineSet
EndChar

StartChar: threesuperior
Encoding: 179 179 168
Width: 333
Flags: W
HStem: 270 53<130 188.5 130 205> 656 53<143.5 184>
VStem: 236 63<569.5 609.5> 250 63<378.5 428>
LayerCount: 2
Fore
SplineSet
126 476 m 1xd0
 126 527 l 1
 212 527 236 541 236 588 c 0
 236 631 208 656 160 656 c 0
 127 656 100 643 88 621 c 0
 81 608 79 595 79 567 c 1
 16 567 l 1
 18 661 66 709 160 709 c 0
 246 709 299 664 299 589 c 0xe0
 299 550 279 521 242 504 c 1
 290 488 313 455 313 404 c 0
 313 323 252 270 158 270 c 0
 62 270 7 321 7 412 c 1
 69 412 l 1
 72 350 100 323 160 323 c 0
 217 323 250 353 250 404 c 0
 250 452 220 476 158 476 c 2
 135 476 l 1
 126 476 l 1xd0
EndSplineSet
EndChar

StartChar: copyright
Encoding: 169 169 169
Width: 737
Flags: MW
HStem: -22 62<280.5 454 280.5 472.5> 126 62<359 403 359 403.5> 530 62<337 401.5> 680 62<282.5 455.5>
VStem: -13 68<273 448.5 273 465.5> 181 69<332.5 410.5 332.5 427.5> 683 68<271.5 449>
LayerCount: 2
Fore
SplineSet
544 437 m 1
 473 437 l 1
 456 503 428 530 375 530 c 0
 299 530 250 463 250 358 c 0
 250 307 263 263 286 234 c 0
 307 206 343 188 375 188 c 0
 431 188 468 231 481 312 c 1
 552 312 l 1
 540 252 530 224 511 196 c 0
 478 149 432 126 375 126 c 0
 260 126 181 220 181 357 c 0
 181 498 260 592 378 592 c 0
 467 592 520 543 544 437 c 1
369 742 m 0
 580 742 751 571 751 361 c 0
 751 147 581 -22 364 -22 c 0
 159 -22 -13 152 -13 360 c 0
 -13 571 158 742 369 742 c 0
369 680 m 0
 196 680 55 537 55 360 c 0
 55 186 196 40 365 40 c 0
 543 40 683 182 683 361 c 0
 683 537 542 680 369 680 c 0
EndSplineSet
EndChar

StartChar: Aacute
Encoding: 193 193 170
Width: 667
Flags: MW
HStem: 0 20 219 78<216 448 216 474 193 448> 709 20<277 397 397 397>
LayerCount: 2
Fore
SplineSet
474 219 m 1
 193 219 l 1
 116 0 l 1
 17 0 l 1
 277 729 l 1
 397 729 l 1
 653 0 l 1
 549 0 l 1
 474 219 l 1
448 297 m 1
 336 629 l 1
 216 297 l 1
 448 297 l 1
370 939 m 1
 483 939 l 1
 334 791 l 1
 274 791 l 1
 370 939 l 1
EndSplineSet
EndChar

StartChar: Acircumflex
Encoding: 194 194 171
Width: 667
Flags: MW
HStem: 0 20 219 78<216 448 216 474 193 448> 709 20<277 397 397 397>
LayerCount: 2
Fore
SplineSet
474 219 m 1
 193 219 l 1
 116 0 l 1
 17 0 l 1
 277 729 l 1
 397 729 l 1
 653 0 l 1
 549 0 l 1
 474 219 l 1
448 297 m 1
 336 629 l 1
 216 297 l 1
 448 297 l 1
288 940 m 1
 382 940 l 1
 479 790 l 1
 415 790 l 1
 335 886 l 1
 256 790 l 1
 192 790 l 1
 288 940 l 1
EndSplineSet
EndChar

StartChar: Adieresis
Encoding: 196 196 172
Width: 667
Flags: MW
HStem: 0 20 219 78<216 448 216 474 193 448> 709 20<277 397 397 397> 811 103<202 306 202 306 202 364 364 468>
VStem: 202 104<811 914 811 914> 364 104<811 914 811 914>
LayerCount: 2
Fore
SplineSet
474 219 m 1
 193 219 l 1
 116 0 l 1
 17 0 l 1
 277 729 l 1
 397 729 l 1
 653 0 l 1
 549 0 l 1
 474 219 l 1
448 297 m 1
 336 629 l 1
 216 297 l 1
 448 297 l 1
306 914 m 1
 306 811 l 1
 202 811 l 1
 202 914 l 1
 306 914 l 1
468 914 m 1
 468 811 l 1
 364 811 l 1
 364 914 l 1
 468 914 l 1
EndSplineSet
EndChar

StartChar: Agrave
Encoding: 192 192 173
Width: 667
Flags: MW
HStem: 0 20 219 78<216 448 216 474 193 448> 709 20<277 397 397 397>
LayerCount: 2
Fore
SplineSet
474 219 m 1
 193 219 l 1
 116 0 l 1
 17 0 l 1
 277 729 l 1
 397 729 l 1
 653 0 l 1
 549 0 l 1
 474 219 l 1
448 297 m 1
 336 629 l 1
 216 297 l 1
 448 297 l 1
303 939 m 1
 400 791 l 1
 339 791 l 1
 191 939 l 1
 303 939 l 1
EndSplineSet
EndChar

StartChar: Aring
Encoding: 197 197 174
Width: 667
Flags: MW
HStem: 0 20 219 78<216 448 216 474 193 448> 709 20<277 397 397 397> 778 44<323 347 323 359> 909 44<323 347.5>
VStem: 247 44<853.5 877 853.5 890> 379 44<853.5 877.5>
LayerCount: 2
Fore
SplineSet
474 219 m 1
 193 219 l 1
 116 0 l 1
 17 0 l 1
 277 729 l 1
 397 729 l 1
 653 0 l 1
 549 0 l 1
 474 219 l 1
448 297 m 1
 336 629 l 1
 216 297 l 1
 448 297 l 1
335 953 m 0
 384 953 423 914 423 865 c 0
 423 817 383 778 335 778 c 0
 286 778 247 817 247 866 c 0
 247 914 287 953 335 953 c 0
335 909 m 0
 311 909 291 889 291 865 c 0
 291 842 311 822 335 822 c 0
 359 822 379 842 379 865 c 0
 379 890 360 909 335 909 c 0
EndSplineSet
EndChar

StartChar: Atilde
Encoding: 195 195 175
Width: 667
Flags: W
HStem: 0 20 219 78<216 448 216 474 193 448> 709 20<277 397 397 397> 812 68<393.5 406 391 427.5> 849 67<261.5 274.5>
LayerCount: 2
Fore
SplineSet
474 219 m 1xe8
 193 219 l 1
 116 0 l 1
 17 0 l 1
 277 729 l 1
 397 729 l 1
 653 0 l 1
 549 0 l 1
 474 219 l 1xe8
448 297 m 1
 336 629 l 1
 216 297 l 1
 448 297 l 1
434 916 m 1
 492 916 l 1x08
 482 847 452 812 403 812 c 0x10
 384 812 376 814 318 836 c 0
 293 846 280 849 269 849 c 0
 254 849 242 836 236 813 c 1
 178 813 l 1
 189 879 220 916 264 916 c 0x08
 285 916 292 914 334 897 c 0
 359 887 385 880 397 880 c 0x10
 415 880 426 891 434 916 c 1
EndSplineSet
EndChar

StartChar: Ccedilla
Encoding: 199 199 176
Width: 722
Flags: MW
HStem: -214 41<331 359.5 331 388> -91 149<346 366.5> 659 82<332 400>
VStem: 48 93<285 415> 398 75<-141 -116.5>
LayerCount: 2
Fore
SplineSet
379 -23 m 1
 366 -56 l 1
 379 -54 384 -54 393 -54 c 0
 444 -54 473 -78 473 -121 c 0
 473 -178 426 -214 350 -214 c 0
 311 -214 287 -208 225 -180 c 1
 246 -140 l 1
 255 -144 l 1
 301 -168 318 -173 344 -173 c 0
 375 -173 398 -154 398 -128 c 0
 398 -105 381 -91 352 -91 c 0
 340 -91 333 -93 321 -99 c 1
 310 -92 l 1
 341 -23 l 1
 265 -12 235 -1 192 29 c 0
 101 93 48 214 48 356 c 0
 48 474 84 578 150 650 c 0
 204 710 283 741 381 741 c 0
 541 741 633 663 662 503 c 1
 567 503 l 1
 556 558 541 588 514 613 c 0
 484 642 429 659 371 659 c 0
 229 659 141 544 141 357 c 0
 141 174 233 58 378 58 c 0
 456 58 518 92 548 152 c 0
 563 182 573 216 581 266 c 1
 677 266 l 1
 655 75 555 -23 379 -23 c 1
EndSplineSet
EndChar

StartChar: Eacute
Encoding: 201 201 177
Width: 667
Flags: MW
HStem: 0 82<183 613 183 613> 332 82<183 580 183 580> 647 82<183 595 183 183>
VStem: 90 93<82 332 82 414 414 647>
LayerCount: 2
Fore
SplineSet
183 332 m 1
 183 82 l 1
 613 82 l 1
 613 0 l 1
 90 0 l 1
 90 729 l 1
 595 729 l 1
 595 647 l 1
 183 647 l 1
 183 414 l 1
 580 414 l 1
 580 332 l 1
 183 332 l 1
367 939 m 1
 479 939 l 1
 330 791 l 1
 270 791 l 1
 367 939 l 1
EndSplineSet
EndChar

StartChar: Ecircumflex
Encoding: 202 202 178
Width: 667
Flags: MW
HStem: 0 82<183 613 183 613> 332 82<183 580 183 580> 647 82<183 595 183 183>
VStem: 90 93<82 332 82 414 414 647>
LayerCount: 2
Fore
SplineSet
183 332 m 1
 183 82 l 1
 613 82 l 1
 613 0 l 1
 90 0 l 1
 90 729 l 1
 595 729 l 1
 595 647 l 1
 183 647 l 1
 183 414 l 1
 580 414 l 1
 580 332 l 1
 183 332 l 1
297 940 m 1
 392 940 l 1
 488 790 l 1
 425 790 l 1
 345 886 l 1
 266 790 l 1
 201 790 l 1
 297 940 l 1
EndSplineSet
EndChar

StartChar: Edieresis
Encoding: 203 203 179
Width: 667
Flags: MW
HStem: 0 82<183 613 183 613> 332 82<183 580 183 580> 647 82<183 595 183 183> 811 103<211 315 211 315 211 373 373 477>
VStem: 90 93<82 332 82 414 414 647> 211 104<811 914 811 914> 373 104<811 914 811 914>
LayerCount: 2
Fore
SplineSet
183 332 m 1
 183 82 l 1
 613 82 l 1
 613 0 l 1
 90 0 l 1
 90 729 l 1
 595 729 l 1
 595 647 l 1
 183 647 l 1
 183 414 l 1
 580 414 l 1
 580 332 l 1
 183 332 l 1
315 914 m 1
 315 811 l 1
 211 811 l 1
 211 914 l 1
 315 914 l 1
477 914 m 1
 477 811 l 1
 373 811 l 1
 373 914 l 1
 477 914 l 1
EndSplineSet
EndChar

StartChar: Egrave
Encoding: 200 200 180
Width: 667
Flags: MW
HStem: 0 82<183 613 183 613> 332 82<183 580 183 580> 647 82<183 595 183 183>
VStem: 90 93<82 332 82 414 414 647>
LayerCount: 2
Fore
SplineSet
183 332 m 1
 183 82 l 1
 613 82 l 1
 613 0 l 1
 90 0 l 1
 90 729 l 1
 595 729 l 1
 595 647 l 1
 183 647 l 1
 183 414 l 1
 580 414 l 1
 580 332 l 1
 183 332 l 1
320 939 m 1
 416 791 l 1
 356 791 l 1
 207 939 l 1
 320 939 l 1
EndSplineSet
EndChar

StartChar: Iacute
Encoding: 205 205 181
Width: 278
Flags: MW
HStem: 0 20 709 20<100 193 193 193>
VStem: 100 93<0 729 0 729>
LayerCount: 2
Fore
SplineSet
193 729 m 1
 193 0 l 1
 100 0 l 1
 100 729 l 1
 193 729 l 1
167 939 m 1
 280 939 l 1
 131 791 l 1
 71 791 l 1
 167 939 l 1
EndSplineSet
EndChar

StartChar: Icircumflex
Encoding: 206 206 182
Width: 278
Flags: MW
HStem: 0 20 709 20<100 193 193 193>
VStem: 100 93<0 729 0 729>
LayerCount: 2
Fore
SplineSet
193 729 m 1
 193 0 l 1
 100 0 l 1
 100 729 l 1
 193 729 l 1
95 940 m 1
 190 940 l 1
 286 790 l 1
 223 790 l 1
 142 886 l 1
 63 790 l 1
 -1 790 l 1
 95 940 l 1
EndSplineSet
EndChar

StartChar: Idieresis
Encoding: 207 207 183
Width: 278
Flags: W
HStem: 0 20 709 20<100 193 193 193> 804 103<9 113 9 113 9 171 171 275>
VStem: 9 104<804 907 804 907> 100 93<0 729 0 729> 171 104<804 907 804 907>
LayerCount: 2
Fore
SplineSet
193 729 m 1xe8
 193 0 l 1
 100 0 l 1
 100 729 l 1
 193 729 l 1xe8
113 907 m 1xf4
 113 804 l 1
 9 804 l 1
 9 907 l 1
 113 907 l 1xf4
275 907 m 1
 275 804 l 1
 171 804 l 1
 171 907 l 1
 275 907 l 1
EndSplineSet
EndChar

StartChar: Igrave
Encoding: 204 204 184
Width: 278
Flags: MW
HStem: 0 20 709 20<100 193 193 193>
VStem: 100 93<0 729 0 729>
LayerCount: 2
Fore
SplineSet
193 729 m 1
 193 0 l 1
 100 0 l 1
 100 729 l 1
 193 729 l 1
114 939 m 1
 210 791 l 1
 150 791 l 1
 1 939 l 1
 114 939 l 1
EndSplineSet
EndChar

StartChar: Ntilde
Encoding: 209 209 185
Width: 722
Flags: W
HStem: 0 20 709 20<76 177 177 177 558 646 646 646> 812 68<425.5 438.5 423.5 460> 849 67<294 307>
VStem: 76 88<0 591 0 729> 558 88<133 729 0 729>
LayerCount: 2
Fore
SplineSet
646 729 m 1xdc
 646 0 l 1
 540 0 l 1
 164 591 l 1
 164 0 l 1
 76 0 l 1
 76 729 l 1
 177 729 l 1
 558 133 l 1
 558 729 l 1
 646 729 l 1xdc
467 916 m 1
 525 916 l 1x1c
 515 847 485 812 435 812 c 0x2c
 416 812 409 814 350 836 c 0
 326 846 313 849 301 849 c 0
 287 849 275 836 268 813 c 1
 211 813 l 1
 222 879 253 916 297 916 c 0x1c
 317 916 325 914 367 897 c 0
 391 887 417 880 430 880 c 0x2c
 447 880 459 891 467 916 c 1
EndSplineSet
EndChar

StartChar: Oacute
Encoding: 211 211 186
Width: 778
Flags: MW
HStem: -23 82<312 434.5> 659 82<311.5 468>
VStem: 38 93<269 449 269 473> 649 93<293.5 447.5>
LayerCount: 2
Fore
SplineSet
389 741 m 0
 603 741 742 588 742 353 c 0
 742 234 695 121 616 54 c 0
 557 4 479 -23 390 -23 c 0
 179 -23 38 130 38 359 c 0
 38 587 180 741 389 741 c 0
389 659 m 0
 234 659 131 539 131 359 c 0
 131 179 234 59 390 59 c 0
 544 59 649 179 649 355 c 0
 649 540 547 659 389 659 c 0
419 939 m 1
 531 939 l 1
 382 791 l 1
 322 791 l 1
 419 939 l 1
EndSplineSet
EndChar

StartChar: Ocircumflex
Encoding: 212 212 187
Width: 778
Flags: MW
HStem: -23 82<312 434.5> 659 82<311.5 468>
VStem: 38 93<269 449 269 473> 649 93<293.5 447.5>
LayerCount: 2
Fore
SplineSet
389 741 m 0
 603 741 742 588 742 353 c 0
 742 234 695 121 616 54 c 0
 557 4 479 -23 390 -23 c 0
 179 -23 38 130 38 359 c 0
 38 587 180 741 389 741 c 0
389 659 m 0
 234 659 131 539 131 359 c 0
 131 179 234 59 390 59 c 0
 544 59 649 179 649 355 c 0
 649 540 547 659 389 659 c 0
343 940 m 1
 437 940 l 1
 534 790 l 1
 470 790 l 1
 390 886 l 1
 311 790 l 1
 247 790 l 1
 343 940 l 1
EndSplineSet
EndChar

StartChar: Odieresis
Encoding: 214 214 188
Width: 778
Flags: MW
HStem: -23 82<312 434.5> 659 82<311.5 468> 811 103<257 361 257 361 257 419 419 523>
VStem: 38 93<269 449 269 473> 257 104<811 914 811 914> 419 104<811 914 811 914> 649 93<293.5 447.5>
LayerCount: 2
Fore
SplineSet
389 741 m 0
 603 741 742 588 742 353 c 0
 742 234 695 121 616 54 c 0
 557 4 479 -23 390 -23 c 0
 179 -23 38 130 38 359 c 0
 38 587 180 741 389 741 c 0
389 659 m 0
 234 659 131 539 131 359 c 0
 131 179 234 59 390 59 c 0
 544 59 649 179 649 355 c 0
 649 540 547 659 389 659 c 0
361 914 m 1
 361 811 l 1
 257 811 l 1
 257 914 l 1
 361 914 l 1
523 914 m 1
 523 811 l 1
 419 811 l 1
 419 914 l 1
 523 914 l 1
EndSplineSet
EndChar

StartChar: Ograve
Encoding: 210 210 189
Width: 778
Flags: MW
HStem: -23 82<312 434.5> 659 82<311.5 468>
VStem: 38 93<269 449 269 473> 649 93<293.5 447.5>
LayerCount: 2
Fore
SplineSet
389 741 m 0
 603 741 742 588 742 353 c 0
 742 234 695 121 616 54 c 0
 557 4 479 -23 390 -23 c 0
 179 -23 38 130 38 359 c 0
 38 587 180 741 389 741 c 0
389 659 m 0
 234 659 131 539 131 359 c 0
 131 179 234 59 390 59 c 0
 544 59 649 179 649 355 c 0
 649 540 547 659 389 659 c 0
358 939 m 1
 455 791 l 1
 394 791 l 1
 246 939 l 1
 358 939 l 1
EndSplineSet
EndChar

StartChar: Otilde
Encoding: 213 213 190
Width: 778
Flags: W
HStem: -23 82<312 434.5> 659 82<311.5 468> 812 68<451.5 464 449 485.5> 849 67<319.5 332.5 300 333>
VStem: 38 93<269 449 269 473> 649 93<293.5 447.5>
LayerCount: 2
Fore
SplineSet
389 741 m 0xdc
 603 741 742 588 742 353 c 0
 742 234 695 121 616 54 c 0
 557 4 479 -23 390 -23 c 0
 179 -23 38 130 38 359 c 0
 38 587 180 741 389 741 c 0xdc
389 659 m 0
 234 659 131 539 131 359 c 0
 131 179 234 59 390 59 c 0
 544 59 649 179 649 355 c 0
 649 540 547 659 389 659 c 0
493 916 m 1
 550 916 l 1x1c
 541 847 510 812 461 812 c 0x2c
 442 812 435 814 376 836 c 0
 352 846 339 849 327 849 c 0
 312 849 300 836 294 813 c 1
 236 813 l 1
 247 879 278 916 322 916 c 0x1c
 343 916 351 914 392 897 c 0
 417 887 443 880 455 880 c 0x2c
 473 880 485 891 493 916 c 1
EndSplineSet
EndChar

StartChar: Scaron
Encoding: 352 352 191
Width: 667
Flags: MW
HStem: -23 82<302 371.5 302 379.5> 663 78<277 384>
VStem: 70 93<512 577 512 593> 528 93<171.5 219.5>
LayerCount: 2
Fore
SplineSet
596 515 m 1
 508 515 l 1
 507 611 442 663 326 663 c 0
 228 663 163 614 163 540 c 0
 163 484 195 456 283 432 c 2
 466 383 l 2
 565 356 621 290 621 200 c 0
 621 137 590 72 541 33 c 1
 494 -3 423 -23 336 -23 c 0
 225 -23 141 12 91 81 c 0
 62 121 49 165 48 232 c 1
 136 232 l 1
 135 187 147 152 174 120 c 0
 209 78 262 59 342 59 c 0
 401 59 447 69 476 90 c 0
 507 112 528 152 528 191 c 0
 528 248 487 285 394 309 c 2
 213 357 l 2
 117 382 70 438 70 527 c 0
 70 659 169 741 329 741 c 0
 452 741 537 697 577 613 c 0
 593 579 596 565 596 515 c 1
380 790 m 1
 286 790 l 1
 189 940 l 1
 253 940 l 1
 333 844 l 1
 412 940 l 1
 476 940 l 1
 380 790 l 1
EndSplineSet
EndChar

StartChar: Uacute
Encoding: 218 218 192
Width: 722
Flags: MW
HStem: -23 82<307 423 307 450> 709 20<85 178 178 178 551 644 644 644>
VStem: 85 93<217 729>
LayerCount: 2
Fore
SplineSet
551 729 m 1
 644 729 l 1
 645 217 l 2
 645 72 535 -23 365 -23 c 0
 195 -23 85 71 85 217 c 2
 85 729 l 1
 178 729 l 1
 178 217 l 2
 178 119 249 59 365 59 c 0
 481 59 552 119 552 217 c 2
 551 729 l 1
387 939 m 1
 500 939 l 1
 351 791 l 1
 291 791 l 1
 387 939 l 1
EndSplineSet
EndChar

StartChar: Ucircumflex
Encoding: 219 219 193
Width: 722
Flags: MW
HStem: -23 82<307 423 307 450> 709 20<85 178 178 178 552 645 645 645>
VStem: 85 93<217 729> 552 93<217 729>
LayerCount: 2
Fore
SplineSet
552 729 m 1
 645 729 l 1
 645 217 l 2
 645 71 535 -23 365 -23 c 0
 195 -23 85 71 85 217 c 2
 85 729 l 1
 178 729 l 1
 178 217 l 2
 178 119 249 59 365 59 c 0
 481 59 552 119 552 217 c 2
 552 729 l 1
318 940 m 1
 412 940 l 1
 509 790 l 1
 445 790 l 1
 365 886 l 1
 286 790 l 1
 222 790 l 1
 318 940 l 1
EndSplineSet
EndChar

StartChar: Udieresis
Encoding: 220 220 194
Width: 722
Flags: MW
HStem: -23 82<307 423 307 450> 709 20<85 178 178 178 552 645 645 645> 811 103<232 336 232 336 232 394 394 498>
VStem: 85 93<217 729> 232 104<811 914 811 914> 394 104<811 914 811 914> 552 93<217 729>
LayerCount: 2
Fore
SplineSet
552 729 m 1
 645 729 l 1
 645 217 l 2
 645 71 535 -23 365 -23 c 0
 195 -23 85 71 85 217 c 2
 85 729 l 1
 178 729 l 1
 178 217 l 2
 178 119 249 59 365 59 c 0
 481 59 552 119 552 217 c 2
 552 729 l 1
336 914 m 1
 336 811 l 1
 232 811 l 1
 232 914 l 1
 336 914 l 1
498 914 m 1
 498 811 l 1
 394 811 l 1
 394 914 l 1
 498 914 l 1
EndSplineSet
EndChar

StartChar: Ugrave
Encoding: 217 217 195
Width: 722
Flags: MW
HStem: -23 82<307 423 307 450> 709 20<85 178 178 178 552 645 645 645>
VStem: 85 93<217 729> 552 93<217 729>
LayerCount: 2
Fore
SplineSet
552 729 m 1
 645 729 l 1
 645 217 l 2
 645 71 535 -23 365 -23 c 0
 195 -23 85 71 85 217 c 2
 85 729 l 1
 178 729 l 1
 178 217 l 2
 178 119 249 59 365 59 c 0
 481 59 552 119 552 217 c 2
 552 729 l 1
333 939 m 1
 430 791 l 1
 369 791 l 1
 221 939 l 1
 333 939 l 1
EndSplineSet
EndChar

StartChar: Yacute
Encoding: 221 221 196
Width: 667
Flags: MW
HStem: 0 20 709 20<13 128 128 128 549 660 660 660>
VStem: 293 93<0 286 0 286>
LayerCount: 2
Fore
SplineSet
386 286 m 1
 386 0 l 1
 293 0 l 1
 293 286 l 1
 13 729 l 1
 128 729 l 1
 341 374 l 1
 549 729 l 1
 660 729 l 1
 386 286 l 1
365 939 m 1
 478 939 l 1
 329 791 l 1
 269 791 l 1
 365 939 l 1
EndSplineSet
EndChar

StartChar: Ydieresis
Encoding: 376 376 197
Width: 667
Flags: W
HStem: 0 20 709 20<13 128 128 128 550 661 661 661> 811 103<208 312 208 312 208 370 370 474>
VStem: 208 104<811 914 811 914> 294 93<0 286 0 286> 370 104<811 914 811 914>
LayerCount: 2
Fore
SplineSet
387 286 m 1xe8
 387 0 l 1
 294 0 l 1
 294 286 l 1
 13 729 l 1
 128 729 l 1
 342 374 l 1
 550 729 l 1
 661 729 l 1
 387 286 l 1xe8
312 914 m 1xf4
 312 811 l 1
 208 811 l 1
 208 914 l 1
 312 914 l 1xf4
474 914 m 1
 474 811 l 1
 370 811 l 1
 370 914 l 1
 474 914 l 1
EndSplineSet
EndChar

StartChar: Zcaron
Encoding: 381 381 198
Width: 611
Flags: MW
HStem: 0 82<145 583 28 28> 647 82<56 466 56 581>
LayerCount: 2
Fore
SplineSet
581 729 m 1
 581 645 l 1
 145 82 l 1
 583 82 l 1
 583 0 l 1
 28 0 l 1
 28 82 l 1
 466 647 l 1
 56 647 l 1
 56 729 l 1
 581 729 l 1
366 790 m 1
 272 790 l 1
 175 940 l 1
 239 940 l 1
 319 844 l 1
 398 940 l 1
 462 940 l 1
 366 790 l 1
EndSplineSet
EndChar

StartChar: aacute
Encoding: 225 225 199
Width: 556
Flags: MW
HStem: -23 73<199.5 247> 462 77<236.5 310> 720 20<304 416 416 416>
VStem: 42 87<107.5 161.5 107.5 166> 389 83<165 259 259 259 362 384 384 396>
LayerCount: 2
Fore
SplineSet
535 49 m 1
 535 -14 l 1
 507 -21 496 -23 478 -23 c 0
 424 -23 398 0 392 54 c 1
 333 0 280 -23 214 -23 c 0
 108 -23 42 37 42 132 c 0
 42 200 73 246 134 272 c 0
 166 285 184 289 302 304 c 0
 370 313 388 326 389 362 c 1
 389 384 l 2
 389 434 348 462 272 462 c 0
 194 462 156 433 149 369 c 1
 65 369 l 1
 67 421 77 451 101 478 c 0
 137 517 198 539 275 539 c 0
 404 539 472 489 472 396 c 2
 472 88 l 2
 472 62 488 47 517 47 c 0
 522 47 526 47 535 49 c 1
389 165 m 2
 389 259 l 1
 361 246 344 242 255 230 c 0
 165 217 129 189 129 134 c 0
 129 81 167 50 232 50 c 0
 281 50 322 66 356 97 c 0
 381 120 389 137 389 165 c 2
304 740 m 1
 416 740 l 1
 267 592 l 1
 207 592 l 1
 304 740 l 1
EndSplineSet
EndChar

StartChar: acircumflex
Encoding: 226 226 200
Width: 556
Flags: MW
HStem: -23 73<199.5 247> 462 77<236.5 310> 721 20<228 322 322 322>
VStem: 42 87<107.5 161.5 107.5 166> 389 83<165 259 259 259 362 384 384 396>
LayerCount: 2
Fore
SplineSet
535 49 m 1
 535 -14 l 1
 507 -21 496 -23 478 -23 c 0
 424 -23 398 0 392 54 c 1
 333 0 280 -23 214 -23 c 0
 108 -23 42 37 42 132 c 0
 42 200 73 246 134 272 c 0
 166 285 184 289 302 304 c 0
 370 313 388 326 389 362 c 1
 389 384 l 2
 389 434 348 462 272 462 c 0
 194 462 156 433 149 369 c 1
 65 369 l 1
 67 421 77 451 101 478 c 0
 137 517 198 539 275 539 c 0
 404 539 472 489 472 396 c 2
 472 88 l 2
 472 62 488 47 517 47 c 0
 522 47 526 47 535 49 c 1
389 165 m 2
 389 259 l 1
 361 246 344 242 255 230 c 0
 165 217 129 189 129 134 c 0
 129 81 167 50 232 50 c 0
 281 50 322 66 356 97 c 0
 381 120 389 137 389 165 c 2
228 741 m 1
 322 741 l 1
 419 591 l 1
 355 591 l 1
 275 687 l 1
 196 591 l 1
 132 591 l 1
 228 741 l 1
EndSplineSet
EndChar

StartChar: adieresis
Encoding: 228 228 201
Width: 556
Flags: W
HStem: -23 73<199.5 247> 462 77<236.5 310> 612 103<140 244 140 244 140 302 302 406>
VStem: 42 87<107.5 161.5 107.5 166> 140 104<612 715 612 715> 302 104<612 715 612 715> 389 83<165 259 259 259 362 384 384 396>
LayerCount: 2
Fore
SplineSet
535 49 m 1xe2
 535 -14 l 1
 507 -21 496 -23 478 -23 c 0
 424 -23 398 0 392 54 c 1
 333 0 280 -23 214 -23 c 0
 108 -23 42 37 42 132 c 0
 42 200 73 246 134 272 c 0
 166 285 184 289 302 304 c 0xf4
 370 313 388 326 389 362 c 1
 389 384 l 2
 389 434 348 462 272 462 c 0
 194 462 156 433 149 369 c 1
 65 369 l 1
 67 421 77 451 101 478 c 0
 137 517 198 539 275 539 c 0
 404 539 472 489 472 396 c 2
 472 88 l 2
 472 62 488 47 517 47 c 0
 522 47 526 47 535 49 c 1xe2
389 165 m 2xfa
 389 259 l 1
 361 246 344 242 255 230 c 0
 165 217 129 189 129 134 c 0
 129 81 167 50 232 50 c 0
 281 50 322 66 356 97 c 0
 381 120 389 137 389 165 c 2xfa
244 715 m 1
 244 612 l 1
 140 612 l 1
 140 715 l 1
 244 715 l 1
406 715 m 1xe4
 406 612 l 1
 302 612 l 1
 302 715 l 1
 406 715 l 1xe4
EndSplineSet
EndChar

StartChar: agrave
Encoding: 224 224 202
Width: 556
Flags: MW
HStem: -23 73<199.5 247> 462 77<236.5 310> 720 20<137 250 250 250>
VStem: 42 87<107.5 161.5 107.5 166> 389 83<165 259 259 259 362 384 384 396>
LayerCount: 2
Fore
SplineSet
535 49 m 1
 535 -14 l 1
 507 -21 496 -23 478 -23 c 0
 424 -23 398 0 392 54 c 1
 333 0 280 -23 214 -23 c 0
 108 -23 42 37 42 132 c 0
 42 200 73 246 134 272 c 0
 166 285 184 289 302 304 c 0
 370 313 388 326 389 362 c 1
 389 384 l 2
 389 434 348 462 272 462 c 0
 194 462 156 433 149 369 c 1
 65 369 l 1
 67 421 77 451 101 478 c 0
 137 517 198 539 275 539 c 0
 404 539 472 489 472 396 c 2
 472 88 l 2
 472 62 488 47 517 47 c 0
 522 47 526 47 535 49 c 1
389 165 m 2
 389 259 l 1
 361 246 344 242 255 230 c 0
 165 217 129 189 129 134 c 0
 129 81 167 50 232 50 c 0
 281 50 322 66 356 97 c 0
 381 120 389 137 389 165 c 2
250 740 m 1
 346 592 l 1
 286 592 l 1
 137 740 l 1
 250 740 l 1
EndSplineSet
EndChar

StartChar: aring
Encoding: 229 229 203
Width: 556
Flags: MW
HStem: -23 73<199.5 247> 462 77<236.5 310> 579 44<263 287 263 299> 710 44<263 287.5>
VStem: 42 87<107.5 161.5 107.5 166> 187 44<654.5 678 654.5 691> 319 44<654.5 678.5> 389 83<165 259 259 259 362 384 384 396>
LayerCount: 2
Fore
SplineSet
535 49 m 1
 535 -14 l 1
 507 -21 496 -23 478 -23 c 0
 424 -23 398 0 392 54 c 1
 333 0 280 -23 214 -23 c 0
 108 -23 42 37 42 132 c 0
 42 200 73 246 134 272 c 0
 166 285 184 289 302 304 c 0
 370 313 388 326 389 362 c 1
 389 384 l 2
 389 434 348 462 272 462 c 0
 194 462 156 433 149 369 c 1
 65 369 l 1
 67 421 77 451 101 478 c 0
 137 517 198 539 275 539 c 0
 404 539 472 489 472 396 c 2
 472 88 l 2
 472 62 488 47 517 47 c 0
 522 47 526 47 535 49 c 1
389 165 m 2
 389 259 l 1
 361 246 344 242 255 230 c 0
 165 217 129 189 129 134 c 0
 129 81 167 50 232 50 c 0
 281 50 322 66 356 97 c 0
 381 120 389 137 389 165 c 2
275 754 m 0
 324 754 363 715 363 666 c 0
 363 618 323 579 275 579 c 0
 226 579 187 618 187 667 c 0
 187 715 227 754 275 754 c 0
275 710 m 0
 251 710 231 690 231 666 c 0
 231 643 251 623 275 623 c 0
 299 623 319 643 319 666 c 0
 319 691 300 710 275 710 c 0
EndSplineSet
EndChar

StartChar: atilde
Encoding: 227 227 204
Width: 556
Flags: W
HStem: -23 73<199.5 247> 462 77<236.5 310> 613 68<333.5 346 331 367.5> 650 67<201.5 214.5>
VStem: 42 87<107.5 161.5 107.5 166> 389 83<165 259 259 259 362 384 384 396>
LayerCount: 2
Fore
SplineSet
535 49 m 1xdc
 535 -14 l 1
 507 -21 496 -23 478 -23 c 0
 424 -23 398 0 392 54 c 1
 333 0 280 -23 214 -23 c 0
 108 -23 42 37 42 132 c 0
 42 200 73 246 134 272 c 0
 166 285 184 289 302 304 c 0
 370 313 388 326 389 362 c 1
 389 384 l 2
 389 434 348 462 272 462 c 0
 194 462 156 433 149 369 c 1
 65 369 l 1
 67 421 77 451 101 478 c 0
 137 517 198 539 275 539 c 0
 404 539 472 489 472 396 c 2
 472 88 l 2
 472 62 488 47 517 47 c 0
 522 47 526 47 535 49 c 1xdc
389 165 m 2
 389 259 l 1
 361 246 344 242 255 230 c 0
 165 217 129 189 129 134 c 0
 129 81 167 50 232 50 c 0
 281 50 322 66 356 97 c 0
 381 120 389 137 389 165 c 2
375 717 m 1
 432 717 l 1x1c
 422 648 392 613 343 613 c 0x2c
 324 613 316 615 258 637 c 0
 234 647 220 650 209 650 c 0
 194 650 182 637 176 614 c 1
 118 614 l 1
 129 680 160 717 204 717 c 0x1c
 225 717 232 715 274 698 c 0
 299 688 325 681 337 681 c 0x2c
 355 681 367 692 375 717 c 1
EndSplineSet
EndChar

StartChar: ccedilla
Encoding: 231 231 205
Width: 500
Flags: MW
HStem: -214 41<216 244.5 216 273> -91 144<231 251.5> 462 77<217.5 298>
VStem: 31 87<200 318 190 340> 283 75<-141 -116.5>
LayerCount: 2
Fore
SplineSet
264 -23 m 1
 251 -56 l 1
 264 -54 270 -54 279 -54 c 0
 329 -54 358 -78 358 -121 c 0
 358 -178 311 -214 235 -214 c 0
 196 -214 175 -208 110 -181 c 1
 131 -140 l 1
 140 -144 l 1
 185 -167 203 -173 229 -173 c 0
 260 -173 283 -154 283 -128 c 0
 283 -105 266 -91 237 -91 c 0
 225 -91 218 -93 206 -99 c 1
 194 -92 l 1
 225 -21 l 1
 182 -13 159 -4 132 16 c 0
 67 62 31 147 31 253 c 0
 31 427 122 539 264 539 c 0
 337 539 400 510 436 461 c 1
 456 432 467 399 471 348 c 1
 387 348 l 1
 377 421 333 462 263 462 c 0
 172 462 118 384 118 252 c 0
 118 128 173 53 265 53 c 0
 336 53 379 95 393 180 c 1
 477 180 l 1
 470 55 387 -23 264 -23 c 1
EndSplineSet
EndChar

StartChar: eacute
Encoding: 233 233 206
Width: 556
Flags: MW
HStem: -23 77<254.5 314.5 254.5 338> 234 68<129 423 129 513 127 423> 462 77<237 321.5> 720 20<308 421 421 421>
LayerCount: 2
Fore
SplineSet
513 234 m 1
 127 234 l 1
 128 182 135 152 155 122 c 0
 183 78 228 54 281 54 c 0
 348 54 395 90 418 159 c 1
 502 159 l 1
 481 45 398 -23 278 -23 c 0
 130 -23 40 82 40 255 c 0
 40 428 134 539 280 539 c 0
 378 539 458 487 492 401 c 0
 507 362 513 314 513 234 c 1
129 302 m 1
 423 302 l 1
 423 396 364 462 279 462 c 0
 195 462 136 399 129 302 c 1
308 740 m 1
 421 740 l 1
 272 592 l 1
 212 592 l 1
 308 740 l 1
EndSplineSet
EndChar

StartChar: ecircumflex
Encoding: 234 234 207
Width: 556
Flags: MW
HStem: -23 77<254.5 314.5 254.5 338> 234 68<129 423 129 513 127 423> 462 77<237 321.5> 721 20<239 334 334 334>
LayerCount: 2
Fore
SplineSet
513 234 m 1
 127 234 l 1
 128 182 135 152 155 122 c 0
 183 78 228 54 281 54 c 0
 348 54 395 90 418 159 c 1
 502 159 l 1
 481 45 398 -23 278 -23 c 0
 130 -23 40 82 40 255 c 0
 40 428 134 539 280 539 c 0
 378 539 458 487 492 401 c 0
 507 362 513 314 513 234 c 1
129 302 m 1
 423 302 l 1
 423 396 364 462 279 462 c 0
 195 462 136 399 129 302 c 1
239 741 m 1
 334 741 l 1
 430 591 l 1
 367 591 l 1
 286 687 l 1
 207 591 l 1
 143 591 l 1
 239 741 l 1
EndSplineSet
EndChar

StartChar: edieresis
Encoding: 235 235 208
Width: 556
Flags: MW
HStem: -23 77<254.5 314.5 254.5 338> 234 68<129 423 129 513 127 423> 462 77<237 321.5> 612 103<153 257 153 257 153 315 315 419>
VStem: 153 104<612 715 612 715> 315 104<612 715 612 715>
LayerCount: 2
Fore
SplineSet
513 234 m 1
 127 234 l 1
 128 182 135 152 155 122 c 0
 183 78 228 54 281 54 c 0
 348 54 395 90 418 159 c 1
 502 159 l 1
 481 45 398 -23 278 -23 c 0
 130 -23 40 82 40 255 c 0
 40 428 134 539 280 539 c 0
 378 539 458 487 492 401 c 0
 507 362 513 314 513 234 c 1
129 302 m 1
 423 302 l 1
 423 396 364 462 279 462 c 0
 195 462 136 399 129 302 c 1
257 715 m 1
 257 612 l 1
 153 612 l 1
 153 715 l 1
 257 715 l 1
419 715 m 1
 419 612 l 1
 315 612 l 1
 315 715 l 1
 419 715 l 1
EndSplineSet
EndChar

StartChar: egrave
Encoding: 232 232 209
Width: 556
Flags: MW
HStem: -23 77<254.5 314.5 254.5 338> 234 68<129 423 129 513 127 423> 462 77<237 321.5> 720 20<139 251 251 251>
LayerCount: 2
Fore
SplineSet
513 234 m 1
 127 234 l 1
 128 182 135 152 155 122 c 0
 183 78 228 54 281 54 c 0
 348 54 395 90 418 159 c 1
 502 159 l 1
 481 45 398 -23 278 -23 c 0
 130 -23 40 82 40 255 c 0
 40 428 134 539 280 539 c 0
 378 539 458 487 492 401 c 0
 507 362 513 314 513 234 c 1
129 302 m 1
 423 302 l 1
 423 396 364 462 279 462 c 0
 195 462 136 399 129 302 c 1
251 740 m 1
 348 592 l 1
 288 592 l 1
 139 740 l 1
 251 740 l 1
EndSplineSet
EndChar

StartChar: iacute
Encoding: 237 237 210
Width: 278
Flags: MW
HStem: 0 20 504 20<94 177 177 177> 720 20<161 274 274 274>
VStem: 94 83<0 524 0 524>
LayerCount: 2
Fore
SplineSet
177 524 m 1
 177 0 l 1
 94 0 l 1
 94 524 l 1
 177 524 l 1
161 740 m 1
 274 740 l 1
 125 592 l 1
 65 592 l 1
 161 740 l 1
EndSplineSet
EndChar

StartChar: icircumflex
Encoding: 238 238 211
Width: 278
Flags: MW
HStem: 0 20 504 20<94 177 177 177> 721 20<89 184 184 184>
VStem: 94 83<0 524 0 524>
LayerCount: 2
Fore
SplineSet
177 524 m 1
 177 0 l 1
 94 0 l 1
 94 524 l 1
 177 524 l 1
89 741 m 1
 184 741 l 1
 280 591 l 1
 217 591 l 1
 136 687 l 1
 57 591 l 1
 -7 591 l 1
 89 741 l 1
EndSplineSet
EndChar

StartChar: idieresis
Encoding: 239 239 212
Width: 278
Flags: W
HStem: 0 20 504 20<94 177 177 177> 605 103<3 107 3 107 3 165 165 269>
VStem: 3 104<605 708 605 708> 94 83<0 524 0 524> 165 104<605 708 605 708>
LayerCount: 2
Fore
SplineSet
177 524 m 1xe8
 177 0 l 1
 94 0 l 1
 94 524 l 1
 177 524 l 1xe8
107 708 m 1xf4
 107 605 l 1
 3 605 l 1
 3 708 l 1
 107 708 l 1xf4
269 708 m 1
 269 605 l 1
 165 605 l 1
 165 708 l 1
 269 708 l 1
EndSplineSet
EndChar

StartChar: igrave
Encoding: 236 236 213
Width: 278
Flags: MW
HStem: 0 20 504 20<94 177 177 177> 720 20<-5 108 108 108>
VStem: 94 83<0 524 0 524>
LayerCount: 2
Fore
SplineSet
177 524 m 1
 177 0 l 1
 94 0 l 1
 94 524 l 1
 177 524 l 1
108 740 m 1
 204 592 l 1
 144 592 l 1
 -5 740 l 1
 108 740 l 1
EndSplineSet
EndChar

StartChar: ntilde
Encoding: 241 241 214
Width: 556
Flags: W
HStem: 0 20 466 73<282 329> 504 20<70 147 147 147> 613 68<336.5 349 334 371> 650 67<205 217.5 185 218>
VStem: 70 77<436 524 436 524 436 524> 70 84<0 289 0 524> 404 83<0 363 363 394.5>
LayerCount: 2
Fore
SplineSet
70 524 m 1xa3
 147 524 l 1
 147 436 l 1x2c
 193 509 243 539 321 539 c 0
 422 539 487 483 487 396 c 2
 487 0 l 1
 404 0 l 1
 404 363 l 2
 404 426 362 466 296 466 c 0xc3
 210 466 154 396 154 289 c 2
 154 0 l 1
 70 0 l 1
 70 524 l 1xa3
378 717 m 1
 436 717 l 1x0c
 426 648 396 613 346 613 c 0x14
 327 613 320 615 261 637 c 0
 237 647 224 650 212 650 c 0
 198 650 186 637 179 614 c 1
 122 614 l 1
 133 680 163 717 207 717 c 0x0c
 228 717 236 715 277 698 c 0
 302 688 328 681 340 681 c 0x14
 358 681 370 692 378 717 c 1
EndSplineSet
EndChar

StartChar: oacute
Encoding: 243 243 215
Width: 556
Flags: MW
HStem: -23 77<226.5 319 226.5 347> 462 77<226.5 320> 720 20<298 411 411 411>
VStem: 36 87<194.5 321.5 194.5 346> 423 87<193 320>
LayerCount: 2
Fore
SplineSet
272 539 m 0
 424 539 510 436 510 254 c 0
 510 82 421 -23 273 -23 c 0
 124 -23 36 81 36 258 c 0
 36 434 124 539 272 539 c 0
273 462 m 0
 180 462 123 385 123 258 c 0
 123 131 180 54 273 54 c 0
 365 54 423 131 423 255 c 0
 423 385 367 462 273 462 c 0
298 740 m 1
 411 740 l 1
 262 592 l 1
 202 592 l 1
 298 740 l 1
EndSplineSet
EndChar

StartChar: ocircumflex
Encoding: 244 244 216
Width: 556
Flags: MW
HStem: -23 77<226.5 319 226.5 347> 462 77<226.5 320> 721 20<226 320 320 320>
VStem: 36 87<194.5 321.5 194.5 346> 423 87<193 320>
LayerCount: 2
Fore
SplineSet
272 539 m 0
 424 539 510 436 510 254 c 0
 510 82 421 -23 273 -23 c 0
 124 -23 36 81 36 258 c 0
 36 434 124 539 272 539 c 0
273 462 m 0
 180 462 123 385 123 258 c 0
 123 131 180 54 273 54 c 0
 365 54 423 131 423 255 c 0
 423 385 367 462 273 462 c 0
226 741 m 1
 320 741 l 1
 417 591 l 1
 353 591 l 1
 273 687 l 1
 194 591 l 1
 130 591 l 1
 226 741 l 1
EndSplineSet
EndChar

StartChar: odieresis
Encoding: 246 246 217
Width: 556
Flags: MW
HStem: -23 77<226.5 319 226.5 347> 462 77<226.5 320> 612 103<140 244 140 244 140 302 302 406>
VStem: 36 87<194.5 321.5 194.5 346> 140 104<612 715 612 715> 302 104<612 715 612 715> 423 87<193 320>
LayerCount: 2
Fore
SplineSet
272 539 m 0
 424 539 510 436 510 254 c 0
 510 82 421 -23 273 -23 c 0
 124 -23 36 81 36 258 c 0
 36 434 124 539 272 539 c 0
273 462 m 0
 180 462 123 385 123 258 c 0
 123 131 180 54 273 54 c 0
 365 54 423 131 423 255 c 0
 423 385 367 462 273 462 c 0
244 715 m 1
 244 612 l 1
 140 612 l 1
 140 715 l 1
 244 715 l 1
406 715 m 1
 406 612 l 1
 302 612 l 1
 302 715 l 1
 406 715 l 1
EndSplineSet
EndChar

StartChar: ograve
Encoding: 242 242 218
Width: 556
Flags: MW
HStem: -23 77<226.5 319 226.5 347> 462 77<226.5 320> 720 20<132 245 245 245>
VStem: 36 87<194.5 321.5 194.5 346> 423 87<193 320>
LayerCount: 2
Fore
SplineSet
272 539 m 0
 424 539 510 436 510 254 c 0
 510 82 421 -23 273 -23 c 0
 124 -23 36 81 36 258 c 0
 36 434 124 539 272 539 c 0
273 462 m 0
 180 462 123 385 123 258 c 0
 123 131 180 54 273 54 c 0
 365 54 423 131 423 255 c 0
 423 385 367 462 273 462 c 0
245 740 m 1
 341 592 l 1
 281 592 l 1
 132 740 l 1
 245 740 l 1
EndSplineSet
EndChar

StartChar: otilde
Encoding: 245 245 219
Width: 556
Flags: W
HStem: -23 77<226.5 319 226.5 347> 462 77<226.5 320> 613 68<334.5 347 332 368.5> 650 67<202.5 215.5 183 216>
VStem: 36 87<194.5 321.5 194.5 346> 423 87<193 320>
LayerCount: 2
Fore
SplineSet
272 539 m 0xdc
 424 539 510 436 510 254 c 0
 510 82 421 -23 273 -23 c 0
 124 -23 36 81 36 258 c 0
 36 434 124 539 272 539 c 0xdc
273 462 m 0
 180 462 123 385 123 258 c 0
 123 131 180 54 273 54 c 0
 365 54 423 131 423 255 c 0
 423 385 367 462 273 462 c 0
376 717 m 1
 433 717 l 1x1c
 424 648 393 613 344 613 c 0x2c
 325 613 318 615 259 637 c 0
 235 647 222 650 210 650 c 0
 195 650 183 637 177 614 c 1
 119 614 l 1
 130 680 161 717 205 717 c 0x1c
 226 717 234 715 275 698 c 0
 300 688 326 681 338 681 c 0x2c
 356 681 368 692 376 717 c 1
EndSplineSet
EndChar

StartChar: scaron
Encoding: 353 353 220
Width: 500
Flags: MW
HStem: -23 77<227.5 286.5 227.5 309> 462 77<211 278.5> 721 20<103 166 166 166 326 390 390 390>
VStem: 47 87<364.5 407.5 364.5 427.5> 372 87<112 155.5>
LayerCount: 2
Fore
SplineSet
438 378 m 1
 350 378 l 1
 348 433 312 462 245 462 c 0
 177 462 134 432 134 383 c 0
 134 346 163 324 231 308 c 2
 311 289 l 2
 415 264 459 221 459 143 c 0
 459 42 375 -23 243 -23 c 0
 106 -23 38 35 34 156 c 1
 122 156 l 1
 127 119 133 104 146 89 c 0
 167 67 205 54 250 54 c 0
 323 54 372 87 372 137 c 0
 372 174 349 195 291 209 c 2
 213 228 l 2
 89 258 47 297 47 379 c 0
 47 476 126 539 248 539 c 0
 369 539 437 481 438 378 c 1
294 591 m 1
 199 591 l 1
 103 741 l 1
 166 741 l 1
 247 645 l 1
 326 741 l 1
 390 741 l 1
 294 591 l 1
EndSplineSet
EndChar

StartChar: uacute
Encoding: 250 250 221
Width: 556
Flags: W
HStem: -23 73<223 270.5> 0 20 504 20<65 148 148 148 399 482 482 482> 720 20<296 409 409 409>
VStem: 65 83<121.5 153 153 524> 399 83<227 524> 407 75<0 73 73 73>
LayerCount: 2
Fore
SplineSet
482 0 m 1x6c
 407 0 l 1
 407 73 l 1x52
 358 4 309 -23 232 -23 c 0
 130 -23 65 33 65 120 c 2
 65 524 l 1
 148 524 l 1
 148 153 l 2
 148 90 190 50 256 50 c 0xac
 343 50 399 120 399 227 c 2
 399 524 l 1
 482 524 l 1
 482 0 l 1x6c
296 740 m 1
 409 740 l 1
 260 592 l 1
 200 592 l 1
 296 740 l 1
EndSplineSet
EndChar

StartChar: ucircumflex
Encoding: 251 251 222
Width: 556
Flags: W
HStem: -23 73<223 270.5> 0 20 504 20<65 148 148 148 399 482 482 482> 721 20<227 322 322 322>
VStem: 65 83<121.5 153 153 524> 399 83<227 524> 407 75<0 73 73 73>
LayerCount: 2
Fore
SplineSet
482 0 m 1x6c
 407 0 l 1
 407 73 l 1x52
 358 4 309 -23 232 -23 c 0
 130 -23 65 33 65 120 c 2
 65 524 l 1
 148 524 l 1
 148 153 l 2
 148 90 190 50 256 50 c 0xac
 343 50 399 120 399 227 c 2
 399 524 l 1
 482 524 l 1
 482 0 l 1x6c
227 741 m 1
 322 741 l 1
 418 591 l 1
 355 591 l 1
 274 687 l 1
 195 591 l 1
 131 591 l 1
 227 741 l 1
EndSplineSet
EndChar

StartChar: udieresis
Encoding: 252 252 223
Width: 556
Flags: W
HStem: -23 73<223 270.5> 0 20 504 20<65 148 148 148 399 482 482 482> 612 103<141 245 141 245 141 303 303 407>
VStem: 65 83<121.5 153 153 524> 141 104<612 715 612 715> 303 104<612 715> 399 83<227 524> 407 75<0 73 73 73>
LayerCount: 2
Fore
SplineSet
482 0 m 1x69
 407 0 l 1
 407 73 l 1x5080
 358 4 309 -23 232 -23 c 0
 130 -23 65 33 65 120 c 2
 65 524 l 1
 148 524 l 1
 148 153 l 2
 148 90 190 50 256 50 c 0xa9
 343 50 399 120 399 227 c 2
 399 524 l 1
 482 524 l 1
 482 0 l 1x69
245 715 m 1x55
 245 612 l 1
 141 612 l 1
 141 715 l 1
 245 715 l 1x55
407 715 m 1x52
 407 612 l 1
 303 612 l 1
 303 715 l 1
 407 715 l 1x52
EndSplineSet
EndChar

StartChar: ugrave
Encoding: 249 249 224
Width: 556
Flags: W
HStem: -23 73<223 270.5> 0 20 504 20<65 148 148 148 399 482 482 482> 720 20<130 243 243 243>
VStem: 65 83<121.5 153 153 524> 399 83<227 524> 407 75<0 73 73 73>
LayerCount: 2
Fore
SplineSet
482 0 m 1x6c
 407 0 l 1
 407 73 l 1x52
 358 4 309 -23 232 -23 c 0
 130 -23 65 33 65 120 c 2
 65 524 l 1
 148 524 l 1
 148 153 l 2
 148 90 190 50 256 50 c 0xac
 343 50 399 120 399 227 c 2
 399 524 l 1
 482 524 l 1
 482 0 l 1x6c
243 740 m 1
 339 592 l 1
 279 592 l 1
 130 740 l 1
 243 740 l 1
EndSplineSet
EndChar

StartChar: yacute
Encoding: 253 253 225
Width: 500
Flags: MW
HStem: -218 82<99 115.5 91 123.5> 504 20<20 109 109 109 388 478 478 478> 720 20<271 384 384 384>
LayerCount: 2
Fore
SplineSet
388 524 m 1
 478 524 l 1
 245 -110 l 2
 229 -152 214 -174 188 -193 c 0
 166 -209 137 -218 110 -218 c 0
 88 -218 71 -214 54 -205 c 1
 54 -130 l 1
 72 -134 84 -136 98 -136 c 0
 133 -136 151 -122 165 -85 c 2
 197 -2 l 1
 20 524 l 1
 109 524 l 1
 243 116 l 1
 388 524 l 1
271 740 m 1
 384 740 l 1
 235 592 l 1
 175 592 l 1
 271 740 l 1
EndSplineSet
EndChar

StartChar: ydieresis
Encoding: 255 255 226
Width: 500
Flags: MW
HStem: -218 82<99 115.5 91 123.5> 504 20<20 109 109 109 388 478 478 478> 612 103<113 217 113 217 113 275 275 379>
VStem: 113 104<612 715 612 715> 275 104<612 715 612 715>
LayerCount: 2
Fore
SplineSet
388 524 m 1
 478 524 l 1
 245 -110 l 2
 229 -152 214 -174 188 -193 c 0
 166 -209 137 -218 110 -218 c 0
 88 -218 71 -214 54 -205 c 1
 54 -130 l 1
 72 -134 84 -136 98 -136 c 0
 133 -136 151 -122 165 -85 c 2
 197 -2 l 1
 20 524 l 1
 109 524 l 1
 243 116 l 1
 388 524 l 1
217 715 m 1
 217 612 l 1
 113 612 l 1
 113 715 l 1
 217 715 l 1
379 715 m 1
 379 612 l 1
 275 612 l 1
 275 715 l 1
 379 715 l 1
EndSplineSet
EndChar

StartChar: zcaron
Encoding: 382 382 227
Width: 500
Flags: MW
HStem: 0 73<132 457 132 457> 451 73<52 344 52 443> 721 20<107 171 171 171 330 394 394 394>
LayerCount: 2
Fore
SplineSet
443 524 m 1
 443 450 l 1
 132 73 l 1
 457 73 l 1
 457 0 l 1
 31 0 l 1
 31 75 l 1
 344 451 l 1
 52 451 l 1
 52 524 l 1
 443 524 l 1
298 591 m 1
 204 591 l 1
 107 741 l 1
 171 741 l 1
 251 645 l 1
 330 741 l 1
 394 741 l 1
 298 591 l 1
EndSplineSet
EndChar

StartChar: nsuperior
Encoding: 8319 8319 228
Width: 365
Flags: W
HStem: 542 43<185.5 213>
VStem: 50 54<533 576 533 576 533 576> 50 59<267 437 267 576> 256 59<267 481 481 499.5>
LayerCount: 2
Fore
SplineSet
50 576 m 1xb0
 104 576 l 1
 104 533 l 1xc0
 131 569 163 585 208 585 c 0
 273 585 315 551 315 500 c 2
 315 267 l 1
 256 267 l 1
 256 481 l 2
 256 518 232 542 194 542 c 0
 142 542 109 501 109 437 c 2
 109 267 l 1
 50 267 l 1
 50 576 l 1xb0
EndSplineSet
EndChar

StartChar: ff
Encoding: 64256 64256 229
Width: 556
Flags: MW
HStem: 0 20 456 68<20 90 20 90 173 260 289 359 442 529> 659 73<211.5 221.5 174.5 234.5 480.5 490.5>
VStem: 90 83<0 456 0 456 524 606> 359 83<0 456 0 456 524 606>
LayerCount: 2
Fore
SplineSet
260 524 m 1
 260 456 l 1
 173 456 l 1
 173 0 l 1
 90 0 l 1
 90 456 l 1
 20 456 l 1
 20 524 l 1
 90 524 l 1
 90 613 l 2
 90 688 136 732 213 732 c 0
 230 732 241 731 260 727 c 1
 260 658 l 1
 241 659 238 659 231 659 c 0
 192 659 173 641 173 606 c 2
 173 524 l 1
 260 524 l 1
529 524 m 1
 529 456 l 1
 442 456 l 1
 442 0 l 1
 359 0 l 1
 359 456 l 1
 289 456 l 1
 289 524 l 1
 359 524 l 1
 359 613 l 2
 359 688 405 732 482 732 c 0
 499 732 510 731 529 727 c 1
 529 658 l 1
 510 659 507 659 500 659 c 0
 461 659 442 641 442 606 c 2
 442 524 l 1
 529 524 l 1
EndSplineSet
EndChar

StartChar: ffi
Encoding: 64259 64259 230
Width: 778
Flags: W
HStem: 0 20 456 68<18 88 18 88 171 258 296 366 449 536> 624 105<622 706 622 706> 659 73<209.5 219.5 172.5 232.5 487.5 497.5>
VStem: 88 83<0 456 0 456 524 606> 366 83<0 456 0 456 524 606> 622 84<624 729> 623 83<0 524 0 524>
LayerCount: 2
Fore
SplineSet
258 524 m 1xdd
 258 456 l 1
 171 456 l 1
 171 0 l 1
 88 0 l 1
 88 456 l 1
 18 456 l 1
 18 524 l 1
 88 524 l 1
 88 613 l 2
 88 688 134 732 211 732 c 0
 228 732 239 731 258 727 c 1
 258 658 l 1
 239 659 236 659 229 659 c 0
 190 659 171 641 171 606 c 2
 171 524 l 1
 258 524 l 1xdd
536 524 m 1
 536 456 l 1
 449 456 l 1
 449 0 l 1
 366 0 l 1
 366 456 l 1
 296 456 l 1
 296 524 l 1
 366 524 l 1
 366 613 l 2
 366 688 412 732 489 732 c 0
 506 732 517 731 536 727 c 1
 536 658 l 1
 517 659 514 659 507 659 c 0
 468 659 449 641 449 606 c 2
 449 524 l 1
 536 524 l 1
706 524 m 1
 706 0 l 1
 623 0 l 1
 623 524 l 1
 706 524 l 1
706 729 m 1x22
 706 624 l 1
 622 624 l 1
 622 729 l 1
 706 729 l 1x22
EndSplineSet
EndChar

StartChar: ffl
Encoding: 64260 64260 231
Width: 778
Flags: W
HStem: 0 20 456 68<18 88 18 88 171 258 296 366 449 536> 659 73<209.5 219.5 172.5 232.5 487.5 497.5> 709 20<624 708 708 708>
VStem: 88 83<0 456 0 456 524 606> 366 83<0 456 0 456 524 606> 624 84<0 729 0 729>
LayerCount: 2
Fore
SplineSet
258 524 m 1xee
 258 456 l 1
 171 456 l 1
 171 0 l 1
 88 0 l 1
 88 456 l 1
 18 456 l 1
 18 524 l 1
 88 524 l 1
 88 613 l 2
 88 688 134 732 211 732 c 0
 228 732 239 731 258 727 c 1
 258 658 l 1
 239 659 236 659 229 659 c 0
 190 659 171 641 171 606 c 2
 171 524 l 1
 258 524 l 1xee
536 524 m 1
 536 456 l 1
 449 456 l 1
 449 0 l 1
 366 0 l 1
 366 456 l 1
 296 456 l 1
 296 524 l 1
 366 524 l 1
 366 613 l 2
 366 688 412 732 489 732 c 0
 506 732 517 731 536 727 c 1
 536 658 l 1
 517 659 514 659 507 659 c 0
 468 659 449 641 449 606 c 2
 449 524 l 1
 536 524 l 1
708 729 m 1x9e
 708 0 l 1
 624 0 l 1
 624 729 l 1
 708 729 l 1x9e
EndSplineSet
EndChar

StartChar: oneeighth
Encoding: 8539 8539 232
Width: 834
Flags: W
HStem: -20 20 -14 47<627 680 627 696> 201 44<631.5 676 631.5 680.5> 378 47<631.5 676.5>
VStem: 154 62<284 580 580 580> 511 54<92 141.5> 526 54<292 331.5 291 345.5> 728 54<292 331> 743 54<91.5 141.5 79 142>
LayerCount: 2
Fore
SplineSet
590 709 m 1x9b
 648 709 l 1
 196 -20 l 1
 138 -20 l 1
 590 709 l 1x9b
154 580 m 1
 55 580 l 1
 55 626 l 1
 70 627 l 1
 142 634 156 645 173 709 c 1
 216 709 l 1
 216 284 l 1
 154 284 l 1
 154 580 l 1
724 224 m 1
 773 200 797 165 797 118 c 0
 797 40 738 -14 654 -14 c 0
 569 -14 511 40 511 118 c 0x7480
 511 165 535 200 584 224 c 1
 540 251 526 272 526 312 c 0
 526 379 579 425 654 425 c 0
 730 425 782 379 782 312 c 0
 782 272 768 251 724 224 c 1
654 378 m 0
 609 378 580 352 580 311 c 0
 580 271 609 245 654 245 c 0
 698 245 728 271 728 310 c 0x73
 728 352 699 378 654 378 c 0
654 201 m 0
 601 201 565 167 565 117 c 0
 565 67 601 33 653 33 c 0
 707 33 743 66 743 117 c 0x7480
 743 167 707 201 654 201 c 0
EndSplineSet
EndChar

StartChar: threeeighths
Encoding: 8540 8540 233
Width: 834
Flags: W
HStem: -20 20 -14 47<629 682 629 698> 201 44<633.5 678 633.5 682.5> 270 53<158 216.5 158 233> 378 47<633.5 678.5> 656 53<171.5 212>
VStem: 264 63<569.5 609.5> 278 63<378.5 428> 513 54<92 141.5> 528 54<292 331.5 291 345.5> 730 54<292 331> 745 54<91.5 141.5 79 142>
LayerCount: 2
Fore
SplineSet
619 709 m 1x8c60
 677 709 l 1
 225 -20 l 1
 167 -20 l 1
 619 709 l 1x8c60
726 224 m 1
 775 200 799 165 799 118 c 0
 799 40 740 -14 656 -14 c 0
 571 -14 513 40 513 118 c 0x7c90
 513 165 537 200 586 224 c 1
 542 251 528 272 528 312 c 0
 528 379 581 425 656 425 c 0
 732 425 784 379 784 312 c 0
 784 272 770 251 726 224 c 1
656 378 m 0
 611 378 582 352 582 311 c 0
 582 271 611 245 656 245 c 0
 700 245 730 271 730 310 c 0x7c60
 730 352 701 378 656 378 c 0
656 201 m 0
 603 201 567 167 567 117 c 0
 567 67 603 33 655 33 c 0
 709 33 745 66 745 117 c 0x7d90
 745 167 709 201 656 201 c 0
154 476 m 1
 154 527 l 1
 240 527 264 541 264 588 c 0
 264 631 236 656 188 656 c 0
 155 656 128 643 116 621 c 0
 109 608 107 595 107 567 c 1
 44 567 l 1
 46 661 94 709 188 709 c 0
 274 709 327 664 327 589 c 0x7e
 327 550 307 521 270 504 c 1
 318 488 341 455 341 404 c 0
 341 323 280 270 186 270 c 0
 90 270 35 321 35 412 c 1
 97 412 l 1
 100 350 128 323 188 323 c 0
 245 323 278 353 278 404 c 0
 278 452 248 476 186 476 c 2
 163 476 l 1
 154 476 l 1
EndSplineSet
EndChar

StartChar: fiveeighths
Encoding: 8541 8541 234
Width: 834
Flags: W
HStem: -20 20 -14 47<628 681.5 628 698> 201 44<633.5 678 633.5 682.5> 286 47<154 205.5 154 221> 378 47<633 678> 533 47<171 205.5> 673 52<124 302 124 124>
VStem: 270 54<400.5 462.5> 513 54<92 141.5> 528 54<292 331.5 291 345.5> 730 54<292 331> 745 54<91.5 141.5 79 142>
LayerCount: 2
Fore
SplineSet
619 709 m 1x8860
 677 709 l 1
 225 -20 l 1
 167 -20 l 1
 619 709 l 1x8860
725 224 m 1
 775 200 799 165 799 118 c 0
 799 40 740 -14 656 -14 c 0
 571 -14 513 40 513 118 c 0x7e90
 513 165 537 200 586 224 c 1
 541 251 528 272 528 312 c 0
 528 379 580 425 656 425 c 0
 731 425 784 379 784 312 c 0
 784 272 770 251 725 224 c 1
655 378 m 0
 611 378 582 352 582 311 c 0
 582 271 611 245 656 245 c 0
 700 245 730 271 730 310 c 0x7e60
 730 352 701 378 655 378 c 0
656 201 m 0
 602 201 567 167 567 117 c 0
 567 67 602 33 654 33 c 0
 709 33 745 66 745 117 c 0x7f90
 745 167 709 201 656 201 c 0
302 725 m 1
 302 673 l 1
 124 673 l 1
 108 555 l 1
 132 572 156 580 186 580 c 0
 268 580 324 523 324 438 c 0
 324 348 264 286 178 286 c 0
 130 286 87 305 63 337 c 0
 50 353 44 369 37 404 c 1
 90 404 l 1
 102 356 131 333 177 333 c 0
 234 333 270 370 270 431 c 0
 270 494 234 533 177 533 c 0
 144 533 123 523 99 494 c 1
 50 494 l 1
 82 725 l 1
 302 725 l 1
EndSplineSet
EndChar

StartChar: seveneighths
Encoding: 8542 8542 235
Width: 834
Flags: W
HStem: -20 20 -14 47<620 673 620 689> 201 44<624.5 669 624.5 673.5> 378 47<624.5 669.5> 673 52<55 284 55 339>
VStem: 504 54<92 141.5> 519 54<292 331.5 291 345.5> 721 54<292 331> 736 54<91.5 141.5 79 142>
LayerCount: 2
Fore
SplineSet
557 709 m 1x93
 615 709 l 1
 163 -20 l 1
 105 -20 l 1
 557 709 l 1x93
717 224 m 1
 766 200 790 165 790 118 c 0
 790 40 731 -14 647 -14 c 0
 562 -14 504 40 504 118 c 0x7c80
 504 165 528 200 577 224 c 1
 533 251 519 272 519 312 c 0
 519 379 572 425 647 425 c 0
 723 425 775 379 775 312 c 0
 775 272 761 251 717 224 c 1
647 378 m 0
 602 378 573 352 573 311 c 0
 573 271 602 245 647 245 c 0
 691 245 721 271 721 310 c 0x7b
 721 352 692 378 647 378 c 0
647 201 m 0
 594 201 558 167 558 117 c 0
 558 67 594 33 646 33 c 0
 700 33 736 66 736 117 c 0x7c80
 736 167 700 201 647 201 c 0
339 725 m 1
 339 681 l 1
 243 553 190 436 166 300 c 1
 110 300 l 1
 142 440 183 528 284 673 c 1
 55 673 l 1
 55 725 l 1
 339 725 l 1
EndSplineSet
EndChar

StartChar: zerosuperior
Encoding: 8304 8304 236
Width: 333
Flags: MW
HStem: 270 50<134.5 193 134.5 213> 656 53<135 193>
VStem: 15 63<433 545.5 433 561.5> 251 63<432.5 546>
LayerCount: 2
Fore
SplineSet
164 709 m 0
 263 709 314 634 314 486 c 0
 314 346 261 270 165 270 c 0
 67 270 15 346 15 490 c 0
 15 633 67 709 164 709 c 0
164 656 m 0
 106 656 78 602 78 489 c 0
 78 377 106 320 163 320 c 0
 223 320 251 374 251 491 c 0
 251 601 222 656 164 656 c 0
EndSplineSet
EndChar

StartChar: foursuperior
Encoding: 8308 8308 237
Width: 333
Flags: MW
HStem: 384 53<64 193 64 193 255 322>
VStem: 193 62<284 384 284 384 437 607 607 607>
LayerCount: 2
Fore
SplineSet
193 384 m 1
 5 384 l 1
 5 443 l 1
 209 709 l 1
 255 709 l 1
 255 437 l 1
 322 437 l 1
 322 384 l 1
 255 384 l 1
 255 284 l 1
 193 284 l 1
 193 384 l 1
193 437 m 1
 193 607 l 1
 64 437 l 1
 193 437 l 1
EndSplineSet
EndChar

StartChar: fivesuperior
Encoding: 8309 8309 238
Width: 333
Flags: MW
HStem: 270 53<136 189.5 136 207> 513 53<155 189> 651 58<107 294 107 107>
VStem: 255 63<388 446>
LayerCount: 2
Fore
SplineSet
294 709 m 1
 294 651 l 1
 107 651 l 1
 92 545 l 1
 115 559 140 566 170 566 c 0
 257 566 318 507 318 423 c 0
 318 334 253 270 161 270 c 0
 109 270 64 289 37 321 c 0
 23 339 16 356 9 393 c 1
 71 393 l 1
 84 345 112 323 160 323 c 0
 219 323 255 359 255 417 c 0
 255 475 218 513 160 513 c 0
 126 513 105 503 79 474 c 1
 23 474 l 1
 57 709 l 1
 294 709 l 1
EndSplineSet
EndChar

StartChar: sixsuperior
Encoding: 8310 8310 239
Width: 333
Flags: MW
HStem: 270 53<144.5 194.5 144.5 212> 498 53<157 197> 656 53<153 193.5>
VStem: 15 67<409 439 388 516.5> 255 63<385.5 437.5>
LayerCount: 2
Fore
SplineSet
309 593 m 1
 247 593 l 1
 238 634 213 656 174 656 c 0
 116 656 78 599 78 510 c 1
 111 541 136 551 178 551 c 0
 259 551 318 494 318 415 c 0
 318 331 255 270 169 270 c 0
 67 270 15 340 15 478 c 0
 15 555 28 607 56 648 c 0
 83 687 128 709 178 709 c 0
 250 709 297 667 309 593 c 1
171 498 m 0
 118 498 82 464 82 414 c 0
 82 362 119 323 170 323 c 0
 219 323 255 360 255 411 c 0
 255 464 223 498 171 498 c 0
EndSplineSet
EndChar

StartChar: sevensuperior
Encoding: 8311 8311 240
Width: 333
Flags: MW
HStem: 651 58<18 256 18 323>
LayerCount: 2
Fore
SplineSet
323 709 m 1
 323 661 l 1
 222 535 165 419 141 284 c 1
 75 284 l 1
 109 425 151 510 256 651 c 1
 18 651 l 1
 18 709 l 1
 323 709 l 1
EndSplineSet
EndChar

StartChar: eightsuperior
Encoding: 8312 8312 241
Width: 333
Flags: W
HStem: 270 53<136.5 190.5 136.5 209.5> 481 50<141 186.5 141 191> 656 53<141 187>
VStem: 11 63<378.5 425.5 378.5 427> 26 63<574.5 612 574 628> 239 63<574.5 612.5> 254 63<378 425.5>
LayerCount: 2
Fore
SplineSet
245 508 m 1xec
 292 485 317 449 317 403 c 0
 317 324 255 270 164 270 c 0
 73 270 11 324 11 404 c 0xf2
 11 450 36 485 83 508 c 1
 41 532 26 555 26 594 c 0
 26 662 83 709 164 709 c 0
 245 709 302 662 302 594 c 0
 302 555 286 532 245 508 c 1xec
164 656 m 0
 118 656 89 631 89 593 c 0
 89 555 118 531 164 531 c 0
 209 531 239 555 239 593 c 0
 239 632 210 656 164 656 c 0
164 481 m 0xf2
 110 481 74 449 74 402 c 0
 74 355 110 323 163 323 c 0
 218 323 254 354 254 402 c 0
 254 449 218 481 164 481 c 0xf2
EndSplineSet
EndChar

StartChar: ninesuperior
Encoding: 8313 8313 242
Width: 333
Flags: MW
HStem: 270 53<136 177> 428 53<133 173> 656 53<135.5 185.5>
VStem: 12 63<541 593.5 541 606> 248 67<540.5 571 462.5 591>
LayerCount: 2
Fore
SplineSet
21 386 m 1
 83 386 l 1
 91 345 117 323 155 323 c 0
 215 323 250 377 251 470 c 1
 217 438 194 428 152 428 c 0
 70 428 12 484 12 564 c 0
 12 648 75 709 162 709 c 0
 264 709 315 640 315 502 c 0
 315 423 303 372 274 331 c 0
 246 292 202 270 152 270 c 0
 80 270 32 313 21 386 c 1
160 656 m 0
 111 656 75 619 75 568 c 0
 75 514 107 481 159 481 c 0
 211 481 248 516 248 565 c 0
 248 617 211 656 160 656 c 0
EndSplineSet
EndChar

StartChar: IJ
Encoding: 306 306 243
Width: 735
Flags: W
HStem: -23 78<416 469.5 416 513.5> 0 20 709 20<102 196 196 196 563 656 656 656>
VStem: 102 94<0 729 0 729> 247 95<170 187 187 234 144.5 234> 563 93<216 729>
LayerCount: 2
Fore
SplineSet
196 729 m 1x7c
 196 0 l 1
 102 0 l 1
 102 729 l 1
 196 729 l 1x7c
563 729 m 1
 656 729 l 1
 656 182 l 2
 656 56 577 -23 450 -23 c 0
 325 -23 247 52 247 170 c 2
 247 234 l 1
 342 234 l 1
 342 187 l 2
 342 102 381 55 451 55 c 0xbc
 488 55 522 72 540 100 c 0
 557 125 563 158 563 216 c 2
 563 729 l 1
EndSplineSet
EndChar

StartChar: Abreve
Encoding: 258 258 244
Width: 667
Flags: MW
HStem: 0 20 219 78<216 448 216 474 193 448> 709 20<277 397 397 397> 796 69<307.5 363 307.5 380.5>
LayerCount: 2
Fore
SplineSet
474 219 m 1
 193 219 l 1
 116 0 l 1
 17 0 l 1
 277 729 l 1
 397 729 l 1
 653 0 l 1
 549 0 l 1
 474 219 l 1
448 297 m 1
 336 629 l 1
 216 297 l 1
 448 297 l 1
185 931 m 1
 243 931 l 1
 248 887 279 865 336 865 c 0
 390 865 422 889 427 931 c 1
 486 931 l 1
 479 842 427 796 334 796 c 0
 277 796 232 816 206 853 c 0
 191 873 186 892 185 931 c 1
EndSplineSet
EndChar

StartChar: Aogonek
Encoding: 260 260 245
Width: 667
Flags: MW
HStem: -205 45<605 625.5> 0 20 219 78<216 448 216 474 193 448> 709 20<277 397 397 397>
VStem: 484 73<-123 -87>
LayerCount: 2
Fore
SplineSet
474 219 m 1
 193 219 l 1
 116 0 l 1
 17 0 l 1
 277 729 l 1
 397 729 l 1
 653 0 l 1
 587 -31 557 -64 557 -105 c 0
 557 -141 581 -160 628 -160 c 0
 653 -160 673 -157 692 -150 c 1
 692 -195 l 1
 668 -200 635 -205 616 -205 c 0
 594 -205 569 -200 547 -192 c 0
 505 -176 484 -150 484 -111 c 0
 484 -63 514 -31 585 0 c 1
 549 0 l 1
 474 219 l 1
448 297 m 1
 336 629 l 1
 216 297 l 1
 448 297 l 1
EndSplineSet
EndChar

StartChar: Cacute
Encoding: 262 262 246
Width: 722
Flags: MW
HStem: -23 82<329.5 417 305.5 466> 659 82<332 399.5>
VStem: 48 93<296 415>
LayerCount: 2
Fore
SplineSet
662 503 m 1
 567 503 l 1
 556 558 541 588 514 613 c 0
 484 642 429 659 370 659 c 0
 228 659 141 544 141 357 c 0
 141 175 233 59 378 59 c 0
 456 59 518 93 548 153 c 0
 563 182 573 216 581 266 c 1
 677 266 l 1
 655 73 555 -23 377 -23 c 0
 282 -23 210 4 153 62 c 1
 85 133 48 236 48 356 c 0
 48 474 84 578 150 650 c 0
 204 710 283 741 381 741 c 0
 541 741 633 663 662 503 c 1
406 939 m 1
 519 939 l 1
 370 791 l 1
 310 791 l 1
 406 939 l 1
EndSplineSet
EndChar

StartChar: Ccaron
Encoding: 268 268 247
Width: 722
Flags: MW
HStem: -23 82<329.5 417 305.5 466> 659 82<332 399.5>
VStem: 48 93<296 415>
LayerCount: 2
Fore
SplineSet
662 503 m 1
 567 503 l 1
 556 558 541 588 514 613 c 0
 484 642 429 659 370 659 c 0
 228 659 141 544 141 357 c 0
 141 175 233 59 378 59 c 0
 456 59 518 93 548 153 c 0
 563 182 573 216 581 266 c 1
 677 266 l 1
 655 73 555 -23 377 -23 c 0
 282 -23 210 4 153 62 c 1
 85 133 48 236 48 356 c 0
 48 474 84 578 150 650 c 0
 204 710 283 741 381 741 c 0
 541 741 633 663 662 503 c 1
428 790 m 1
 334 790 l 1
 237 940 l 1
 301 940 l 1
 381 844 l 1
 460 940 l 1
 524 940 l 1
 428 790 l 1
EndSplineSet
EndChar

StartChar: Cdotaccent
Encoding: 266 266 248
Width: 722
Flags: MW
HStem: -23 82<329.5 417 305.5 466> 659 82<332 399.5> 811 104<330 434 330 434>
VStem: 48 93<296 415> 330 104<811 915 811 915>
LayerCount: 2
Fore
SplineSet
662 503 m 1
 567 503 l 1
 556 558 541 588 514 613 c 0
 484 642 429 659 370 659 c 0
 228 659 141 544 141 357 c 0
 141 175 233 59 378 59 c 0
 456 59 518 93 548 153 c 0
 563 182 573 216 581 266 c 1
 677 266 l 1
 655 73 555 -23 377 -23 c 0
 282 -23 210 4 153 62 c 1
 85 133 48 236 48 356 c 0
 48 474 84 578 150 650 c 0
 204 710 283 741 381 741 c 0
 541 741 633 663 662 503 c 1
434 915 m 1
 434 811 l 1
 330 811 l 1
 330 915 l 1
 434 915 l 1
EndSplineSet
EndChar

StartChar: Dcaron
Encoding: 270 270 249
Width: 722
Flags: MW
HStem: 0 82<182 354 354 370> 647 82<182 354 182 182>
VStem: 89 93<82 82 82 647> 574 93<271.5 457>
LayerCount: 2
Fore
SplineSet
89 0 m 1
 89 729 l 1
 370 729 l 2
 555 729 667 591 667 365 c 0
 667 138 554 0 370 0 c 2
 89 0 l 1
182 82 m 1
 354 82 l 2
 498 82 574 179 574 364 c 0
 574 550 498 647 354 647 c 2
 182 647 l 1
 182 82 l 1
386 790 m 1
 291 790 l 1
 195 940 l 1
 258 940 l 1
 338 844 l 1
 417 940 l 1
 482 940 l 1
 386 790 l 1
EndSplineSet
EndChar

StartChar: Dcroat
Encoding: 272 272 250
Width: 722
Flags: MW
HStem: 0 82<182 355 355 371> 339 67<20 89 20 89 182 353> 647 82<182 355 182 182>
VStem: 89 93<82 339 82 339 82 339 406 647> 574 93<272 412.5>
LayerCount: 2
Fore
SplineSet
89 339 m 1
 20 339 l 1
 20 406 l 1
 89 406 l 1
 89 729 l 1
 371 729 l 2
 555 729 667 591 667 365 c 0
 667 138 555 0 371 0 c 2
 89 0 l 1
 89 339 l 1
182 339 m 1
 182 82 l 1
 355 82 l 2
 498 82 574 179 574 365 c 0
 574 460 557 525 519 574 c 0
 482 622 425 647 355 647 c 2
 182 647 l 1
 182 406 l 1
 353 406 l 1
 353 339 l 1
 182 339 l 1
EndSplineSet
EndChar

StartChar: Ecaron
Encoding: 282 282 251
Width: 667
Flags: MW
HStem: 0 82<183 613 183 613> 332 82<183 580 183 580> 647 82<183 595 183 183>
VStem: 90 93<82 332 82 414 414 647>
LayerCount: 2
Fore
SplineSet
183 332 m 1
 183 82 l 1
 613 82 l 1
 613 0 l 1
 90 0 l 1
 90 729 l 1
 595 729 l 1
 595 647 l 1
 183 647 l 1
 183 414 l 1
 580 414 l 1
 580 332 l 1
 183 332 l 1
392 790 m 1
 298 790 l 1
 201 940 l 1
 265 940 l 1
 345 844 l 1
 424 940 l 1
 488 940 l 1
 392 790 l 1
EndSplineSet
EndChar

StartChar: Edotaccent
Encoding: 278 278 252
Width: 667
Flags: MW
HStem: 0 82<183 613 183 613> 332 82<183 580 183 580> 647 82<183 595 183 183> 811 104<293 397 293 397>
VStem: 90 93<82 332 82 414 414 647> 293 104<811 915 811 915>
LayerCount: 2
Fore
SplineSet
183 332 m 1
 183 82 l 1
 613 82 l 1
 613 0 l 1
 90 0 l 1
 90 729 l 1
 595 729 l 1
 595 647 l 1
 183 647 l 1
 183 414 l 1
 580 414 l 1
 580 332 l 1
 183 332 l 1
397 915 m 1
 397 811 l 1
 293 811 l 1
 293 915 l 1
 397 915 l 1
EndSplineSet
EndChar

StartChar: Eogonek
Encoding: 280 280 253
Width: 667
Flags: MW
HStem: -205 45<566 586> 0 82<183 545 183 613> 332 82<183 580 183 580> 647 82<183 595 183 183>
VStem: 90 93<82 332 82 414 414 647> 444 73<-123.5 -87>
LayerCount: 2
Fore
SplineSet
183 332 m 1
 183 82 l 1
 613 82 l 1
 613 0 l 1
 548 -30 517 -65 517 -106 c 0
 517 -141 542 -160 589 -160 c 0
 614 -160 633 -157 652 -150 c 1
 652 -195 l 1
 629 -200 595 -205 577 -205 c 0
 555 -205 530 -200 507 -192 c 0
 465 -176 444 -150 444 -111 c 0
 444 -63 474 -30 545 0 c 1
 90 0 l 1
 90 729 l 1
 595 729 l 1
 595 647 l 1
 183 647 l 1
 183 414 l 1
 580 414 l 1
 580 332 l 1
 183 332 l 1
EndSplineSet
EndChar

StartChar: Gbreve
Encoding: 286 286 254
Width: 778
Flags: MW
HStem: -23 82<361 427.5> 303 82<405 627 405 709> 659 82<349.5 448.5> 796 69<372 427.5 372 444.5>
VStem: 44 93<317 422.5>
LayerCount: 2
Fore
SplineSet
709 385 m 1
 709 -4 l 1
 650 -4 l 1
 627 93 l 1
 555 14 477 -23 378 -23 c 0
 181 -23 44 133 44 357 c 0
 44 488 91 601 176 671 c 0
 233 718 305 741 394 741 c 0
 561 741 673 656 699 508 c 1
 604 508 l 1
 584 602 504 659 393 659 c 0
 239 659 137 541 137 362 c 0
 137 272 166 185 214 133 c 0
 257 86 324 59 398 59 c 0
 531 59 627 153 627 283 c 2
 627 303 l 1
 405 303 l 1
 405 385 l 1
 709 385 l 1
249 931 m 1
 308 931 l 1
 313 887 343 865 401 865 c 0
 454 865 487 889 492 931 c 1
 550 931 l 1
 543 842 491 796 398 796 c 0
 342 796 297 816 270 853 c 0
 256 873 251 892 249 931 c 1
EndSplineSet
EndChar

StartChar: Gdotaccent
Encoding: 288 288 255
Width: 778
Flags: MW
HStem: -23 82<361 427.5> 303 82<405 627 405 709> 659 82<349.5 448.5> 811 104<338 442 338 442>
VStem: 44 93<317 422.5> 338 104<811 915 811 915>
LayerCount: 2
Fore
SplineSet
709 385 m 1
 709 -4 l 1
 650 -4 l 1
 627 93 l 1
 555 14 477 -23 378 -23 c 0
 181 -23 44 133 44 357 c 0
 44 488 91 601 176 671 c 0
 233 718 305 741 394 741 c 0
 561 741 673 656 699 508 c 1
 604 508 l 1
 584 602 504 659 393 659 c 0
 239 659 137 541 137 362 c 0
 137 272 166 185 214 133 c 0
 257 86 324 59 398 59 c 0
 531 59 627 153 627 283 c 2
 627 303 l 1
 405 303 l 1
 405 385 l 1
 709 385 l 1
442 915 m 1
 442 811 l 1
 338 811 l 1
 338 915 l 1
 442 915 l 1
EndSplineSet
EndChar

StartChar: Idotaccent
Encoding: 304 304 256
Width: 278
Flags: W
HStem: 0 20 709 20<101 195 195 195> 811 104<92 196 92 196>
VStem: 92 104<811 915 811 915> 101 94<0 729 0 729>
LayerCount: 2
Fore
SplineSet
195 729 m 1xe8
 195 0 l 1
 101 0 l 1
 101 729 l 1
 195 729 l 1xe8
196 915 m 1xf0
 196 811 l 1
 92 811 l 1
 92 915 l 1
 196 915 l 1xf0
EndSplineSet
EndChar

StartChar: Lacute
Encoding: 313 313 257
Width: 556
Flags: MW
HStem: 0 82<173 533 173 533> 709 20<80 173 173 173>
VStem: 80 93<82 729 82 729 82 729>
LayerCount: 2
Fore
SplineSet
173 729 m 1
 173 82 l 1
 533 82 l 1
 533 0 l 1
 80 0 l 1
 80 729 l 1
 173 729 l 1
166 939 m 1
 279 939 l 1
 130 791 l 1
 70 791 l 1
 166 939 l 1
EndSplineSet
EndChar

StartChar: Lcaron
Encoding: 317 317 258
Width: 556
Flags: MW
HStem: 0 82<173 533 173 533> 629 100<273 328>
VStem: 80 93<82 729 82 729 82 729>
LayerCount: 2
Fore
SplineSet
173 729 m 1
 173 82 l 1
 533 82 l 1
 533 0 l 1
 80 0 l 1
 80 729 l 1
 173 729 l 1
273 729 m 1
 373 729 l 1
 373 626 l 2
 373 556 335 505 281 505 c 2
 273 505 l 1
 273 543 l 1
 311 543 330 574 328 629 c 1
 273 629 l 1
 273 729 l 1
EndSplineSet
EndChar

StartChar: Nacute
Encoding: 323 323 259
Width: 722
Flags: MW
HStem: 0 20 709 20<76 177 177 177 558 646 646 646>
VStem: 76 88<0 591 0 729> 558 88<133 729 0 729>
LayerCount: 2
Fore
SplineSet
646 729 m 1
 646 0 l 1
 541 0 l 1
 164 591 l 1
 164 0 l 1
 76 0 l 1
 76 729 l 1
 177 729 l 1
 558 133 l 1
 558 729 l 1
 646 729 l 1
390 939 m 1
 502 939 l 1
 353 791 l 1
 293 791 l 1
 390 939 l 1
EndSplineSet
EndChar

StartChar: Ncaron
Encoding: 327 327 260
Width: 722
Flags: MW
HStem: 0 20 709 20<76 177 177 177 558 646 646 646>
VStem: 76 88<0 591 0 729> 558 88<133 729 0 729>
LayerCount: 2
Fore
SplineSet
646 729 m 1
 646 0 l 1
 541 0 l 1
 164 591 l 1
 164 0 l 1
 76 0 l 1
 76 729 l 1
 177 729 l 1
 558 133 l 1
 558 729 l 1
 646 729 l 1
409 790 m 1
 314 790 l 1
 218 940 l 1
 281 940 l 1
 361 844 l 1
 440 940 l 1
 505 940 l 1
 409 790 l 1
EndSplineSet
EndChar

StartChar: Ohungarumlaut
Encoding: 336 336 261
Width: 778
Flags: MW
HStem: -23 82<312 434.5> 659 82<311.5 468>
VStem: 38 93<269 449 269 473> 649 93<293.5 447.5>
LayerCount: 2
Fore
SplineSet
389 741 m 0
 603 741 742 588 742 353 c 0
 742 234 695 121 616 54 c 0
 557 4 479 -23 390 -23 c 0
 179 -23 38 130 38 359 c 0
 38 587 180 741 389 741 c 0
389 659 m 0
 234 659 131 539 131 359 c 0
 131 179 234 59 390 59 c 0
 544 59 649 179 649 355 c 0
 649 540 547 659 389 659 c 0
364 939 m 1
 477 939 l 1
 328 789 l 1
 268 789 l 1
 364 939 l 1
538 939 m 1
 651 939 l 1
 502 789 l 1
 442 789 l 1
 538 939 l 1
EndSplineSet
EndChar

StartChar: Racute
Encoding: 340 340 262
Width: 722
Flags: MW
HStem: 0 20 314 82<186 411 186 411 411 426> 647 82<186 411 186 186>
VStem: 93 93<0 314 396 647> 554 97<492 543.5>
LayerCount: 2
Fore
SplineSet
186 314 m 1
 186 0 l 1
 93 0 l 1
 93 729 l 1
 429 729 l 2
 573 729 651 660 651 534 c 0
 651 450 618 401 536 360 c 1
 615 326 634 290 635 170 c 1
 637 73 644 47 679 23 c 1
 679 0 l 1
 566 0 l 1
 553 30 545 74 545 119 c 2
 546 184 l 1
 546 274 509 314 426 314 c 2
 186 314 l 1
186 396 m 1
 411 396 l 2
 510 396 554 435 554 522 c 0
 554 565 541 598 516 619 c 0
 493 639 463 647 411 647 c 2
 186 647 l 1
 186 396 l 1
383 939 m 1
 496 939 l 1
 347 791 l 1
 287 791 l 1
 383 939 l 1
EndSplineSet
EndChar

StartChar: Rcaron
Encoding: 344 344 263
Width: 722
Flags: MW
HStem: 0 20 314 82<186 411 186 411 411 426> 647 82<186 411 186 186>
VStem: 93 93<0 314 396 647> 554 97<492 543.5>
LayerCount: 2
Fore
SplineSet
186 314 m 1
 186 0 l 1
 93 0 l 1
 93 729 l 1
 429 729 l 2
 573 729 651 660 651 534 c 0
 651 450 618 401 536 360 c 1
 615 326 634 290 635 170 c 1
 637 73 644 47 679 23 c 1
 679 0 l 1
 566 0 l 1
 553 30 545 74 545 119 c 2
 546 184 l 1
 546 274 509 314 426 314 c 2
 186 314 l 1
186 396 m 1
 411 396 l 2
 510 396 554 435 554 522 c 0
 554 565 541 598 516 619 c 0
 493 639 463 647 411 647 c 2
 186 647 l 1
 186 396 l 1
404 790 m 1
 309 790 l 1
 213 940 l 1
 276 940 l 1
 356 844 l 1
 435 940 l 1
 500 940 l 1
 404 790 l 1
EndSplineSet
EndChar

StartChar: Sacute
Encoding: 346 346 264
Width: 667
Flags: MW
HStem: -23 82<302 371.5 302 379.5> 663 78<277 384>
VStem: 70 93<512 577 512 593> 528 93<171.5 219.5>
LayerCount: 2
Fore
SplineSet
596 515 m 1
 508 515 l 1
 507 611 442 663 326 663 c 0
 228 663 163 614 163 540 c 0
 163 484 195 456 283 432 c 2
 466 383 l 2
 565 356 621 290 621 200 c 0
 621 137 590 72 541 33 c 1
 494 -3 423 -23 336 -23 c 0
 225 -23 141 12 91 81 c 0
 62 121 49 165 48 232 c 1
 136 232 l 1
 135 187 147 152 174 120 c 0
 209 78 262 59 342 59 c 0
 401 59 447 69 476 90 c 0
 507 112 528 152 528 191 c 0
 528 248 487 285 394 309 c 2
 213 357 l 2
 117 382 70 438 70 527 c 0
 70 659 169 741 329 741 c 0
 452 741 537 697 577 613 c 0
 593 579 596 565 596 515 c 1
362 939 m 1
 475 939 l 1
 326 791 l 1
 266 791 l 1
 362 939 l 1
EndSplineSet
EndChar

StartChar: Scedilla
Encoding: 350 350 265
Width: 667
Flags: MW
HStem: -214 41<288 316.5 288 345> -91 150<305 323.5> 663 78<280 387>
VStem: 73 93<512 577 512 593> 355 75<-141 -116.5> 531 93<171.5 219.5>
LayerCount: 2
Fore
SplineSet
338 -24 m 1
 323 -56 l 1
 336 -54 342 -54 351 -54 c 0
 401 -54 430 -78 430 -121 c 0
 430 -179 383 -214 307 -214 c 0
 268 -214 245 -208 182 -180 c 1
 203 -140 l 1
 212 -144 l 1
 258 -167 275 -173 301 -173 c 0
 332 -173 355 -154 355 -128 c 0
 355 -105 338 -91 309 -91 c 0
 298 -91 290 -93 278 -98 c 1
 267 -92 l 1
 298 -23 l 1
 292 -21 288 -20 287 -20 c 2
 243 -13 l 1
 122 13 48 108 51 232 c 1
 139 232 l 1
 138 187 150 152 177 120 c 0
 212 78 265 59 345 59 c 0
 404 59 450 69 479 90 c 0
 510 112 531 152 531 191 c 0
 531 248 490 285 397 309 c 2
 216 357 l 2
 120 382 73 438 73 527 c 0
 73 659 172 741 332 741 c 0
 455 741 540 697 580 613 c 0
 596 579 599 565 599 515 c 1
 511 515 l 1
 510 611 445 663 329 663 c 0
 231 663 166 614 166 540 c 0
 166 484 198 456 286 432 c 2
 469 383 l 2
 568 356 624 290 624 200 c 0
 624 114 571 35 490 2 c 0
 449 -14 409 -21 338 -24 c 1
EndSplineSet
EndChar

StartChar: Tcaron
Encoding: 356 356 266
Width: 611
Flags: MW
HStem: 0 20 647 82<21 261 21 593 354 593 354 354>
VStem: 261 93<0 647 0 647>
LayerCount: 2
Fore
SplineSet
354 647 m 1
 354 0 l 1
 261 0 l 1
 261 647 l 1
 21 647 l 1
 21 729 l 1
 593 729 l 1
 593 647 l 1
 354 647 l 1
355 790 m 1
 260 790 l 1
 164 940 l 1
 227 940 l 1
 307 844 l 1
 386 940 l 1
 451 940 l 1
 355 790 l 1
EndSplineSet
EndChar

StartChar: Uring
Encoding: 366 366 267
Width: 722
Flags: MW
HStem: -23 82<337 422.5 337 449.5> 709 20<85 178 178 178 552 645 645 645> 778 44<353 377 353 389> 909 44<353 377.5>
VStem: 85 93<217 729> 277 44<853.5 877 853.5 890> 409 44<853.5 877.5> 552 93<217 729>
LayerCount: 2
Fore
SplineSet
552 729 m 1
 645 729 l 1
 645 217 l 2
 645 71 535 -23 364 -23 c 0
 191 -23 85 69 85 217 c 2
 85 729 l 1
 178 729 l 1
 178 217 l 2
 178 162 195 125 231 97 c 1
 266 72 310 59 364 59 c 0
 481 59 552 119 552 217 c 2
 552 729 l 1
365 953 m 0
 414 953 453 914 453 865 c 0
 453 817 413 778 365 778 c 0
 316 778 277 817 277 866 c 0
 277 914 317 953 365 953 c 0
365 909 m 0
 341 909 321 889 321 865 c 0
 321 842 341 822 365 822 c 0
 389 822 409 842 409 865 c 0
 409 890 390 909 365 909 c 0
EndSplineSet
EndChar

StartChar: Uhungarumlaut
Encoding: 368 368 268
Width: 722
Flags: MW
HStem: -23 82<337 422.5 337 449.5> 709 20<85 178 178 178 552 645 645 645>
VStem: 85 93<217 729> 552 93<217 729>
LayerCount: 2
Fore
SplineSet
552 729 m 1
 645 729 l 1
 645 217 l 2
 645 71 535 -23 364 -23 c 0
 191 -23 85 69 85 217 c 2
 85 729 l 1
 178 729 l 1
 178 217 l 2
 178 162 195 125 231 97 c 1
 266 72 310 59 364 59 c 0
 481 59 552 119 552 217 c 2
 552 729 l 1
329 939 m 1
 442 939 l 1
 293 789 l 1
 233 789 l 1
 329 939 l 1
503 939 m 1
 616 939 l 1
 467 789 l 1
 407 789 l 1
 503 939 l 1
EndSplineSet
EndChar

StartChar: Zacute
Encoding: 377 377 269
Width: 611
Flags: MW
HStem: 0 82<145 583 28 28> 647 82<56 466 56 581>
LayerCount: 2
Fore
SplineSet
581 729 m 1
 581 645 l 1
 145 82 l 1
 583 82 l 1
 583 0 l 1
 28 0 l 1
 28 82 l 1
 466 647 l 1
 56 647 l 1
 56 729 l 1
 581 729 l 1
347 939 m 1
 460 939 l 1
 311 791 l 1
 251 791 l 1
 347 939 l 1
EndSplineSet
EndChar

StartChar: Zdotaccent
Encoding: 379 379 270
Width: 611
Flags: MW
HStem: 0 82<145 583 28 28> 647 82<56 466 56 581> 811 104<267 371 267 371>
VStem: 267 104<811 915 811 915>
LayerCount: 2
Fore
SplineSet
581 729 m 1
 581 645 l 1
 145 82 l 1
 583 82 l 1
 583 0 l 1
 28 0 l 1
 28 82 l 1
 466 647 l 1
 56 647 l 1
 56 729 l 1
 581 729 l 1
371 915 m 1
 371 811 l 1
 267 811 l 1
 267 915 l 1
 371 915 l 1
EndSplineSet
EndChar

StartChar: Amacron
Encoding: 256 256 271
Width: 667
Flags: MW
HStem: 0 20 219 78<216 448 216 474 193 448> 709 20<277 397 397 397> 830 70<198 472 198 472>
LayerCount: 2
Fore
SplineSet
474 219 m 1
 193 219 l 1
 116 0 l 1
 17 0 l 1
 277 729 l 1
 397 729 l 1
 653 0 l 1
 549 0 l 1
 474 219 l 1
448 297 m 1
 336 629 l 1
 216 297 l 1
 448 297 l 1
472 900 m 1
 472 830 l 1
 198 830 l 1
 198 900 l 1
 472 900 l 1
EndSplineSet
EndChar

StartChar: Tcommaaccent
Encoding: 354 354 272
Width: 611
Flags: MW
HStem: -160 100<260 315 260 360> 0 20 647 82<21 261 21 593 354 593 354 354>
VStem: 261 93<0 647 0 647>
LayerCount: 2
Fore
SplineSet
354 647 m 1
 354 0 l 1
 261 0 l 1
 261 647 l 1
 21 647 l 1
 21 729 l 1
 593 729 l 1
 593 647 l 1
 354 647 l 1
260 -60 m 1
 360 -60 l 1
 360 -163 l 1
 359 -239 320 -286 260 -284 c 1
 260 -246 l 1
 298 -246 317 -215 315 -160 c 1
 260 -160 l 1
 260 -60 l 1
EndSplineSet
EndChar

StartChar: uni021A
Encoding: 538 538 273
Width: 611
Flags: MW
HStem: -160 100<260 315 260 360> 0 20 647 82<21 261 21 593 354 593 354 354>
VStem: 261 93<0 647 0 647>
LayerCount: 2
Fore
SplineSet
354 647 m 1
 354 0 l 1
 261 0 l 1
 261 647 l 1
 21 647 l 1
 21 729 l 1
 593 729 l 1
 593 647 l 1
 354 647 l 1
260 -60 m 1
 360 -60 l 1
 360 -163 l 1
 359 -239 320 -286 260 -284 c 1
 260 -246 l 1
 298 -246 317 -215 315 -160 c 1
 260 -160 l 1
 260 -60 l 1
EndSplineSet
EndChar

StartChar: Ccircumflex
Encoding: 264 264 274
Width: 722
Flags: MW
HStem: -23 82<329.5 417 305.5 466> 659 82<332 399.5>
VStem: 48 93<296 415>
LayerCount: 2
Fore
SplineSet
662 503 m 1
 567 503 l 1
 556 558 541 588 514 613 c 0
 484 642 429 659 370 659 c 0
 228 659 141 544 141 357 c 0
 141 175 233 59 378 59 c 0
 456 59 518 93 548 153 c 0
 563 182 573 216 581 266 c 1
 677 266 l 1
 655 73 555 -23 377 -23 c 0
 282 -23 210 4 153 62 c 1
 85 133 48 236 48 356 c 0
 48 474 84 578 150 650 c 0
 204 710 283 741 381 741 c 0
 541 741 633 663 662 503 c 1
326 940 m 1
 421 940 l 1
 517 790 l 1
 454 790 l 1
 373 886 l 1
 294 790 l 1
 230 790 l 1
 326 940 l 1
EndSplineSet
EndChar

StartChar: Wcircumflex
Encoding: 372 372 275
Width: 944
Flags: MW
HStem: 0 20 709 20<22 126 126 126 425 525 525 525 825 929 929 929>
LayerCount: 2
Fore
SplineSet
744 0 m 1
 642 0 l 1
 474 599 l 1
 311 0 l 1
 209 0 l 1
 22 729 l 1
 126 729 l 1
 263 137 l 1
 425 729 l 1
 525 729 l 1
 691 137 l 1
 825 729 l 1
 929 729 l 1
 744 0 l 1
421 940 m 1
 516 940 l 1
 612 790 l 1
 549 790 l 1
 469 886 l 1
 390 790 l 1
 325 790 l 1
 421 940 l 1
EndSplineSet
EndChar

StartChar: Wdieresis
Encoding: 7812 7812 276
Width: 944
Flags: MW
HStem: 0 20 709 20<22 126 126 126 425 525 525 525 825 929 929 929> 811 103<339 443 339 443 339 501 501 605>
VStem: 339 104<811 914 811 914> 501 104<811 914 811 914>
LayerCount: 2
Fore
SplineSet
744 0 m 1
 642 0 l 1
 474 599 l 1
 311 0 l 1
 209 0 l 1
 22 729 l 1
 126 729 l 1
 263 137 l 1
 425 729 l 1
 525 729 l 1
 691 137 l 1
 825 729 l 1
 929 729 l 1
 744 0 l 1
443 914 m 1
 443 811 l 1
 339 811 l 1
 339 914 l 1
 443 914 l 1
605 914 m 1
 605 811 l 1
 501 811 l 1
 501 914 l 1
 605 914 l 1
EndSplineSet
EndChar

StartChar: Ycircumflex
Encoding: 374 374 277
Width: 667
Flags: MW
HStem: 0 20 709 20<13 128 128 128 550 661 661 661>
VStem: 294 93<0 286 0 286>
LayerCount: 2
Fore
SplineSet
387 286 m 1
 387 0 l 1
 294 0 l 1
 294 286 l 1
 13 729 l 1
 128 729 l 1
 342 374 l 1
 550 729 l 1
 661 729 l 1
 387 286 l 1
297 940 m 1
 391 940 l 1
 488 790 l 1
 424 790 l 1
 344 886 l 1
 265 790 l 1
 201 790 l 1
 297 940 l 1
EndSplineSet
EndChar

StartChar: Hbar
Encoding: 294 294 278
Width: 722
Flags: W
HStem: 0 20 332 82<177 551 177 177> 502 70<8 83 8 83 176 551 644 719> 709 20<83 176 176 176 551 644 644 644>
VStem: 83 93<414 502 414 502 414 502 572 729> 83 94<0 332 0 502> 551 93<0 332 332 332 414 502 0 502 572 729>
LayerCount: 2
Fore
SplineSet
83 502 m 1xf8
 8 502 l 1
 8 572 l 1
 83 572 l 1
 83 729 l 1xf4
 176 729 l 1
 176 572 l 1xf8
 551 572 l 1
 551 729 l 1
 644 729 l 1
 644 572 l 1
 719 572 l 1
 719 502 l 1
 644 502 l 1
 644 0 l 1
 551 0 l 1
 551 332 l 1
 177 332 l 1
 177 0 l 1xf6
 83 0 l 1
 83 502 l 1xf8
176 502 m 1xfa
 176 414 l 1
 551 414 l 1
 551 502 l 1
 176 502 l 1xfa
EndSplineSet
EndChar

StartChar: Emacron
Encoding: 274 274 279
Width: 667
Flags: MW
HStem: 0 82<183 613 183 613> 332 82<183 580 183 580> 647 82<183 595 183 183> 830 70<208 482 208 482>
VStem: 90 93<82 332 82 414 414 647>
LayerCount: 2
Fore
SplineSet
183 332 m 1
 183 82 l 1
 613 82 l 1
 613 0 l 1
 90 0 l 1
 90 729 l 1
 595 729 l 1
 595 647 l 1
 183 647 l 1
 183 414 l 1
 580 414 l 1
 580 332 l 1
 183 332 l 1
482 900 m 1
 482 830 l 1
 208 830 l 1
 208 900 l 1
 482 900 l 1
EndSplineSet
EndChar

StartChar: Gcircumflex
Encoding: 284 284 280
Width: 778
Flags: MW
HStem: -23 82<361 427.5> 303 82<405 627 405 709> 659 82<349.5 448.5>
VStem: 44 93<317 422.5>
LayerCount: 2
Fore
SplineSet
709 385 m 1
 709 -4 l 1
 650 -4 l 1
 627 93 l 1
 555 14 477 -23 378 -23 c 0
 181 -23 44 133 44 357 c 0
 44 488 91 601 176 671 c 0
 233 718 305 741 394 741 c 0
 561 741 673 656 699 508 c 1
 604 508 l 1
 584 602 504 659 393 659 c 0
 239 659 137 541 137 362 c 0
 137 272 166 185 214 133 c 0
 257 86 324 59 398 59 c 0
 531 59 627 153 627 283 c 2
 627 303 l 1
 405 303 l 1
 405 385 l 1
 709 385 l 1
338 940 m 1
 433 940 l 1
 529 790 l 1
 466 790 l 1
 386 886 l 1
 307 790 l 1
 242 790 l 1
 338 940 l 1
EndSplineSet
EndChar

StartChar: Hcircumflex
Encoding: 292 292 281
Width: 722
Flags: W
HStem: 0 20 332 82<177 551 177 177> 709 20<83 176 176 176 551 644 644 644>
VStem: 83 93<414 729 414 729 414 729> 83 94<0 332 0 729> 551 93<0 332 332 332 414 729 0 729>
LayerCount: 2
Fore
SplineSet
551 332 m 1xf4
 177 332 l 1
 177 0 l 1
 83 0 l 1
 83 729 l 1xec
 176 729 l 1
 176 414 l 1
 551 414 l 1
 551 729 l 1
 644 729 l 1
 644 0 l 1
 551 0 l 1
 551 332 l 1xf4
324 940 m 1
 419 940 l 1
 515 790 l 1
 452 790 l 1
 371 886 l 1
 292 790 l 1
 228 790 l 1
 324 940 l 1
EndSplineSet
EndChar

StartChar: Imacron
Encoding: 298 298 282
Width: 278
Flags: W
HStem: 0 20 709 20<100 194 194 194> 830 70<20 274 20 274>
VStem: 20 254<830 900 830 900> 100 94<0 729 0 729>
LayerCount: 2
Fore
SplineSet
194 729 m 1xe8
 194 0 l 1
 100 0 l 1
 100 729 l 1
 194 729 l 1xe8
274 900 m 1xf0
 274 830 l 1
 20 830 l 1
 20 900 l 1
 274 900 l 1xf0
EndSplineSet
EndChar

StartChar: Iogonek
Encoding: 302 302 283
Width: 278
Flags: MW
HStem: -204 45<173.5 184> 0 20 709 20<100 194 194 194>
VStem: 66 72<-122.5 -94>
LayerCount: 2
Fore
SplineSet
194 729 m 1
 194 0 l 1
 157 -33 138 -71 138 -107 c 0
 138 -138 158 -159 189 -159 c 0
 203 -159 216 -156 234 -150 c 1
 234 -195 l 1
 216 -200 193 -204 175 -204 c 0
 110 -204 66 -169 66 -116 c 0
 66 -72 86 -41 143 0 c 1
 100 0 l 1
 100 729 l 1
 194 729 l 1
EndSplineSet
EndChar

StartChar: Jcircumflex
Encoding: 308 308 284
Width: 500
Flags: MW
HStem: -23 78<186 239.5 186 283.5> 709 20<333 426 426 426>
VStem: 17 95<170 187 187 234 144.5 234> 333 93<216 729>
LayerCount: 2
Fore
SplineSet
333 729 m 1
 426 729 l 1
 426 182 l 2
 426 56 347 -23 220 -23 c 0
 95 -23 17 52 17 170 c 2
 17 234 l 1
 112 234 l 1
 112 187 l 2
 112 102 151 55 221 55 c 0
 258 55 292 72 310 100 c 0
 327 125 333 158 333 216 c 2
 333 729 l 1
319 940 m 1
 413 940 l 1
 510 790 l 1
 446 790 l 1
 366 886 l 1
 287 790 l 1
 223 790 l 1
 319 940 l 1
EndSplineSet
EndChar

StartChar: Kcommaaccent
Encoding: 310 310 285
Width: 667
Flags: MW
HStem: -160 100<299 354 299 399> 0 20 709 20<79 172 172 172 535 655 655 655>
VStem: 79 93<0 255 360 729>
LayerCount: 2
Fore
SplineSet
172 255 m 1
 172 0 l 1
 79 0 l 1
 79 729 l 1
 172 729 l 1
 172 360 l 1
 535 729 l 1
 655 729 l 1
 358 432 l 1
 658 0 l 1
 548 0 l 1
 291 374 l 1
 172 255 l 1
299 -60 m 1
 399 -60 l 1
 399 -163 l 1
 398 -239 359 -286 299 -284 c 1
 299 -246 l 1
 337 -246 356 -215 354 -160 c 1
 299 -160 l 1
 299 -60 l 1
EndSplineSet
EndChar

StartChar: Lcommaaccent
Encoding: 315 315 286
Width: 556
Flags: MW
HStem: -160 100<257 312 257 357> 0 82<173 533 173 533> 709 20<80 173 173 173>
VStem: 80 93<82 729 82 729 82 729>
LayerCount: 2
Fore
SplineSet
173 729 m 1
 173 82 l 1
 533 82 l 1
 533 0 l 1
 80 0 l 1
 80 729 l 1
 173 729 l 1
257 -60 m 1
 357 -60 l 1
 357 -163 l 1
 356 -239 317 -286 257 -284 c 1
 257 -246 l 1
 295 -246 314 -215 312 -160 c 1
 257 -160 l 1
 257 -60 l 1
EndSplineSet
EndChar

StartChar: Ncommaaccent
Encoding: 325 325 287
Width: 722
Flags: MW
HStem: -160 100<298 353 298 398> 0 20 709 20<76 177 177 177 558 646 646 646>
VStem: 76 88<0 591 0 729> 558 88<133 729 0 729>
LayerCount: 2
Fore
SplineSet
646 729 m 1
 646 0 l 1
 541 0 l 1
 164 591 l 1
 164 0 l 1
 76 0 l 1
 76 729 l 1
 177 729 l 1
 558 133 l 1
 558 729 l 1
 646 729 l 1
298 -60 m 1
 398 -60 l 1
 398 -163 l 1
 397 -239 358 -286 298 -284 c 1
 298 -246 l 1
 336 -246 355 -215 353 -160 c 1
 298 -160 l 1
 298 -60 l 1
EndSplineSet
EndChar

StartChar: Omacron
Encoding: 332 332 288
Width: 778
Flags: MW
HStem: -23 82<312 434.5> 659 82<311.5 468> 830 70<253 527 253 527>
VStem: 38 93<269 449 269 473> 649 93<293.5 447.5>
LayerCount: 2
Fore
SplineSet
389 741 m 0
 603 741 742 588 742 353 c 0
 742 234 695 121 616 54 c 0
 557 4 479 -23 390 -23 c 0
 179 -23 38 130 38 359 c 0
 38 587 180 741 389 741 c 0
389 659 m 0
 234 659 131 539 131 359 c 0
 131 179 234 59 390 59 c 0
 544 59 649 179 649 355 c 0
 649 540 547 659 389 659 c 0
527 900 m 1
 527 830 l 1
 253 830 l 1
 253 900 l 1
 527 900 l 1
EndSplineSet
EndChar

StartChar: Rcommaaccent
Encoding: 342 342 289
Width: 722
Flags: MW
HStem: -160 100<319 374 319 419> 0 20 314 82<186 411 186 411 411 426> 647 82<186 411 186 186>
VStem: 93 93<0 314 396 647> 554 97<492 543.5>
LayerCount: 2
Fore
SplineSet
186 314 m 1
 186 0 l 1
 93 0 l 1
 93 729 l 1
 429 729 l 2
 573 729 651 660 651 534 c 0
 651 450 618 401 536 360 c 1
 615 326 634 290 635 170 c 1
 637 73 644 47 679 23 c 1
 679 0 l 1
 566 0 l 1
 553 30 545 74 545 119 c 2
 546 184 l 1
 546 274 509 314 426 314 c 2
 186 314 l 1
186 396 m 1
 411 396 l 2
 510 396 554 435 554 522 c 0
 554 565 541 598 516 619 c 0
 493 639 463 647 411 647 c 2
 186 647 l 1
 186 396 l 1
319 -60 m 1
 419 -60 l 1
 419 -163 l 1
 418 -239 379 -286 319 -284 c 1
 319 -246 l 1
 357 -246 376 -215 374 -160 c 1
 319 -160 l 1
 319 -60 l 1
EndSplineSet
EndChar

StartChar: Scircumflex
Encoding: 348 348 290
Width: 667
Flags: MW
HStem: -23 82<302 371.5 302 379.5> 663 78<277 384>
VStem: 70 93<512 577 512 593> 528 93<171.5 219.5>
LayerCount: 2
Fore
SplineSet
596 515 m 1
 508 515 l 1
 507 611 442 663 326 663 c 0
 228 663 163 614 163 540 c 0
 163 484 195 456 283 432 c 2
 466 383 l 2
 565 356 621 290 621 200 c 0
 621 137 590 72 541 33 c 1
 494 -3 423 -23 336 -23 c 0
 225 -23 141 12 91 81 c 0
 62 121 49 165 48 232 c 1
 136 232 l 1
 135 187 147 152 174 120 c 0
 209 78 262 59 342 59 c 0
 401 59 447 69 476 90 c 0
 507 112 528 152 528 191 c 0
 528 248 487 285 394 309 c 2
 213 357 l 2
 117 382 70 438 70 527 c 0
 70 659 169 741 329 741 c 0
 452 741 537 697 577 613 c 0
 593 579 596 565 596 515 c 1
283 940 m 1
 378 940 l 1
 474 790 l 1
 411 790 l 1
 330 886 l 1
 251 790 l 1
 187 790 l 1
 283 940 l 1
EndSplineSet
EndChar

StartChar: Gcommaaccent
Encoding: 290 290 291
Width: 778
Flags: MW
HStem: -160 100<337 392 337 437> -23 82<361 427.5> 303 82<405 627 405 709> 659 82<349.5 448.5>
VStem: 44 93<317 422.5>
LayerCount: 2
Fore
SplineSet
709 385 m 1
 709 -4 l 1
 650 -4 l 1
 627 93 l 1
 555 14 477 -23 378 -23 c 0
 181 -23 44 133 44 357 c 0
 44 488 91 601 176 671 c 0
 233 718 305 741 394 741 c 0
 561 741 673 656 699 508 c 1
 604 508 l 1
 584 602 504 659 393 659 c 0
 239 659 137 541 137 362 c 0
 137 272 166 185 214 133 c 0
 257 86 324 59 398 59 c 0
 531 59 627 153 627 283 c 2
 627 303 l 1
 405 303 l 1
 405 385 l 1
 709 385 l 1
337 -60 m 1
 437 -60 l 1
 437 -163 l 1
 436 -239 397 -286 337 -284 c 1
 337 -246 l 1
 375 -246 394 -215 392 -160 c 1
 337 -160 l 1
 337 -60 l 1
EndSplineSet
EndChar

StartChar: Umacron
Encoding: 362 362 292
Width: 722
Flags: MW
HStem: -23 82<337 422.5 337 449.5> 709 20<85 178 178 178 552 645 645 645> 830 70<228 502 228 502>
VStem: 85 93<217 729> 552 93<217 729>
LayerCount: 2
Fore
SplineSet
552 729 m 1
 645 729 l 1
 645 217 l 2
 645 71 535 -23 364 -23 c 0
 191 -23 85 69 85 217 c 2
 85 729 l 1
 178 729 l 1
 178 217 l 2
 178 162 195 125 231 97 c 1
 266 72 310 59 364 59 c 0
 481 59 552 119 552 217 c 2
 552 729 l 1
502 900 m 1
 502 830 l 1
 228 830 l 1
 228 900 l 1
 502 900 l 1
EndSplineSet
EndChar

StartChar: Uogonek
Encoding: 370 370 293
Width: 722
Flags: W
HStem: -205 45<516 536> -23 82<337 384> 0 20 709 20<85 178 178 178 552 645 645 645>
VStem: 85 93<217 729> 394 73<-123.5 -91.5> 552 93<217 729 217 729>
LayerCount: 2
Fore
SplineSet
602 -150 m 1xbe
 602 -195 l 1
 578 -200 545 -205 527 -205 c 0
 505 -205 480 -200 457 -192 c 0
 415 -176 394 -150 394 -112 c 0
 394 -71 415 -42 467 -10 c 1
 423 -20 402 -23 366 -23 c 0
 192 -23 85 68 85 217 c 2
 85 729 l 1
 178 729 l 1
 178 217 l 2
 178 162 195 125 231 97 c 1
 266 72 310 59 364 59 c 0xde
 481 59 552 119 552 217 c 2
 552 729 l 1
 645 729 l 1
 645 217 l 1
 642 128 616 77 532 0 c 1
 488 -42 467 -76 467 -106 c 0
 467 -141 492 -160 539 -160 c 0
 564 -160 584 -157 602 -150 c 1xbe
EndSplineSet
EndChar

StartChar: Ebreve
Encoding: 276 276 294
Width: 667
Flags: MW
HStem: 0 82<183 613 183 613> 332 82<183 580 183 580> 647 82<183 595 183 183> 796 69<317 372.5 317 389.5>
VStem: 90 93<82 332 82 414 414 647>
LayerCount: 2
Fore
SplineSet
183 332 m 1
 183 82 l 1
 613 82 l 1
 613 0 l 1
 90 0 l 1
 90 729 l 1
 595 729 l 1
 595 647 l 1
 183 647 l 1
 183 414 l 1
 580 414 l 1
 580 332 l 1
 183 332 l 1
194 931 m 1
 253 931 l 1
 258 887 288 865 346 865 c 0
 399 865 432 889 437 931 c 1
 495 931 l 1
 488 842 436 796 343 796 c 0
 287 796 242 816 215 853 c 0
 201 873 196 892 194 931 c 1
EndSplineSet
EndChar

StartChar: Ibreve
Encoding: 300 300 295
Width: 278
Flags: MW
HStem: 0 20 709 20<94 188 188 188> 796 69<110.5 166 110.5 183.5>
VStem: 94 94<0 729 0 729>
LayerCount: 2
Fore
SplineSet
188 729 m 1
 188 0 l 1
 94 0 l 1
 94 729 l 1
 188 729 l 1
-12 931 m 1
 47 931 l 1
 52 887 82 865 139 865 c 0
 193 865 226 889 230 931 c 1
 289 931 l 1
 282 842 230 796 137 796 c 0
 80 796 36 816 9 853 c 0
 -6 873 -11 892 -12 931 c 1
EndSplineSet
EndChar

StartChar: ij
Encoding: 307 307 296
Width: 444
Flags: W
HStem: -218 73<213.5 238 209 267> 0 20 504 20<88 171 171 171 280 363 363 363> 624 105<87 171 87 171 280 363>
VStem: 87 84<624 729> 88 83<0 524 0 524> 280 83<-76 524 624 729>
LayerCount: 2
Fore
SplineSet
171 524 m 1xf4
 171 0 l 1
 88 0 l 1
 88 524 l 1
 171 524 l 1xf4
171 729 m 1xfa
 171 624 l 1
 87 624 l 1
 87 729 l 1
 171 729 l 1xfa
280 524 m 1
 363 524 l 1
 363 -109 l 2
 363 -181 314 -218 220 -218 c 0
 207 -218 202 -217 192 -215 c 1
 192 -144 l 1
 203 -145 206 -145 212 -145 c 0
 264 -145 280 -128 280 -76 c 2
 280 524 l 1
363 729 m 1
 363 624 l 1
 280 624 l 1
 280 729 l 1
 363 729 l 1
EndSplineSet
EndChar

StartChar: longs
Encoding: 383 383 297
Width: 222
Flags: MW
HStem: 0 20 456 68<-10 60 -10 60> 659 73<181 191.5 144.5 200>
VStem: 60 83<0 456 456 456 524 606>
LayerCount: 2
Fore
SplineSet
143 0 m 1
 60 0 l 1
 60 456 l 1
 -10 456 l 1
 -10 524 l 1
 60 524 l 1
 60 613 l 2
 60 688 106 732 183 732 c 0
 200 732 211 731 230 727 c 1
 230 658 l 1
 200 659 l 1
 162 659 143 641 143 606 c 2
 143 0 l 1
EndSplineSet
EndChar

StartChar: abreve
Encoding: 259 259 298
Width: 556
Flags: MW
HStem: -23 73<199.5 247> 462 77<236.5 310> 597 69<247.5 303 247.5 320.5> 712 20<125 183 183 183 367 426 426 426>
VStem: 42 87<107.5 161.5 107.5 166> 389 83<165 259 259 259 362 384 384 396>
LayerCount: 2
Fore
SplineSet
535 49 m 1
 535 -14 l 1
 507 -21 496 -23 478 -23 c 0
 424 -23 398 0 392 54 c 1
 333 0 280 -23 214 -23 c 0
 108 -23 42 37 42 132 c 0
 42 200 73 246 134 272 c 0
 166 285 184 289 302 304 c 0
 370 313 388 326 389 362 c 1
 389 384 l 2
 389 434 348 462 272 462 c 0
 194 462 156 433 149 369 c 1
 65 369 l 1
 67 421 77 451 101 478 c 0
 137 517 198 539 275 539 c 0
 404 539 472 489 472 396 c 2
 472 88 l 2
 472 62 488 47 517 47 c 0
 522 47 526 47 535 49 c 1
389 165 m 2
 389 259 l 1
 361 246 344 242 255 230 c 0
 165 217 129 189 129 134 c 0
 129 81 167 50 232 50 c 0
 281 50 322 66 356 97 c 0
 381 120 389 137 389 165 c 2
125 732 m 1
 183 732 l 1
 189 688 219 666 276 666 c 0
 330 666 362 690 367 732 c 1
 426 732 l 1
 419 643 367 597 274 597 c 0
 217 597 172 617 146 654 c 0
 131 674 126 693 125 732 c 1
EndSplineSet
EndChar

StartChar: aogonek
Encoding: 261 261 299
Width: 556
Flags: W
HStem: -205 45<515 533.5> -23 73<199.5 248.5> 462 77<238 311>
VStem: 43 86<107.5 161.5 107.5 166> 388 72<-123 -94> 389 84<165 259 259 259>
LayerCount: 2
Fore
SplineSet
536 49 m 1xf4
 536 -14 l 1
 488 -33 460 -66 460 -105 c 0
 460 -141 485 -160 532 -160 c 0
 557 -160 578 -157 596 -150 c 1
 596 -195 l 1
 570 -201 542 -205 525 -205 c 0
 505 -205 473 -200 451 -192 c 0
 411 -179 388 -150 388 -113 c 0xe8
 388 -75 407 -50 456 -23 c 1
 418 -16 397 10 393 54 c 1
 335 0 282 -23 215 -23 c 0
 109 -23 43 37 43 132 c 0
 43 200 74 246 136 272 c 0
 167 285 185 289 304 304 c 0
 371 313 390 326 390 362 c 2
 390 384 l 2
 390 434 349 462 273 462 c 0
 195 462 157 433 151 369 c 1
 67 369 l 1
 69 421 79 451 102 478 c 1
 138 517 200 539 276 539 c 0
 405 539 473 490 473 396 c 2
 473 88 l 2
 473 62 489 47 518 47 c 0
 523 47 527 47 536 49 c 1xf4
389 165 m 2xf4
 389 259 l 1
 361 246 344 242 255 230 c 0
 165 217 129 189 129 134 c 0
 129 81 167 50 232 50 c 0
 281 50 322 66 356 97 c 0
 381 120 389 137 389 165 c 2xf4
EndSplineSet
EndChar

StartChar: cacute
Encoding: 263 263 300
Width: 500
Flags: MW
HStem: -23 77<219 300.5 219 325.5> 462 77<217.5 298> 720 20<299 411 411 411>
VStem: 31 87<191 318.5 191 340>
LayerCount: 2
Fore
SplineSet
471 348 m 1
 387 348 l 1
 377 421 333 462 263 462 c 0
 172 462 118 384 118 253 c 0
 118 129 173 54 265 54 c 0
 336 54 379 96 393 180 c 1
 477 180 l 1
 467 52 388 -23 263 -23 c 0
 121 -23 31 84 31 253 c 0
 31 427 122 539 264 539 c 0
 337 539 400 510 436 461 c 1
 456 432 467 399 471 348 c 1
299 740 m 1
 411 740 l 1
 262 592 l 1
 202 592 l 1
 299 740 l 1
EndSplineSet
EndChar

StartChar: ccaron
Encoding: 269 269 301
Width: 500
Flags: MW
HStem: -23 77<219 300.5 219 325.5> 462 77<217.5 298> 721 20<122 186 186 186 345 409 409 409>
VStem: 31 87<191 318.5 191 340>
LayerCount: 2
Fore
SplineSet
471 348 m 1
 387 348 l 1
 377 421 333 462 263 462 c 0
 172 462 118 384 118 253 c 0
 118 129 173 54 265 54 c 0
 336 54 379 96 393 180 c 1
 477 180 l 1
 467 52 388 -23 263 -23 c 0
 121 -23 31 84 31 253 c 0
 31 427 122 539 264 539 c 0
 337 539 400 510 436 461 c 1
 456 432 467 399 471 348 c 1
313 591 m 1
 219 591 l 1
 122 741 l 1
 186 741 l 1
 266 645 l 1
 345 741 l 1
 409 741 l 1
 313 591 l 1
EndSplineSet
EndChar

StartChar: cdotaccent
Encoding: 267 267 302
Width: 500
Flags: MW
HStem: -23 77<219 300.5 219 325.5> 462 77<217.5 298> 612 104<214 318 214 318>
VStem: 31 87<191 318.5 191 340> 214 104<612 716 612 716>
LayerCount: 2
Fore
SplineSet
471 348 m 1
 387 348 l 1
 377 421 333 462 263 462 c 0
 172 462 118 384 118 253 c 0
 118 129 173 54 265 54 c 0
 336 54 379 96 393 180 c 1
 477 180 l 1
 467 52 388 -23 263 -23 c 0
 121 -23 31 84 31 253 c 0
 31 427 122 539 264 539 c 0
 337 539 400 510 436 461 c 1
 456 432 467 399 471 348 c 1
318 716 m 1
 318 612 l 1
 214 612 l 1
 214 716 l 1
 318 716 l 1
EndSplineSet
EndChar

StartChar: dcaron
Encoding: 271 271 303
Width: 643
Flags: W
HStem: -23 78<220 290> 0 20 461 78<219.5 286 183 310> 629 100<548 603 412 548>
VStem: 26 87<197 319 197 346.5> 412 83<195.5 319 458 729 0 729>
LayerCount: 2
Fore
SplineSet
495 729 m 1xbc
 495 0 l 1
 421 0 l 1x7c
 421 69 l 1
 376 4 326 -23 254 -23 c 0
 112 -23 26 86 26 263 c 0
 26 430 115 539 251 539 c 0
 321 539 377 511 412 458 c 1
 412 729 l 1
 495 729 l 1xbc
265 461 m 0
 174 461 113 380 113 258 c 0
 113 136 174 55 266 55 c 0xbc
 354 55 412 135 412 256 c 0
 412 382 355 461 265 461 c 0
548 729 m 1
 648 729 l 1
 648 626 l 2
 648 556 610 505 556 505 c 2
 548 505 l 1
 548 543 l 1
 586 543 605 574 603 629 c 1
 548 629 l 1
 548 729 l 1
EndSplineSet
EndChar

StartChar: dcroat
Encoding: 273 273 304
Width: 556
Flags: W
HStem: -23 82<219 285.5> 0 20 457 82<219 284 182.5 309.5> 600 53<261 411 261 411 494 557> 709 20<411 494 494 494>
VStem: 26 87<198 318 198 347> 411 83<196.5 317.5 461 600 0 600 653 729>
LayerCount: 2
Fore
SplineSet
494 653 m 1xbe
 557 653 l 1
 557 600 l 1
 494 600 l 1
 494 0 l 1
 420 0 l 1x76
 420 59 l 1
 372 3 319 -23 252 -23 c 0
 116 -23 26 91 26 264 c 0
 26 430 115 539 250 539 c 0
 318 539 367 515 411 461 c 1
 411 600 l 1
 261 600 l 1
 261 653 l 1
 411 653 l 1
 411 729 l 1
 494 729 l 1
 494 653 l 1xbe
265 457 m 0
 173 457 113 378 113 258 c 0
 113 138 173 59 265 59 c 0xa6
 353 59 411 137 411 256 c 0
 411 379 354 457 265 457 c 0
EndSplineSet
EndChar

StartChar: ecaron
Encoding: 283 283 305
Width: 556
Flags: MW
HStem: -23 77<254.5 314.5 254.5 338> 234 68<129 423 129 513 127 423> 462 77<237 321.5> 721 20<143 206 206 206 366 430 430 430>
LayerCount: 2
Fore
SplineSet
513 234 m 1
 127 234 l 1
 128 182 135 152 155 122 c 0
 183 78 228 54 281 54 c 0
 348 54 395 90 418 159 c 1
 502 159 l 1
 481 45 398 -23 278 -23 c 0
 130 -23 40 82 40 255 c 0
 40 428 134 539 280 539 c 0
 378 539 458 487 492 401 c 0
 507 362 513 314 513 234 c 1
129 302 m 1
 423 302 l 1
 423 396 364 462 279 462 c 0
 195 462 136 399 129 302 c 1
334 591 m 1
 239 591 l 1
 143 741 l 1
 206 741 l 1
 287 645 l 1
 366 741 l 1
 430 741 l 1
 334 591 l 1
EndSplineSet
EndChar

StartChar: edotaccent
Encoding: 279 279 306
Width: 556
Flags: MW
HStem: -23 77<254.5 314.5 254.5 338> 234 68<129 423 129 513 127 423> 462 77<237 321.5> 612 104<233 337 233 337>
VStem: 233 104<612 716 612 716>
LayerCount: 2
Fore
SplineSet
513 234 m 1
 127 234 l 1
 128 182 135 152 155 122 c 0
 183 78 228 54 281 54 c 0
 348 54 395 90 418 159 c 1
 502 159 l 1
 481 45 398 -23 278 -23 c 0
 130 -23 40 82 40 255 c 0
 40 428 134 539 280 539 c 0
 378 539 458 487 492 401 c 0
 507 362 513 314 513 234 c 1
129 302 m 1
 423 302 l 1
 423 396 364 462 279 462 c 0
 195 462 136 399 129 302 c 1
337 716 m 1
 337 612 l 1
 233 612 l 1
 233 716 l 1
 337 716 l 1
EndSplineSet
EndChar

StartChar: eogonek
Encoding: 281 281 307
Width: 556
Flags: MW
HStem: -204 44<400.5 429.5> -23 76<255 291> 234 68<130 424 130 513 127 424> 462 77<237 321.5>
VStem: 279 72<-125 -104.5>
LayerCount: 2
Fore
SplineSet
513 234 m 1
 127 234 l 1
 128 182 136 152 155 121 c 1
 184 78 229 53 281 53 c 0
 348 53 396 90 419 159 c 1
 503 159 l 1
 492 104 468 61 422 15 c 1
 368 -42 351 -71 351 -109 c 0
 351 -141 378 -160 423 -160 c 0
 448 -160 468 -157 487 -150 c 1
 487 -195 l 1
 460 -201 441 -204 418 -204 c 0
 334 -204 279 -170 279 -116 c 0
 279 -93 290 -67 307 -48 c 0
 314 -41 321 -35 347 -15 c 1
 317 -21 303 -23 279 -23 c 0
 130 -23 40 81 40 254 c 0
 40 428 134 539 280 539 c 0
 378 539 459 487 492 401 c 0
 507 363 514 314 513 234 c 1
130 302 m 1
 424 302 l 1
 424 396 364 462 279 462 c 0
 195 462 136 399 130 302 c 1
EndSplineSet
EndChar

StartChar: gbreve
Encoding: 287 287 308
Width: 556
Flags: W
HStem: -218 70<217.5 289.5> -23 77<217 275.5> 462 77<215 283 186.5 302> 504 20<404 481 481 481> 597 69<242.5 297.5 242.5 315> 712 20<119 178 178 178 362 420 420 420>
VStem: 35 87<209 322 193.5 337> 404 77<448 524>
LayerCount: 2
Fore
SplineSet
119 732 m 1x1f
 178 732 l 1
 183 688 214 666 271 666 c 0
 324 666 357 690 362 732 c 1
 420 732 l 1
 413 643 361 597 269 597 c 0
 212 597 167 617 141 654 c 0
 126 674 121 693 119 732 c 1x1f
404 524 m 1
 481 524 l 1x13
 481 86 l 2
 481 -37 466 -102 426 -151 c 0
 392 -193 328 -218 251 -218 c 0
 137 -218 60 -157 52 -60 c 1
 137 -60 l 1
 145 -120 182 -148 253 -148 c 0
 357 -148 396 -96 396 44 c 2
 396 71 l 1
 352 5 307 -23 244 -23 c 0
 190 -23 140 2 101 48 c 0
 56 101 35 165 35 253 c 0
 35 421 123 539 250 539 c 0xe3
 316 539 362 511 404 448 c 1
 404 524 l 1
258 462 m 0x63
 172 462 122 386 122 258 c 0
 122 129 172 54 258 54 c 0
 345 54 396 128 396 255 c 0
 396 388 346 462 258 462 c 0x63
EndSplineSet
EndChar

StartChar: gdotaccent
Encoding: 289 289 309
Width: 556
Flags: W
HStem: -218 70<217.5 289.5> -23 77<217 275.5> 462 77<215 283 186.5 302> 504 20<404 481 481 481> 612 103<213 317 213 317>
VStem: 35 87<209 322 193.5 337> 213 104<612 715 612 715> 404 77<448 524>
LayerCount: 2
Fore
SplineSet
317 715 m 1x1f
 317 612 l 1
 213 612 l 1
 213 715 l 1
 317 715 l 1x1f
404 524 m 1
 481 524 l 1x17
 481 86 l 2
 481 -37 466 -102 426 -151 c 0
 392 -193 328 -218 251 -218 c 0
 137 -218 60 -157 52 -60 c 1
 137 -60 l 1
 145 -120 182 -148 253 -148 c 0
 357 -148 396 -96 396 44 c 2
 396 71 l 1
 352 5 307 -23 244 -23 c 0
 190 -23 140 2 101 48 c 0
 56 101 35 165 35 253 c 0
 35 421 123 539 250 539 c 0xe7
 316 539 362 511 404 448 c 1
 404 524 l 1
258 462 m 0x67
 172 462 122 386 122 258 c 0
 122 129 172 54 258 54 c 0
 345 54 396 128 396 255 c 0
 396 388 346 462 258 462 c 0x67
EndSplineSet
EndChar

StartChar: lacute
Encoding: 314 314 310
Width: 222
Flags: MW
HStem: 0 20 709 20<68 152 152 152>
VStem: 68 84<0 729 0 729>
LayerCount: 2
Fore
SplineSet
152 729 m 1
 152 0 l 1
 68 0 l 1
 68 729 l 1
 152 729 l 1
159 939 m 1
 272 939 l 1
 123 791 l 1
 63 791 l 1
 159 939 l 1
EndSplineSet
EndChar

StartChar: lcaron
Encoding: 318 318 311
Width: 299
Flags: MW
HStem: 0 20 629 100<205 260 68 205>
VStem: 68 84<0 729 0 729>
LayerCount: 2
Fore
SplineSet
152 729 m 1
 152 0 l 1
 68 0 l 1
 68 729 l 1
 152 729 l 1
205 729 m 1
 305 729 l 1
 305 626 l 2
 305 556 267 505 213 505 c 2
 205 505 l 1
 205 543 l 1
 243 543 262 574 260 629 c 1
 205 629 l 1
 205 729 l 1
EndSplineSet
EndChar

StartChar: nacute
Encoding: 324 324 312
Width: 556
Flags: W
HStem: 0 20 466 73<282 329> 504 20<70 147 147 147> 720 20<310 423 423 423>
VStem: 70 77<436 524 436 524 436 524> 70 84<0 289 0 524> 404 83<0 363 363 394.5>
LayerCount: 2
Fore
SplineSet
70 524 m 1xa6
 147 524 l 1
 147 436 l 1x38
 193 509 243 539 321 539 c 0
 422 539 487 483 487 396 c 2
 487 0 l 1
 404 0 l 1
 404 363 l 2
 404 426 362 466 296 466 c 0xc6
 210 466 154 396 154 289 c 2
 154 0 l 1
 70 0 l 1
 70 524 l 1xa6
310 740 m 1
 423 740 l 1
 274 592 l 1
 214 592 l 1
 310 740 l 1
EndSplineSet
EndChar

StartChar: ncaron
Encoding: 328 328 313
Width: 556
Flags: W
HStem: 0 20 466 73<282 329> 504 20<70 147 147 147> 721 20<135 198 198 198 358 422 422 422>
VStem: 70 77<436 524 436 524 436 524> 70 84<0 289 0 524> 404 83<0 363 363 394.5>
LayerCount: 2
Fore
SplineSet
70 524 m 1xa6
 147 524 l 1
 147 436 l 1x38
 193 509 243 539 321 539 c 0
 422 539 487 483 487 396 c 2
 487 0 l 1
 404 0 l 1
 404 363 l 2
 404 426 362 466 296 466 c 0xc6
 210 466 154 396 154 289 c 2
 154 0 l 1
 70 0 l 1
 70 524 l 1xa6
326 591 m 1
 231 591 l 1
 135 741 l 1
 198 741 l 1
 279 645 l 1
 358 741 l 1
 422 741 l 1
 326 591 l 1
EndSplineSet
EndChar

StartChar: ohungarumlaut
Encoding: 337 337 314
Width: 556
Flags: MW
HStem: -23 77<226.5 319 226.5 347> 462 77<226.5 320> 720 20<240 352 352 352 414 526 526 526>
VStem: 36 87<194.5 321.5 194.5 346> 423 87<193 320>
LayerCount: 2
Fore
SplineSet
272 539 m 0
 424 539 510 436 510 254 c 0
 510 82 421 -23 273 -23 c 0
 124 -23 36 81 36 258 c 0
 36 434 124 539 272 539 c 0
273 462 m 0
 180 462 123 385 123 258 c 0
 123 131 180 54 273 54 c 0
 365 54 423 131 423 255 c 0
 423 385 367 462 273 462 c 0
240 740 m 1
 352 740 l 1
 203 590 l 1
 143 590 l 1
 240 740 l 1
414 740 m 1
 526 740 l 1
 377 590 l 1
 317 590 l 1
 414 740 l 1
EndSplineSet
EndChar

StartChar: racute
Encoding: 341 341 315
Width: 333
Flags: W
HStem: 0 20 504 20<69 146 146 146> 519 20<262 294> 720 20<218 331 331 331>
VStem: 69 77<429 524 429 524 429 524> 69 84<0 272 0 524>
LayerCount: 2
Fore
SplineSet
69 524 m 1xc4
 146 524 l 1x58
 146 429 l 1
 194 507 235 539 289 539 c 0x28
 299 539 307 538 321 536 c 1
 321 451 l 1
 206 454 154 398 153 272 c 1
 153 0 l 1
 69 0 l 1
 69 524 l 1xc4
218 740 m 1
 331 740 l 1
 182 592 l 1
 122 592 l 1
 218 740 l 1
EndSplineSet
EndChar

StartChar: sacute
Encoding: 347 347 316
Width: 500
Flags: MW
HStem: -23 77<227.5 286.5 227.5 309> 462 77<211 278.5> 720 20<275 388 388 388>
VStem: 47 87<364.5 407.5 364.5 427.5> 372 87<112 155.5>
LayerCount: 2
Fore
SplineSet
438 378 m 1
 350 378 l 1
 348 433 312 462 245 462 c 0
 177 462 134 432 134 383 c 0
 134 346 163 324 231 308 c 2
 311 289 l 2
 415 264 459 221 459 143 c 0
 459 42 375 -23 243 -23 c 0
 106 -23 38 35 34 156 c 1
 122 156 l 1
 127 119 133 104 146 89 c 0
 167 67 205 54 250 54 c 0
 323 54 372 87 372 137 c 0
 372 174 349 195 291 209 c 2
 213 228 l 2
 89 258 47 297 47 379 c 0
 47 476 126 539 248 539 c 0
 369 539 437 481 438 378 c 1
275 740 m 1
 388 740 l 1
 239 592 l 1
 179 592 l 1
 275 740 l 1
EndSplineSet
EndChar

StartChar: scircumflex
Encoding: 349 349 317
Width: 500
Flags: MW
HStem: -23 77<227.5 286.5 227.5 309> 462 77<211 278.5> 721 20<202 297 297 297>
VStem: 47 87<364.5 407.5 364.5 427.5> 372 87<112 155.5>
LayerCount: 2
Fore
SplineSet
438 378 m 1
 350 378 l 1
 348 433 312 462 245 462 c 0
 177 462 134 432 134 383 c 0
 134 346 163 324 231 308 c 2
 311 289 l 2
 415 264 459 221 459 143 c 0
 459 42 375 -23 243 -23 c 0
 106 -23 38 35 34 156 c 1
 122 156 l 1
 127 119 133 104 146 89 c 0
 167 67 205 54 250 54 c 0
 323 54 372 87 372 137 c 0
 372 174 349 195 291 209 c 2
 213 228 l 2
 89 258 47 297 47 379 c 0
 47 476 126 539 248 539 c 0
 369 539 437 481 438 378 c 1
202 741 m 1
 297 741 l 1
 393 591 l 1
 330 591 l 1
 250 687 l 1
 171 591 l 1
 106 591 l 1
 202 741 l 1
EndSplineSet
EndChar

StartChar: scommaaccent
Encoding: 537 537 318
Width: 500
Flags: MW
HStem: -160 100<197 252 197 297> -23 77<227.5 286.5 227.5 309> 462 77<211 278.5>
VStem: 47 87<364.5 407.5 364.5 427.5> 372 87<112 155.5>
LayerCount: 2
Fore
SplineSet
438 378 m 1
 350 378 l 1
 348 433 312 462 245 462 c 0
 177 462 134 432 134 383 c 0
 134 346 163 324 231 308 c 2
 311 289 l 2
 415 264 459 221 459 143 c 0
 459 42 375 -23 243 -23 c 0
 106 -23 38 35 34 156 c 1
 122 156 l 1
 127 119 133 104 146 89 c 0
 167 67 205 54 250 54 c 0
 323 54 372 87 372 137 c 0
 372 174 349 195 291 209 c 2
 213 228 l 2
 89 258 47 297 47 379 c 0
 47 476 126 539 248 539 c 0
 369 539 437 481 438 378 c 1
197 -60 m 1
 297 -60 l 1
 297 -163 l 1
 296 -239 257 -286 197 -284 c 1
 197 -246 l 1
 235 -246 254 -215 252 -160 c 1
 197 -160 l 1
 197 -60 l 1
EndSplineSet
EndChar

StartChar: tcaron
Encoding: 357 357 319
Width: 317
Flags: MW
HStem: -23 73<196 197> 456 68<14 85 14 85 168 254> 701 100<221 276 221 321>
VStem: 85 83<78.5 97 97 456 524 668>
LayerCount: 2
Fore
SplineSet
254 524 m 1
 254 456 l 1
 168 456 l 1
 168 97 l 2
 168 60 178 50 214 50 c 0
 231 50 242 51 254 54 c 1
 254 -16 l 1
 226 -21 208 -23 186 -23 c 0
 121 -23 85 6 85 60 c 2
 85 456 l 1
 14 456 l 1
 14 524 l 1
 85 524 l 1
 85 668 l 1
 168 668 l 1
 168 524 l 1
 254 524 l 1
221 801 m 1
 321 801 l 1
 321 698 l 1
 320 622 281 575 221 577 c 1
 221 615 l 1
 259 615 278 646 276 701 c 1
 221 701 l 1
 221 801 l 1
EndSplineSet
EndChar

StartChar: uring
Encoding: 367 367 320
Width: 556
Flags: W
HStem: -23 73<223 270.5> 0 20 504 20<65 148 148 148 399 482 482 482> 579 44<262 286 262 298> 710 44<262 286.5>
VStem: 65 83<121.5 153 153 524> 186 44<654.5 678 654.5 691> 318 44<654.5 678.5> 399 83<227 524> 407 75<0 73 73 73>
LayerCount: 2
Fore
SplineSet
482 0 m 1x6480
 407 0 l 1
 407 73 l 1x5840
 358 4 309 -23 232 -23 c 0
 130 -23 65 33 65 120 c 2
 65 524 l 1
 148 524 l 1
 148 153 l 2
 148 90 190 50 256 50 c 0xa480
 343 50 399 120 399 227 c 2
 399 524 l 1
 482 524 l 1
 482 0 l 1x6480
274 754 m 0
 323 754 362 715 362 666 c 0
 362 618 322 579 274 579 c 0
 225 579 186 618 186 667 c 0x5b80
 186 715 226 754 274 754 c 0
274 710 m 0
 250 710 230 690 230 666 c 0
 230 643 250 623 274 623 c 0
 298 623 318 643 318 666 c 0
 318 691 299 710 274 710 c 0
EndSplineSet
EndChar

StartChar: uhungarumlaut
Encoding: 369 369 321
Width: 556
Flags: W
HStem: -23 73<223 270.5> 0 20 504 20<65 148 148 148 399 482 482 482> 720 20<243 356 356 356 417 530 530 530>
VStem: 65 83<121.5 153 153 524> 399 83<227 524> 407 75<0 73 73 73>
LayerCount: 2
Fore
SplineSet
482 0 m 1x6c
 407 0 l 1
 407 73 l 1x52
 358 4 309 -23 232 -23 c 0
 130 -23 65 33 65 120 c 2
 65 524 l 1
 148 524 l 1
 148 153 l 2
 148 90 190 50 256 50 c 0xac
 343 50 399 120 399 227 c 2
 399 524 l 1
 482 524 l 1
 482 0 l 1x6c
243 740 m 1
 356 740 l 1
 207 590 l 1
 147 590 l 1
 243 740 l 1
417 740 m 1
 530 740 l 1
 381 590 l 1
 321 590 l 1
 417 740 l 1
EndSplineSet
EndChar

StartChar: zacute
Encoding: 378 378 322
Width: 500
Flags: MW
HStem: 0 73<132 457 132 457> 451 73<52 344 52 443> 720 20<279 391 391 391>
LayerCount: 2
Fore
SplineSet
443 524 m 1
 443 450 l 1
 132 73 l 1
 457 73 l 1
 457 0 l 1
 31 0 l 1
 31 75 l 1
 344 451 l 1
 52 451 l 1
 52 524 l 1
 443 524 l 1
279 740 m 1
 391 740 l 1
 242 592 l 1
 182 592 l 1
 279 740 l 1
EndSplineSet
EndChar

StartChar: zdotaccent
Encoding: 380 380 323
Width: 500
Flags: MW
HStem: 0 73<132 457 132 457> 451 73<52 344 52 443> 612 104<199 303 199 303>
VStem: 199 104<612 716 612 716>
LayerCount: 2
Fore
SplineSet
443 524 m 1
 443 450 l 1
 132 73 l 1
 457 73 l 1
 457 0 l 1
 31 0 l 1
 31 75 l 1
 344 451 l 1
 52 451 l 1
 52 524 l 1
 443 524 l 1
303 716 m 1
 303 612 l 1
 199 612 l 1
 199 716 l 1
 303 716 l 1
EndSplineSet
EndChar

StartChar: hbar
Encoding: 295 295 324
Width: 556
Flags: MW
HStem: 0 20 466 73<284 309.5> 600 53<10 70 10 70 153 360> 709 20<70 153 153 153>
VStem: 70 83<0 289 452 600 653 729> 403 83<0 363 363 382>
LayerCount: 2
Fore
SplineSet
153 653 m 1
 360 653 l 1
 360 600 l 1
 153 600 l 1
 153 452 l 1
 202 516 247 539 321 539 c 0
 423 539 486 484 486 396 c 2
 486 0 l 1
 403 0 l 1
 403 363 l 2
 403 401 393 425 369 443 c 0
 349 458 323 466 296 466 c 0
 209 466 153 396 153 289 c 2
 153 0 l 1
 70 0 l 1
 70 600 l 1
 10 600 l 1
 10 653 l 1
 70 653 l 1
 70 729 l 1
 153 729 l 1
 153 653 l 1
EndSplineSet
EndChar

StartChar: tcommaaccent
Encoding: 355 355 325
Width: 278
Flags: MW
HStem: -160 100<111 166 111 211> -23 73<196 197> 456 68<14 85 14 85 168 254>
VStem: 85 83<78.5 97 97 456 524 668>
LayerCount: 2
Fore
SplineSet
254 524 m 1
 254 456 l 1
 168 456 l 1
 168 97 l 2
 168 60 178 50 214 50 c 0
 231 50 242 51 254 54 c 1
 254 -16 l 1
 226 -21 208 -23 186 -23 c 0
 121 -23 85 6 85 60 c 2
 85 456 l 1
 14 456 l 1
 14 524 l 1
 85 524 l 1
 85 668 l 1
 168 668 l 1
 168 524 l 1
 254 524 l 1
111 -60 m 1
 211 -60 l 1
 211 -163 l 1
 210 -239 171 -286 111 -284 c 1
 111 -246 l 1
 149 -246 168 -215 166 -160 c 1
 111 -160 l 1
 111 -60 l 1
EndSplineSet
EndChar

StartChar: uni021B
Encoding: 539 539 326
Width: 278
Flags: MW
HStem: -160 100<111 166 111 211> -23 73<196 197> 456 68<14 85 14 85 168 254>
VStem: 85 83<78.5 97 97 456 524 668>
LayerCount: 2
Fore
SplineSet
254 524 m 1
 254 456 l 1
 168 456 l 1
 168 97 l 2
 168 60 178 50 214 50 c 0
 231 50 242 51 254 54 c 1
 254 -16 l 1
 226 -21 208 -23 186 -23 c 0
 121 -23 85 6 85 60 c 2
 85 456 l 1
 14 456 l 1
 14 524 l 1
 85 524 l 1
 85 668 l 1
 168 668 l 1
 168 524 l 1
 254 524 l 1
111 -60 m 1
 211 -60 l 1
 211 -163 l 1
 210 -239 171 -286 111 -284 c 1
 111 -246 l 1
 149 -246 168 -215 166 -160 c 1
 111 -160 l 1
 111 -60 l 1
EndSplineSet
EndChar

StartChar: wcircumflex
Encoding: 373 373 327
Width: 722
Flags: MW
HStem: 0 20 504 20<6 98 98 98 305 407 407 407 614 708 708 708> 721 20<308 403 403 403>
LayerCount: 2
Fore
SplineSet
554 0 m 1
 459 0 l 1
 353 411 l 1
 252 0 l 1
 158 0 l 1
 6 524 l 1
 98 524 l 1
 205 116 l 1
 305 524 l 1
 407 524 l 1
 510 116 l 1
 614 524 l 1
 708 524 l 1
 554 0 l 1
308 741 m 1
 403 741 l 1
 499 591 l 1
 436 591 l 1
 356 687 l 1
 277 591 l 1
 212 591 l 1
 308 741 l 1
EndSplineSet
EndChar

StartChar: wdieresis
Encoding: 7813 7813 328
Width: 722
Flags: MW
HStem: 0 20 504 20<6 98 98 98 305 407 407 407 614 708 708 708> 612 103<216 320 216 320 216 378 378 482>
VStem: 216 104<612 715 612 715> 378 104<612 715 612 715>
LayerCount: 2
Fore
SplineSet
554 0 m 1
 459 0 l 1
 353 411 l 1
 252 0 l 1
 158 0 l 1
 6 524 l 1
 98 524 l 1
 205 116 l 1
 305 524 l 1
 407 524 l 1
 510 116 l 1
 614 524 l 1
 708 524 l 1
 554 0 l 1
320 715 m 1
 320 612 l 1
 216 612 l 1
 216 715 l 1
 320 715 l 1
482 715 m 1
 482 612 l 1
 378 612 l 1
 378 715 l 1
 482 715 l 1
EndSplineSet
EndChar

StartChar: amacron
Encoding: 257 257 329
Width: 556
Flags: MW
HStem: -23 73<199.5 247> 462 77<236.5 310> 631 70<137 411 137 411>
VStem: 42 87<107.5 161.5 107.5 166> 389 83<165 259 259 259 362 384 384 396>
LayerCount: 2
Fore
SplineSet
535 49 m 1
 535 -14 l 1
 507 -21 496 -23 478 -23 c 0
 424 -23 398 0 392 54 c 1
 333 0 280 -23 214 -23 c 0
 108 -23 42 37 42 132 c 0
 42 200 73 246 134 272 c 0
 166 285 184 289 302 304 c 0
 370 313 388 326 389 362 c 1
 389 384 l 2
 389 434 348 462 272 462 c 0
 194 462 156 433 149 369 c 1
 65 369 l 1
 67 421 77 451 101 478 c 0
 137 517 198 539 275 539 c 0
 404 539 472 489 472 396 c 2
 472 88 l 2
 472 62 488 47 517 47 c 0
 522 47 526 47 535 49 c 1
389 165 m 2
 389 259 l 1
 361 246 344 242 255 230 c 0
 165 217 129 189 129 134 c 0
 129 81 167 50 232 50 c 0
 281 50 322 66 356 97 c 0
 381 120 389 137 389 165 c 2
411 701 m 1
 411 631 l 1
 137 631 l 1
 137 701 l 1
 411 701 l 1
EndSplineSet
EndChar

StartChar: ycircumflex
Encoding: 375 375 330
Width: 500
Flags: MW
HStem: -218 82<99 115.5 91 123.5> 504 20<20 109 109 109 388 478 478 478> 721 20<203 297 297 297>
LayerCount: 2
Fore
SplineSet
388 524 m 1
 478 524 l 1
 245 -110 l 2
 229 -152 214 -174 188 -193 c 0
 166 -209 137 -218 110 -218 c 0
 88 -218 71 -214 54 -205 c 1
 54 -130 l 1
 72 -134 84 -136 98 -136 c 0
 133 -136 151 -122 165 -85 c 2
 197 -2 l 1
 20 524 l 1
 109 524 l 1
 243 116 l 1
 388 524 l 1
203 741 m 1
 297 741 l 1
 394 591 l 1
 330 591 l 1
 250 687 l 1
 171 591 l 1
 107 591 l 1
 203 741 l 1
EndSplineSet
EndChar

StartChar: ccircumflex
Encoding: 265 265 331
Width: 500
Flags: MW
HStem: -23 77<219 300.5 219 325.5> 462 77<217.5 298> 721 20<220 314 314 314>
VStem: 31 87<191 318.5 191 340>
LayerCount: 2
Fore
SplineSet
471 348 m 1
 387 348 l 1
 377 421 333 462 263 462 c 0
 172 462 118 384 118 253 c 0
 118 129 173 54 265 54 c 0
 336 54 379 96 393 180 c 1
 477 180 l 1
 467 52 388 -23 263 -23 c 0
 121 -23 31 84 31 253 c 0
 31 427 122 539 264 539 c 0
 337 539 400 510 436 461 c 1
 456 432 467 399 471 348 c 1
220 741 m 1
 314 741 l 1
 411 591 l 1
 347 591 l 1
 267 687 l 1
 188 591 l 1
 124 591 l 1
 220 741 l 1
EndSplineSet
EndChar

StartChar: emacron
Encoding: 275 275 332
Width: 556
Flags: MW
HStem: -23 77<254.5 314.5 254.5 338> 234 68<129 423 129 513 127 423> 462 77<237 321.5> 631 70<148 422 148 422>
LayerCount: 2
Fore
SplineSet
513 234 m 1
 127 234 l 1
 128 182 135 152 155 122 c 0
 183 78 228 54 281 54 c 0
 348 54 395 90 418 159 c 1
 502 159 l 1
 481 45 398 -23 278 -23 c 0
 130 -23 40 82 40 255 c 0
 40 428 134 539 280 539 c 0
 378 539 458 487 492 401 c 0
 507 362 513 314 513 234 c 1
129 302 m 1
 423 302 l 1
 423 396 364 462 279 462 c 0
 195 462 136 399 129 302 c 1
422 701 m 1
 422 631 l 1
 148 631 l 1
 148 701 l 1
 422 701 l 1
EndSplineSet
EndChar

StartChar: gcircumflex
Encoding: 285 285 333
Width: 556
Flags: W
HStem: -218 70<217.5 289.5> -23 77<217 275.5> 462 77<215 283 186.5 302> 504 20<404 481 481 481> 721 20<225 319 319 319>
VStem: 35 87<209 322 193.5 337> 404 77<448 524>
LayerCount: 2
Fore
SplineSet
225 741 m 1x1e
 319 741 l 1
 416 591 l 1
 352 591 l 1
 272 687 l 1
 193 591 l 1
 129 591 l 1
 225 741 l 1x1e
404 524 m 1
 481 524 l 1x16
 481 86 l 2
 481 -37 466 -102 426 -151 c 0
 392 -193 328 -218 251 -218 c 0
 137 -218 60 -157 52 -60 c 1
 137 -60 l 1
 145 -120 182 -148 253 -148 c 0
 357 -148 396 -96 396 44 c 2
 396 71 l 1
 352 5 307 -23 244 -23 c 0
 190 -23 140 2 101 48 c 0
 56 101 35 165 35 253 c 0
 35 421 123 539 250 539 c 0xe6
 316 539 362 511 404 448 c 1
 404 524 l 1
258 462 m 0x66
 172 462 122 386 122 258 c 0
 122 129 172 54 258 54 c 0
 345 54 396 128 396 255 c 0
 396 388 346 462 258 462 c 0x66
EndSplineSet
EndChar

StartChar: ibreve
Encoding: 301 301 334
Width: 278
Flags: MW
HStem: 0 20 504 20<94 177 177 177> 597 69<110.5 166 110.5 183.5> 712 20<-12 47 47 47 230 289 289 289>
VStem: 94 83<0 524 0 524>
LayerCount: 2
Fore
SplineSet
177 524 m 1
 177 0 l 1
 94 0 l 1
 94 524 l 1
 177 524 l 1
-12 732 m 1
 47 732 l 1
 52 688 82 666 139 666 c 0
 193 666 226 690 230 732 c 1
 289 732 l 1
 282 643 230 597 137 597 c 0
 80 597 36 617 9 654 c 0
 -5 674 -11 693 -12 732 c 1
EndSplineSet
EndChar

StartChar: imacron
Encoding: 299 299 335
Width: 278
Flags: W
HStem: 0 20 504 20<97 180 180 180> 631 70<15 262 15 262>
VStem: 15 247<631 701 631 701> 97 83<0 524 0 524>
LayerCount: 2
Fore
SplineSet
180 524 m 1xe8
 180 0 l 1
 97 0 l 1
 97 524 l 1
 180 524 l 1xe8
262 701 m 1xf0
 262 631 l 1
 15 631 l 1
 15 701 l 1
 262 701 l 1xf0
EndSplineSet
EndChar

StartChar: jcircumflex
Encoding: 309 309 336
Width: 222
Flags: MW
HStem: -218 73<3.5 28 -1 57> 504 20<70 153 153 153> 721 20<60 155 155 155>
VStem: 70 83<-76 524>
LayerCount: 2
Fore
SplineSet
70 524 m 1
 153 524 l 1
 153 -109 l 2
 153 -181 104 -218 10 -218 c 0
 -3 -218 -8 -217 -18 -215 c 1
 -18 -144 l 1
 -7 -145 -4 -145 2 -145 c 0
 54 -145 70 -128 70 -76 c 2
 70 524 l 1
60 741 m 1
 155 741 l 1
 251 591 l 1
 188 591 l 1
 107 687 l 1
 28 591 l 1
 -36 591 l 1
 60 741 l 1
EndSplineSet
EndChar

StartChar: kcommaaccent
Encoding: 311 311 337
Width: 500
Flags: MW
HStem: -160 100<217 272 217 317> 0 20 504 20<363 470 470 470> 709 20<58 141 141 141>
VStem: 58 83<0 204 302 729>
LayerCount: 2
Fore
SplineSet
141 729 m 1
 141 302 l 1
 363 524 l 1
 470 524 l 1
 288 343 l 1
 502 0 l 1
 399 0 l 1
 222 284 l 1
 141 204 l 1
 141 0 l 1
 58 0 l 1
 58 729 l 1
 141 729 l 1
217 -60 m 1
 317 -60 l 1
 317 -163 l 1
 316 -239 277 -286 217 -284 c 1
 217 -246 l 1
 255 -246 274 -215 272 -160 c 1
 217 -160 l 1
 217 -60 l 1
EndSplineSet
EndChar

StartChar: lcommaaccent
Encoding: 316 316 338
Width: 222
Flags: MW
HStem: -160 100<63 118 63 163> 0 20 709 20<68 152 152 152>
VStem: 68 84<0 729 0 729>
LayerCount: 2
Fore
SplineSet
152 729 m 1
 152 0 l 1
 68 0 l 1
 68 729 l 1
 152 729 l 1
63 -60 m 1
 163 -60 l 1
 163 -163 l 1
 162 -239 123 -286 63 -284 c 1
 63 -246 l 1
 101 -246 120 -215 118 -160 c 1
 63 -160 l 1
 63 -60 l 1
EndSplineSet
EndChar

StartChar: ncommaaccent
Encoding: 326 326 339
Width: 556
Flags: W
HStem: -160 100<229 284 229 329> 0 20 466 73<282 329> 504 20<70 147 147 147>
VStem: 70 77<436 524 436 524 436 524> 70 84<0 289 0 524> 404 83<0 363 363 394.5>
LayerCount: 2
Fore
SplineSet
70 524 m 1x56
 147 524 l 1
 147 436 l 1x98
 193 509 243 539 321 539 c 0
 422 539 487 483 487 396 c 2
 487 0 l 1
 404 0 l 1
 404 363 l 2
 404 426 362 466 296 466 c 0x66
 210 466 154 396 154 289 c 2
 154 0 l 1
 70 0 l 1
 70 524 l 1x56
229 -60 m 1
 329 -60 l 1
 329 -163 l 1
 328 -239 289 -286 229 -284 c 1
 229 -246 l 1
 267 -246 286 -215 284 -160 c 1
 229 -160 l 1
 229 -60 l 1
EndSplineSet
EndChar

StartChar: omacron
Encoding: 333 333 340
Width: 556
Flags: MW
HStem: -23 77<226.5 319 226.5 347> 462 77<226.5 320> 631 70<136 410 136 410>
VStem: 36 87<194.5 321.5 194.5 346> 423 87<193 320>
LayerCount: 2
Fore
SplineSet
272 539 m 0
 424 539 510 436 510 254 c 0
 510 82 421 -23 273 -23 c 0
 124 -23 36 81 36 258 c 0
 36 434 124 539 272 539 c 0
273 462 m 0
 180 462 123 385 123 258 c 0
 123 131 180 54 273 54 c 0
 365 54 423 131 423 255 c 0
 423 385 367 462 273 462 c 0
410 701 m 1
 410 631 l 1
 136 631 l 1
 136 701 l 1
 410 701 l 1
EndSplineSet
EndChar

StartChar: rcommaaccent
Encoding: 343 343 341
Width: 333
Flags: W
HStem: -160 100<65 120 65 165> 0 20 504 20<69 146 146 146> 519 20<262 294>
VStem: 69 77<429 524 429 524 429 524> 69 84<0 272 0 524>
LayerCount: 2
Fore
SplineSet
69 524 m 1x64
 146 524 l 1xa8
 146 429 l 1
 194 507 235 539 289 539 c 0x18
 299 539 307 538 321 536 c 1
 321 451 l 1
 206 454 154 398 153 272 c 1
 153 0 l 1
 69 0 l 1
 69 524 l 1x64
65 -60 m 1
 165 -60 l 1
 165 -163 l 1
 164 -239 125 -286 65 -284 c 1
 65 -246 l 1
 103 -246 122 -215 120 -160 c 1
 65 -160 l 1
 65 -60 l 1
EndSplineSet
EndChar

StartChar: ubreve
Encoding: 365 365 342
Width: 556
Flags: W
HStem: -23 73<223 270.5> 0 20 504 20<65 148 148 148 399 482 482 482> 597 69<250.5 305.5 250.5 323> 712 20<128 186 186 186 370 429 429 429>
VStem: 65 83<121.5 153 153 524> 399 83<227 524> 407 75<0 73 73 73>
LayerCount: 2
Fore
SplineSet
482 0 m 1x66
 407 0 l 1
 407 73 l 1x59
 358 4 309 -23 232 -23 c 0
 130 -23 65 33 65 120 c 2
 65 524 l 1
 148 524 l 1
 148 153 l 2
 148 90 190 50 256 50 c 0xa6
 343 50 399 120 399 227 c 2
 399 524 l 1
 482 524 l 1
 482 0 l 1x66
128 732 m 1
 186 732 l 1
 191 688 222 666 279 666 c 0
 332 666 365 690 370 732 c 1
 429 732 l 1
 421 643 369 597 277 597 c 0
 220 597 175 617 149 654 c 0
 134 674 129 693 128 732 c 1
EndSplineSet
EndChar

StartChar: umacron
Encoding: 363 363 343
Width: 556
Flags: W
HStem: -23 73<223 270.5> 0 20 504 20<65 148 148 148 399 482 482 482> 631 70<137 411 137 411>
VStem: 65 83<121.5 153 153 524> 399 83<227 524> 407 75<0 73 73 73>
LayerCount: 2
Fore
SplineSet
482 0 m 1x6c
 407 0 l 1
 407 73 l 1x52
 358 4 309 -23 232 -23 c 0
 130 -23 65 33 65 120 c 2
 65 524 l 1
 148 524 l 1
 148 153 l 2
 148 90 190 50 256 50 c 0xac
 343 50 399 120 399 227 c 2
 399 524 l 1
 482 524 l 1
 482 0 l 1x6c
411 701 m 1
 411 631 l 1
 137 631 l 1
 137 701 l 1
 411 701 l 1
EndSplineSet
EndChar

StartChar: uogonek
Encoding: 371 371 344
Width: 556
Flags: W
HStem: -204 44<452 475> -23 73<223 270.5> 0 20 504 20<65 148 148 148 399 482 482 482>
VStem: 65 83<121.5 153 153 524> 333 73<-124 -89.5> 399 83<227 524 0 524>
LayerCount: 2
Fore
SplineSet
482 524 m 1x5a
 482 0 l 1xb2
 436 -26 406 -69 406 -108 c 0
 406 -140 432 -160 472 -160 c 0
 488 -160 500 -158 521 -150 c 1
 521 -195 l 1
 515 -196 510 -197 508 -198 c 0
 488 -203 481 -204 469 -204 c 0
 386 -204 333 -168 333 -111 c 0
 333 -68 363 -34 429 0 c 1
 407 0 l 1xb4
 407 73 l 1
 358 4 309 -23 232 -23 c 0
 130 -23 65 33 65 120 c 2
 65 524 l 1
 148 524 l 1
 148 153 l 2
 148 90 190 50 256 50 c 0
 343 50 399 120 399 227 c 2
 399 524 l 1
 482 524 l 1x5a
EndSplineSet
EndChar

StartChar: rcaron
Encoding: 345 345 345
Width: 333
Flags: W
HStem: 0 20 504 20<69 146 146 146> 519 20<262 294> 721 20<48 111 111 111 271 335 335 335>
VStem: 69 77<429 524 429 524 429 524> 69 84<0 272 0 524>
LayerCount: 2
Fore
SplineSet
69 524 m 1xc4
 146 524 l 1x58
 146 429 l 1
 194 507 235 539 289 539 c 0x28
 299 539 307 538 321 536 c 1
 321 451 l 1
 206 454 154 398 153 272 c 1
 153 0 l 1
 69 0 l 1
 69 524 l 1xc4
239 591 m 1
 144 591 l 1
 48 741 l 1
 111 741 l 1
 192 645 l 1
 271 741 l 1
 335 741 l 1
 239 591 l 1
EndSplineSet
EndChar

StartChar: scedilla
Encoding: 351 351 346
Width: 500
Flags: MW
HStem: -214 41<195 223.5 195 252> -91 145<227.5 230.5> 462 77<211 278.5>
VStem: 47 87<364.5 407.5 364.5 427.5> 262 75<-141 -116.5> 372 87<112 155.5>
LayerCount: 2
Fore
SplineSet
244 -24 m 1
 230 -56 l 1
 243 -54 249 -54 258 -54 c 0
 308 -54 337 -78 337 -121 c 0
 337 -178 290 -214 214 -214 c 0
 175 -214 151 -208 89 -180 c 1
 110 -140 l 1
 119 -144 l 1
 165 -167 182 -173 208 -173 c 0
 239 -173 262 -154 262 -128 c 0
 262 -105 245 -91 216 -91 c 0
 204 -91 197 -93 185 -98 c 1
 174 -92 l 1
 205 -21 l 1
 93 -10 36 48 34 156 c 1
 122 156 l 1
 127 119 133 104 146 89 c 0
 167 67 205 54 250 54 c 0
 323 54 372 87 372 137 c 0
 372 174 349 195 291 209 c 2
 213 228 l 2
 89 258 47 297 47 379 c 0
 47 476 126 539 248 539 c 0
 369 539 437 481 438 378 c 1
 350 378 l 1
 348 433 312 462 245 462 c 0
 177 462 134 432 134 383 c 0
 134 346 163 324 231 308 c 2
 311 289 l 2
 415 264 459 221 459 143 c 0
 459 80 422 25 361 -2 c 0
 334 -14 304 -20 244 -24 c 1
EndSplineSet
EndChar

StartChar: gcommaaccent
Encoding: 291 291 347
Width: 556
Flags: W
HStem: -218 70<217.5 289.5> -23 77<217 275.5> 462 77<215 283 186.5 302> 504 20<404 481 481 481> 592 100<260 315 260 315 215 315>
VStem: 35 87<209 322 193.5 337> 404 77<448 524>
LayerCount: 2
Fore
SplineSet
315 592 m 1x1e
 215 592 l 1
 215 695 l 1
 216 771 255 818 315 816 c 1
 315 778 l 1
 313 777 l 1
 276 776 258 747 260 692 c 1
 315 692 l 1
 315 592 l 1x1e
404 524 m 1
 481 524 l 1x16
 481 86 l 2
 481 -37 466 -102 426 -151 c 0
 392 -193 328 -218 251 -218 c 0
 137 -218 60 -157 52 -60 c 1
 137 -60 l 1
 145 -120 182 -148 253 -148 c 0
 357 -148 396 -96 396 44 c 2
 396 71 l 1
 352 5 307 -23 244 -23 c 0
 190 -23 140 2 101 48 c 0
 56 101 35 165 35 253 c 0
 35 421 123 539 250 539 c 0xe6
 316 539 362 511 404 448 c 1
 404 524 l 1
258 462 m 0x66
 172 462 122 386 122 258 c 0
 122 129 172 54 258 54 c 0
 345 54 396 128 396 255 c 0
 396 388 346 462 258 462 c 0x66
EndSplineSet
EndChar

StartChar: Euro
Encoding: 8364 8364 348
Width: 556
Flags: MW
HStem: -22 78<302.5 369.5 301.5 375> 254 59<24 79 24 85 2 79 176 390 176 176> 379 59<24 81 2 87 178 439> 633 76<308 370.5>
VStem: 79 88<313 349.5 337.5 343.5>
LayerCount: 2
Fore
SplineSet
79 313 m 1
 79 337 l 2
 79 350 79 360 81 379 c 1
 2 379 l 1
 24 438 l 1
 87 438 l 1
 97 502 119 558 153 608 c 0
 200 676 265 709 351 709 c 0
 420 709 477 689 543 642 c 1
 511 562 l 1
 438 616 397 633 344 633 c 0
 258 633 206 571 178 438 c 1
 462 438 l 1
 439 379 l 1
 169 379 l 1
 168 366 167 356 167 343 c 0
 167 332 167 324 168 313 c 1
 414 313 l 1
 390 254 l 1
 176 254 l 1
 201 123 258 56 345 56 c 0
 394 56 429 69 511 117 c 1
 511 24 l 1
 461 -7 405 -22 345 -22 c 0
 260 -22 186 17 147 81 c 0
 117 129 97 186 85 254 c 1
 2 254 l 1
 24 313 l 1
 79 313 l 1
EndSplineSet
EndChar

StartChar: peseta
Encoding: 8359 8359 349
Width: 1094
Flags: W
HStem: -14 43<566 611> -14 45<845.5 892 845.5 907.5> 0 20 269 40<477 521 579 633> 273 45<847 888> 709 20<114 243 243 315>
VStem: 114 93<0 309 391 647> 370 97<481.5 559> 521 58<45 57 57 269 309 394> 741 61<215 241 215 251.5> 942 61<65 91.5>
LayerCount: 2
Fore
SplineSet
633 309 m 1x93e0
 633 269 l 1
 579 269 l 1
 579 57 l 2
 579 33 583 29 606 29 c 0
 616 29 622 30 633 33 c 1
 633 -9 l 1
 612 -13 601 -14 587 -14 c 0
 545 -14 521 4 521 35 c 2
 521 269 l 1
 477 269 l 1
 477 309 l 1
 521 309 l 1
 521 394 l 1
 579 394 l 1
 579 309 l 1
 633 309 l 1x93e0
991 223 m 1x4be0
 929 223 l 1
 928 257 908 273 868 273 c 0
 826 273 802 256 802 226 c 0
 802 204 818 191 859 182 c 2
 908 171 l 2
 975 156 1003 130 1003 84 c 0
 1003 25 949 -14 866 -14 c 0
 779 -14 736 21 733 92 c 1
 794 92 l 1
 801 47 821 31 870 31 c 0
 914 31 942 50 942 80 c 0
 942 103 929 116 896 123 c 1
 848 135 l 1
 768 153 741 175 741 223 c 0
 741 280 792 318 869 318 c 0
 946 318 990 284 991 223 c 1x4be0
207 309 m 1x37e0
 207 0 l 1
 114 0 l 1
 114 729 l 1
 243 729 l 2
 387 729 467 652 467 515 c 0
 467 448 448 401 404 361 c 0
 365 326 321 309 263 309 c 2
 207 309 l 1x37e0
207 391 m 1
 229 391 l 2
 317 391 370 439 370 519 c 0
 370 599 317 647 229 647 c 2
 207 647 l 1
 207 391 l 1
EndSplineSet
EndChar

StartChar: lira
Encoding: 8356 8356 350
Width: 556
Flags: W
HStem: -23 92<400 422.5 400 429.5> 23 77<174.5 261.5> 229 55<27 153 27 159 27 153 243 367 243 243> 321 55<26 107 26 136 26 107 230 366 230 230> 651 78<245.5 331.5>
VStem: 54 93<505 562 505 575.5>
LayerCount: 2
Fore
SplineSet
366 321 m 1x7c
 230 321 l 1
 235 307 238 297 241 284 c 1
 367 284 l 1
 367 229 l 1
 243 229 l 1
 234 182 202 136 127 61 c 1
 166 87 206 100 248 100 c 0x74
 275 100 292 97 331 85 c 1
 374 73 391 69 409 69 c 0x84
 436 69 463 79 493 100 c 1x44
 535 34 l 1
 495 -6 456 -23 403 -23 c 0x84
 367 -23 341 -17 258 12 c 0
 237 19 213 23 192 23 c 0
 157 23 121 11 83 -13 c 1
 34 53 l 1
 116 120 151 170 159 229 c 1
 27 229 l 1
 27 284 l 1
 153 284 l 1
 147 300 143 309 136 321 c 1
 26 321 l 1
 26 376 l 1
 107 376 l 1
 100 387 l 1
 62 450 54 473 54 515 c 0
 54 636 158 729 293 729 c 0
 377 729 448 692 483 630 c 1
 503 597 511 558 512 497 c 1
 424 497 l 1
 420 600 375 651 288 651 c 0
 203 651 147 600 147 524 c 0
 147 486 154 467 190 404 c 0
 197 392 201 386 206 376 c 1
 366 376 l 1
 366 321 l 1x7c
EndSplineSet
EndChar

StartChar: franc
Encoding: 8355 8355 351
Width: 556
Flags: W
HStem: 0 20 332 82<135 283 135 283> 504 20<299 376 376 376> 519 20<492 524> 647 82<135 531 135 135>
VStem: 42 93<0 332 0 414 414 647> 299 77<429 524 429 524 429 524>
LayerCount: 2
Fore
SplineSet
135 332 m 1xee
 135 0 l 1
 42 0 l 1
 42 729 l 1
 531 729 l 1
 531 647 l 1
 135 647 l 1
 135 414 l 1
 283 414 l 1
 283 332 l 1
 135 332 l 1xee
299 524 m 1
 376 524 l 1x26
 376 429 l 1
 424 507 465 539 519 539 c 0x16
 529 539 537 538 551 536 c 1
 551 451 l 1
 436 454 384 398 383 272 c 1
 383 0 l 1
 299 0 l 1
 299 524 l 1
EndSplineSet
EndChar

StartChar: uni0387
Encoding: 903 903 352
Width: 278
Flags: MW
HStem: 302 125<87 211 87 211>
VStem: 87 124<302 427 302 427>
LayerCount: 2
Fore
SplineSet
211 427 m 1
 211 302 l 1
 87 302 l 1
 87 427 l 1
 211 427 l 1
EndSplineSet
EndChar

StartChar: uni2219
Encoding: 8729 8729 353
Width: 278
Flags: MW
HStem: 302 125<87 211 87 211>
VStem: 87 124<302 427 302 427>
LayerCount: 2
Fore
SplineSet
211 427 m 1
 211 302 l 1
 87 302 l 1
 87 427 l 1
 211 427 l 1
EndSplineSet
EndChar

StartChar: uni00AD
Encoding: 173 173 354
Width: 333
Flags: MW
HStem: 240 72<46 284 46 284>
VStem: 46 238<240 312 240 312>
LayerCount: 2
Fore
SplineSet
284 312 m 1
 284 240 l 1
 46 240 l 1
 46 312 l 1
 284 312 l 1
EndSplineSet
EndChar

StartChar: afii00208
Encoding: 8213 8213 355
Width: 1000
Flags: MW
HStem: 240 72<-9 1001 -9 1001>
LayerCount: 2
Fore
SplineSet
1001 312 m 1
 1001 240 l 1
 -9 240 l 1
 -9 312 l 1
 1001 312 l 1
EndSplineSet
EndChar

StartChar: afii61248
Encoding: 8453 8453 356
Width: 885
Flags: MW
HStem: 337 104<387 491 387 491>
VStem: 387 104<337 441 337 441>
LayerCount: 2
Fore
SplineSet
491 441 m 1
 491 337 l 1
 387 337 l 1
 387 441 l 1
 491 441 l 1
EndSplineSet
EndChar

StartChar: quotereversed
Encoding: 8219 8219 357
Width: 222
Flags: MW
HStem: 625 104<110 158 110 110>
VStem: 65 93<628 729>
LayerCount: 2
Fore
SplineSet
158 729 m 1
 158 625 l 1
 110 625 l 1
 109 567 123 540 158 535 c 1
 158 497 l 1
 98 501 65 548 65 628 c 2
 65 729 l 1
 158 729 l 1
EndSplineSet
EndChar

StartChar: uni2215
Encoding: 8725 8725 358
Width: 278
Flags: MW
HStem: -20 20
LayerCount: 2
Fore
SplineSet
333 709 m 1
 391 709 l 1
 -61 -20 l 1
 -119 -20 l 1
 333 709 l 1
EndSplineSet
EndChar

StartChar: uni02C9
Encoding: 713 713 359
Width: 333
Flags: MW
HStem: 631 70<28 302 28 302>
LayerCount: 2
Fore
SplineSet
302 701 m 1
 302 631 l 1
 28 631 l 1
 28 701 l 1
 302 701 l 1
EndSplineSet
EndChar

